<svg id="Anatomy_Mapper_Logo" data-name="Anatomy Mapper Logo" xmlns="http://www.w3.org/2000/svg" viewBox="0 0 468.38184 255.7519">
  <path id="A_and_Pin_Drop" data-name="A and Pin Drop" d="M186.69451,403.11377c-32.7865-.00047-65.57549-.2471-98.35866.08343a43.52248,43.52248,0,0,1-43.29694-34.886,42.31547,42.31547,0,0,1,5.355-30.4263q23.72819-40.54142,47.46547-81.07757,25.29094-43.15206,50.59622-86.29567c7.97848-13.67894,19.53094-21.93544,35.43453-22.91064,15.57366-.955,28.80857,4.74244,37.44233,17.84359,9.60294,14.57186,18.06975,29.89708,26.9169,44.96143,24.816,42.25481,49.43741,84.62446,74.40155,126.79134,16.35821,27.63063-.79108,59.043-26.51971,64.69225a57.24985,57.24985,0,0,1-12.03854,1.17349C251.62685,403.15433,219.16062,403.11424,186.69451,403.11377Zm-47.90269-32.82145a8.25077,8.25077,0,0,0-.00859-1.36c-2.74635-12.23279-1.2989-23.62347,5.28458-34.631,22.853-38.21014,45.35265-76.63155,68.10688-114.90114,1.53454-2.58089,1.46467-4.37178-.04093-6.8426-5.20857-8.5477-10.17664-17.24182-15.24679-25.874-5.428-9.24139-14.96906-9.2902-20.385-.08551q-12.95807,22.02279-25.87075,44.07226-35.87,61.17235-71.72779,122.35182c-5.46969,9.33547-.58846,17.86672,10.20817,17.87848q22.58341.02454,45.16675-.02273A34.40416,34.40416,0,0,0,138.79182,370.29232Zm89.76965-1.06032a9.938,9.938,0,0,0-.01175-1.72457c-2.67065-11.65136-.16044-22.31906,5.95007-32.37924,7.40407-12.18982,14.66976-24.46374,22.08983-36.64371.81693-1.341,2.2537-2.30442,3.66864-3.70615L232.7702,247.90621c-1.00952,1.65229-1.79976,2.89778-2.54365,4.17034q-18.037,30.856-36.06991,61.71427c-7.42329,12.67159-14.64336,25.47388-22.46355,37.89716-5.06519,8.04662-.24415,18.1027,9.96477,17.6329,9.2638-.42627,18.56273-.08921,27.84616-.0889C215.77991,369.23217,222.0558,369.232,228.56147,369.232ZM278.251,325.43319c-5.92254,10.05369-11.8801,19.39264-17.01819,29.1626-3.39029,6.44663,2.11241,14.28139,9.51085,14.41275,5.9756.10609,11.96848-.22421,17.927.11211,3.83238.2163,6.17819-1.631,6.969-4.72224.7193-2.81146,1.14635-6.50966-.0964-8.86993C290.29541,345.56169,284.37547,335.94876,278.251,325.43319Z" transform="translate(-44.19924 -147.44769)" style="fill: #0d27c7"/>
  <path id="M_first_lobe" data-name="M first lobe" d="M450.97654,403.11326c-7.26129,0-14.52278.03071-21.7838-.01255-3.7894-.02257-5.1227-2.103-3.26078-5.35269,4.452-7.77009,8.74384-15.58659,10.7971-24.415.52092-2.24,2.28354-2.45642,4.24458-2.44684,8.96962.04383,17.96178-.376,26.90337.12622,9.53068.53529,15.74911-8.77111,10.35815-18.0124q-48.53724-83.20413-96.61051-166.67895c-5.09368-8.79307-14.62936-8.77362-19.80009-.03572-1.5186,2.5663-2.92226,5.20328-4.50892,7.7259-1.72989,2.75032-4.06115,2.79454-5.70972.00138-4.81744-8.16234-9.60194-16.34809-14.14767-24.66224a5.25162,5.25162,0,0,1,.37171-4.59282c16.87939-23.488,52.97794-23.07867,68.56447,1.26515,10.90379,17.03018,20.58693,34.84448,30.73963,52.35243q34.38167,59.28992,68.67886,118.62881c9.0073,15.58469,9.21807,31.324-.535,46.52771-8,12.47082-19.84033,19.0287-34.7615,19.51024-6.50688.21-13.02615.03524-19.53984.03524Z" transform="translate(-44.19924 -147.44769)" style="fill: #0d27c7"/>
  <path id="M_second_lobe" data-name="M second lobe" d="M358.05014,403.1128c-7.47574,0-14.95265.066-22.426-.066-1.221-.02159-3.1014-.626-3.47014-1.48136a4.81917,4.81917,0,0,1,.58127-4.05422,64.42663,64.42663,0,0,0,11.01334-23.2009c.628-2.56117,1.96068-3.46065,4.502-3.43747,9.07691.08285,18.15507.04844,27.23272.02763,10.39124-.02382,15.36962-8.50943,10.16111-17.51922q-48.291-83.5351-96.66775-167.02056c-5.11372-8.827-14.6328-8.84034-19.77738-.10627-1.45941,2.47767-2.81622,5.01746-4.32628,7.46321-1.93017,3.12625-4.25474,3.16954-6.09615.03716-4.74946-8.07919-9.49335-16.16527-13.992-24.384a5.23615,5.23615,0,0,1,.33438-4.56117c16.41841-23.35355,52.99032-23.15788,68.40846.86491,10.98033,17.10834,20.721,35.01538,30.92847,52.61606q34.30776,59.1563,68.51859,118.36881c9.3961,16.26423,9.44843,32.54887-1.22445,48.14893-8.01023,11.70821-19.57039,17.78461-33.83758,18.23161-6.61475.20729-13.24135.0354-19.86259.0354Z" transform="translate(-44.19924 -147.44769)" style="fill: #0d27c7"/>
</svg>
