<svg xmlns="http://www.w3.org/2000/svg" xmlns:xlink="http://www.w3.org/1999/xlink" viewBox="0 0 100 100"><defs><style>.a,.e,.h,.j,.r{fill:none;}.b{fill:#010101;}.c{fill:#bebdbf;}.d{fill:#221f1f;}.e{stroke:#010101;}.e,.h,.j,.r{stroke-miterlimit:10;stroke-width:0.2px;}.f{fill:#020202;}.g{clip-path:url(#a);}.h{stroke:#bebdbf;}.i{clip-path:url(#b);}.j{stroke:#020202;}.k{fill:#818385;}.l{clip-path:url(#c);}.m{clip-path:url(#d);}.n{clip-path:url(#e);}.o{clip-path:url(#f);}.p{fill:#bdbec0;}.q{fill:#080808;}.r{stroke:#080808;}.s{fill:#231f20;}.t{fill:#808184;}</style><clipPath id="a"><rect class="a" x="45.4" y="35.1" width="6.3" height="6.94"/></clipPath><clipPath id="b"><rect class="a" x="52.7" y="35.1" width="6.3" height="6.94"/></clipPath><clipPath id="c"><rect class="a" x="53.3" y="15.6" width="1.2" height="1.89"/></clipPath><clipPath id="d"><rect class="a" x="49.8" y="15.7" width="1.2" height="1.89"/></clipPath><clipPath id="e"><rect class="a" x="52.7" y="11.6" width="0.1" height="1.02"/></clipPath><clipPath id="f"><rect class="a" x="51.6" y="11.6" width="0.1" height="1.02"/></clipPath></defs><path class="b" d="M52.4,18.2h0"/><path class="b" d="M50.7,23.1c-1.6-1.2-4.1-.9-6-.7,0,0-.1.1,0,.1a21.6,21.6,0,0,1,3.6,0c.8.1,1.7,0,2.3.6h.1"/><path class="c" d="M47.5,33.1a.1.1,0,0,0-.1.1h0a3.4,3.4,0,0,1-2.6-2.7c0-.1,0-.6-.2-.6s-.1.6-.1.7A3.6,3.6,0,0,0,46.4,33a3.8,3.8,0,0,1,1,.3s.2-.2.1-.2"/><path class="c" d="M47.5,31h0"/><path class="c" d="M55.5,31.1h0c0,.2,0,.3.1.3h0c.4.3,1.2-.1,1.1-.5s-.3-.6-.5-.5.3.2.3.4h0l-.5.3h-.4a.3.3,0,0,0-.1-.2c-.1.1-.1.2,0,.2"/><path class="c" d="M55.5,31.1h0c0,.2,0,.3.1.3h0c.4.3,1.2-.1,1.1-.5s-.3-.6-.5-.5.3.2.3.4h0l-.5.3h-.4a.3.3,0,0,0-.1-.2c-.1.1-.1.2,0,.2"/><path class="c" d="M47.5,31h-.1l.2.3h0c.5.3,1.3-.2.9-.8s-.2-.4-.3-.2l.3.4h-.1l-.4.3h-.6a.1.1,0,0,0,.1.1"/><path class="c" d="M52.1,30.6a19.1,19.1,0,0,1,0,2.4,4.9,4.9,0,0,0,0-2.4h0"/><path class="c" d="M52.2,40.4c-.1.6,0,1.2-.1,1.8s-.7,1.5-.2,2.1.8-.2.6-.6-.7,0-.4.1h.2c.1.2,0,.6-.3.4s-.1-.8,0-1a6.7,6.7,0,0,0,.2-2.8h0"/><path class="c" d="M52,45c.2.3,0,.7.1,1.1a1.4,1.4,0,0,0,0-1.1H52"/><path class="d" d="M49.8,52c1.5.8.8,3.5,2.5,3.9.8-1.2.9-4.1,2.4-4.5-1.6.4-1.2,4.9-2.5,4.8s-1-3.2-2.4-4.2"/><path class="c" d="M46.6,68.2c.7-.8,1.7-.3,2.6-.3h.1c.1-.3-.3-.4-.5-.5s-2-.1-2.2.7"/><path class="c" d="M46,67.4h0c.3.1,1.4-.7,1-.7s-.6.6-1,.7h0"/><path class="c" d="M46.7,71.4c.1-.1,0-.2,0-.1s0,.1.1.2a1.9,1.9,0,0,0,1.8.2c.1,0,.6-.2.5-.4s-.9.3-1.3.2a1.3,1.3,0,0,1-.9-.2h-.1c0-.1-.2,0-.1.1Z"/><path class="d" d="M45.8,50.8l-1.1-1.5a10.3,10.3,0,0,1-.7-2.1c-.3,1.4.8,2.9,1.8,3.6"/><path class="d" d="M44.4,28.3c.3,1.4-.5,3-.2,4.4s.3,0,.2-.1h0a.1.1,0,0,0-.1-.1h0c0-.1-.1-.1-.1.1h.2c.1-.8.1-1.7.2-2.5s.2-1.6-.2-1.9"/><path class="e" d="M49.1,18.4c-.4,1.4-.5,2.8-2.3,3.2s-2.7,1.1-3.9,1.4-2.1,2.1-2.4,3.3a13.8,13.8,0,0,0-.1,4.5c-.1,2.7.1,4.5-.2,7.4-.2,1.4-.9,2.1-1.3,4.6s-1.6,7.1-2.2,7.4"/><path class="c" d="M56.8,33.2c1.5.3,3.3-1.7,3.1-3.2s-.3.1-.3.2a4.6,4.6,0,0,1-1.2,2.4c-.4.4-1,.3-1.5.6H57c-.1-.1-.2-.1-.2,0"/><path class="b" d="M53.7,23.1c1.7-1,4-.7,5.9-.5h.1c0-.1,0-.1-.1-.1-1.8-.1-4.5-.5-5.9.7"/><path class="c" d="M56.9,31h0"/><path class="c" d="M57.8,68.2c-.3-.9-1.5-.9-2.2-.7s-.7.2-.6.5.2-.1.2-.1h-.1c.9,0,2-.4,2.7.3"/><path class="c" d="M58.4,67.4h-.1c.1,0,.1,0,0-.1s-.6-.3-.8-.6-.3-.1-.3,0a1.5,1.5,0,0,0,1.1.7h.1"/><path class="c" d="M57.6,71.4c.1-.1,0-.2,0-.1h-.1a1.6,1.6,0,0,1-1,.2c-.4.1-.8-.2-1.2-.2s.9.5,1.2.6a2.8,2.8,0,0,0,1.1-.4h.1c0-.1-.1,0-.1.1h0"/><path class="e" d="M55.2,18.2a2.8,2.8,0,0,0,2.4,3.3c1.4.2,2.7,1.2,3.9,1.5s2,2.1,2.3,3.3.1,3.5.2,4.5a61.4,61.4,0,0,0,.1,7.4c.2,1.4.9,2.1,1.3,4.6s1.5,6.9,2.1,7.3"/><path class="f" d="M42.9,43.1c.2-1,1-2.4.5-3.2,0,1-.4,2.2-.5,3.2"/><path class="d" d="M58.6,50.9c1-1,2-2.3,1.8-3.7-.3.5-.4,1.5-.8,2.1a8.6,8.6,0,0,0-1,1.6"/><g class="g"><path class="h" d="M51.7,35.1a12.9,12.9,0,0,1-.8,2.8c-.6,3.5-2,5.5-5.4,2.9"/></g><g class="i"><path class="h" d="M52.8,35.1a8.9,8.9,0,0,0,.7,2.8c.7,3.5,2,5.5,5.5,2.9"/></g><path class="d" d="M60,28.2a4.6,4.6,0,0,0-.2,2c.1.8.1,1.7.2,2.5h.2c.1-.2,0-.2-.1-.1h0c-.2.1,0,.2.1.1a.7.7,0,0,0,.1-.5,28,28,0,0,1-.3-4"/><path class="f" d="M52,16.4h-.4c.1-.3.3-.2.4,0"/><path class="f" d="M52.4,16.4h.3c.1-.4-.3-.2-.3,0"/><path class="f" d="M52.9,12.9c-.4.6-.1,1.2-.3,1.8s-.2-1.3.3-1.8"/><path class="f" d="M52.7,14.3c.1.4.1.9.4,1.2s.2,1.1-.3.9.5-.7.1-1a2,2,0,0,1-.2-1.1"/><path class="f" d="M52.2,16.4c-.2.1-.3-.1-.4-.2s-.2.1-.1.2-.1-.4.1-.3.2.3.4.3"/><path class="f" d="M52.7,16.4c.1-.1,0-.1-.1-.2s-.2.3-.4.2l.3-.3c.2-.2.5.3.2.3"/><path class="f" d="M51.4,12.9h0c.5.5.2,1.2.3,1.8s.1-.9-.1-1.4l-.2-.4"/><path class="f" d="M51.6,14.5a1.5,1.5,0,0,1-.2.9c-.4.3-.5.9.1,1s-.5-.3-.4-.6.2-.3.3-.5a1.1,1.1,0,0,0,.2-.8"/><path class="c" d="M52.5,14.7c-.1.4.7,1.1.1,1.4s-.3-.9-.1-1.4"/><path class="f" d="M52,16.4a.2.2,0,0,0,.3,0H52"/><path class="f" d="M52,16.4h0c.1,0,.2.1.3,0H52"/><path class="f" d="M50.8,17.5a2.4,2.4,0,0,1,.9-.3h1.1a1.8,1.8,0,0,1,.9.4l-.9-.4-.6.2-.5-.2c-.4,0-.6.3-.9.3"/><path class="f" d="M54,17.5h0v.2h0"/><path class="f" d="M50.4,17.5v0h0"/><path class="c" d="M52.1,16.6c0,.2-.2.6,0,.6s0-.4,0-.6"/><path class="c" d="M52.4,16.7v0h0"/><path class="f" d="M50.9,17.8a2.1,2.1,0,0,0,2.6,0,1.9,1.9,0,0,1-2.6,0"/><path class="f" d="M50.4,17.5c.5.3.9-.1,1.4,0l.4.2.7-.2a2.1,2.1,0,0,0,1.1.1h0c-.5.1-.7-.1-1.1-.1s-.4.2-.7.1-.3-.1-.4-.1-1,.2-1.4,0Z"/><path class="c" d="M51.9,14.6c.2.5-.6,1.1,0,1.4s.1-.9,0-1.4"/><path class="c" d="M51.3,18.8a1.7,1.7,0,0,1,1.8.1,1.9,1.9,0,0,0-1.8-.1"/><path class="d" d="M51.3,13.7c0,.7-1.6.4-2,.2a3.7,3.7,0,0,0,1.8-.1h.2"/><path class="d" d="M53.1,13.7c0,.1.1.1.2.1a3.3,3.3,0,0,0,1.7.1c-.3.2-2,.5-1.9-.2"/><path class="c" d="M53.1,13.5c-.3.1-.1.6,0,.6s-.2-.5,0-.6"/><path class="c" d="M53.4,14.2a2.9,2.9,0,0,0,1.3.1,1.5,1.5,0,0,1-1.3-.1"/><path class="c" d="M54.6,13a.7.7,0,0,1,.6.7,1.1,1.1,0,0,0-.6-.7"/><path class="c" d="M51.4,13.5c.2.1.1.4-.1.5s.3-.4.1-.5h0"/><path class="c" d="M51,14.2a1.3,1.3,0,0,1-1.2,0,1.7,1.7,0,0,0,1.2,0"/><path class="d" d="M47.9,13.5c-.8-3.1.3-6.7,3.9-6.9s5.8,3.2,4.6,6.6c0,9.1-8.5,9.5-8.5.3m0,0a19.9,19.9,0,0,0,.5,3.4c.7,2.1,2.9,4.1,5.2,2.9a7.1,7.1,0,0,0,2.7-6c.1-1.1.6-2.2.4-3.4a4.2,4.2,0,0,0-4.8-3.7c-3.7.1-4.8,3.7-4,6.8"/><path class="e" d="M47.9,13.5c-.8-3.1.3-6.7,3.9-6.9s5.8,3.2,4.6,6.6C56.4,22.3,47.9,22.7,47.9,13.5Zm0,0a19.9,19.9,0,0,0,.5,3.4c.7,2.1,2.9,4.1,5.2,2.9a7.1,7.1,0,0,0,2.7-6c.1-1.1.6-2.2.4-3.4a4.2,4.2,0,0,0-4.8-3.7C48.2,6.8,47.1,10.4,47.9,13.5Z"/><path class="d" d="M53.1,12.8c.5-.9,1.8-.6,2.4.1a2.6,2.6,0,0,0-2.4-.1"/><path class="d" d="M51.2,12.8a2.1,2.1,0,0,0-2.3.1c.5-.7,1.8-1,2.3-.1"/><path class="j" d="M47.9,13.8c.1-.4-.3-1.3-1-.7s0,2.4.2,2.6.4.7.8.7.2-.3.2-.5,0-.7-.1-1"/><path class="k" d="M47.8,14.3h-.1c-.2,0-.2.4-.3.6a6.1,6.1,0,0,0,.4-.6h0"/><path class="c" d="M47.2,13.2a2.5,2.5,0,0,0-.2,1.9,1.9,1.9,0,0,1,.2-1.9"/><path class="k" d="M47.8,14.6v.2c0-.2,0-.2-.1-.2s.2-.4.2,0"/><path class="c" d="M47.8,16.7h0"/><path class="c" d="M47.6,13.4c-.4,1-.6.3-.3-.3h.1a1.9,1.9,0,0,0-.2.7,1,1,0,0,0,.4-.5"/><path class="k" d="M47.7,14.4v.2h-.1v-.2"/><path class="k" d="M47.7,14.6h0c-.1.1,0,.3-.1.4s-.1-.5.1-.5.1,0,0,.1"/><path class="k" d="M47.6,13.7c0,.3-.3.6-.4.8s0,.9.3,1,.1-.4.3-.2h.1c0-.2,0-.2-.1-.3s0-.5-.2-.6.1.5.2.6h.1c.1.1,0,.3-.1.2s-.2.1-.3.1-.3-.3-.4-.5.3-.9.5-1.3"/><path class="c" d="M47.7,15.3c.2.1.1.4.1.6s.1-.5-.1-.6"/><path class="k" d="M47.3,14.7c.3-.3.5-1.4,0-1.5s-.4,2.1,0,2.6-.9-2.5,0-2.7.3,1.3,0,1.6"/><path class="c" d="M56.4,16.8h0"/><path class="j" d="M56.3,14.9c-.1.3,0,.6-.1,1s-.1.4.2.5.7-.6.8-.7.7-1.9.1-2.6-1,.4-1,.8"/><path class="k" d="M56.5,14.3h0c.1.1.2.5.3.6s-.1-.6-.3-.6h0"/><path class="c" d="M57.1,13.2a1.9,1.9,0,0,1,.2,1.9,4.1,4.1,0,0,0-.2-1.9"/><path class="c" d="M56.7,13.4l.3.5c.1-.2-.1-.5-.1-.7s.4,1.7-.2.2"/><path class="k" d="M56.7,13.7c.2.4.7.7.5,1.3s-.2.6-.4.5-.1-.4-.3-.2-.2,0-.2-.1h.2c.1-.2-.2-.7.1-.6h0a1.3,1.3,0,0,1-.1.6c-.1.1-.2.1-.1.2h.1c.1-.2.2.1.3.2s.4-.7.3-1-.4-.5-.4-.8"/><path class="c" d="M56.6,15.3c-.2.1-.1.4-.2.6s0-.5.2-.6"/><path class="k" d="M56.9,14.7c-.3-.3-.5-1.5.1-1.6s.4,2.2,0,2.7.7-2.4,0-2.6-.3,1.2-.1,1.5"/><path class="c" d="M49.8,13a.8.8,0,0,0-.5.7c0-.3.2-.7.5-.7"/><g class="l"><path class="h" d="M53.3,15.7a3.6,3.6,0,0,1,1.2,1.8"/></g><g class="m"><path class="h" d="M51,15.8a3.6,3.6,0,0,0-1.2,1.8"/></g><g class="n"><path class="h" d="M52.8,12.6a3.4,3.4,0,0,0,0-1"/></g><g class="o"><path class="h" d="M51.7,12.6a3.4,3.4,0,0,1,0-1"/></g><path class="p" d="M34.3,56.7h.2c.1,0-.1-.1-.2,0"/><path class="p" d="M34,56.4h-.1a.1.1,0,0,0,.1.1"/><path class="p" d="M34.5,55.6s-.2-.2-.2-.1h.2"/><path class="p" d="M34.5,55.5c0-.1-.2-.1-.1-.1a.1.1,0,0,1,.1.1"/><path class="p" d="M34.9,55.7c.1.1.1.1.1.2s0-.2-.1-.2"/><path class="p" d="M36.2,56.4h0"/><polyline class="p" points="36.3 56.1 36.3 56.1 36.3 56.1"/><polyline class="p" points="35.5 55.9 35.5 55.9 35.5 55.9"/><polyline class="p" points="35.4 56.1 35.4 56.1 35.4 56.1"/><path class="p" d="M36.3,57.1c0-.1-.2-.1-.1,0h.1"/><path class="p" d="M37.8,56.8c.1,0,.3.1.3,0h-.3"/><path class="p" d="M37.6,56.8h0"/><path class="p" d="M36.3,57.1h-.1a.1.1,0,0,0,.1.1"/><path class="p" d="M35.6,57.5h.1a.1.1,0,0,0-.1.1h0"/><path class="p" d="M36.6,54.9h.1c.1.2.1,0,0,0h-.1"/><polyline class="p" points="36.1 56.2 36.1 56.2 36.1 56.2"/><path class="p" d="M35.7,56.1h-.2c-.1-.1-.1.1,0,0h.2"/><path class="p" d="M35.1,57.3H35c0,.1.1,0,.1,0"/><path class="p" d="M35,57.4c0-.1,0-.1-.1-.1H35"/><path class="p" d="M35.4,57.5c.1,0,.2.2.2.1h-.2"/><path class="p" d="M37,56.1c.1,0,.2.1.2,0H37"/><path class="p" d="M36.7,56h-.1s0-.1-.1,0h.2"/><path class="p" d="M38.3,55.9h0"/><path class="p" d="M37.9,55.8h0"/><path class="p" d="M34.4,53.5h0"/><path class="p" d="M36.9,55c-.1-.1-.1.1-.1.1s0-.1.1-.1"/><path class="p" d="M36.7,54.9h-.1a.1.1,0,0,0,.1-.1h0"/><path class="p" d="M36.7,54.9a.1.1,0,0,1-.1.1h.1"/><path class="p" d="M37.6,55h0"/><path class="p" d="M37.6,55.1c.1-.1-.1-.1,0-.1h0"/><path class="p" d="M37.8,55h0"/><path class="p" d="M36.7,57.3c.1,0,.1,0,.1.1h0c.1-.1,0-.1-.1-.1"/><path class="p" d="M36,56.1c.1,0,.2.1.2,0H36"/><path class="p" d="M39,54.1h0"/><path class="p" d="M39,54.2h0"/><path class="p" d="M36,52.3h0"/><path class="p" d="M35.2,52.6h0"/><path class="p" d="M35.7,52.5a.5.5,0,0,0-.6.2h0l.6-.2"/><polyline class="p" points="37.5 55.1 37.5 55.1 37.5 55.1"/><path class="p" d="M37.4,55.1h.7c-.2,0-.5-.1-.7.1"/><path class="p" d="M38.4,55.1c.1,0,.5-.1.5-.3h0c-.1.2-.4.2-.5.3"/><path class="p" d="M35.1,54.2c-.1,0,0-.2,0-.2s-.1.2,0,.2"/><path class="p" d="M35.2,53.7c0-.1.4-.1.5-.1s1.6.1,2.7-.6c-.5.1-.9.6-1.4.7s-1.6-.5-1.8,0"/><polyline class="p" points="39 54.2 39 54.2 39 54.2"/><path class="p" d="M36.6,54.1c.5-.2,2.1-.4,2.5.1h0c0-.6-2.1-.4-2.5-.1h0"/><path class="p" d="M37.4,51.7A6.7,6.7,0,0,1,36,53.6h0a3.4,3.4,0,0,0,1.4-1.9"/><path class="p" d="M36.5,54.8c0,.1.4.3.3.1h-.3"/><path class="p" d="M37.1,55h-.3a.1.1,0,0,0-.1.1c.1,0,.4.1.4,0"/><path class="p" d="M36,54.9c0-.3-.1-.3-.4-.4s.3.1.4.3h0"/><path class="p" d="M34.8,52.4c-.1.1.1.6.2.4h0a.5.5,0,0,1-.2-.4"/><path class="p" d="M34.1,53.2c.2.1.2.3.3.5s-.2-.5-.3-.5"/><path class="p" d="M34.7,51.7c0-.1.1-.3.1-.4s-.2.3-.1.4"/><path class="p" d="M35.6,53.3c.1-.1,0-.5-.2-.6h0a1.4,1.4,0,0,1,.2.6"/><path class="p" d="M34.2,53.6h0"/><path class="p" d="M35.5,52.5h-.1a.1.1,0,0,0-.1.1h.2"/><path class="p" d="M35.4,52.5c0,.1,0,.1-.1.1h.1a.1.1,0,0,0-.1.1h.1c0-.1-.1-.1-.1,0h.1c0-.1-.1-.1-.1,0h.1c-.1.1,0,.1,0,.1h0"/><path class="p" d="M35.5,52.9h-.1c-.1,0,0,.2.1.1h0"/><path class="p" d="M34.9,52.9h0"/><path class="p" d="M34.9,52.9h0"/><path class="p" d="M34.9,52.8h0"/><path class="p" d="M36,52.4h-.7c.1.1.5,0,.7-.2"/><path class="p" d="M34.3,56.7h.2c.1,0-.1-.1-.2,0"/><path class="p" d="M34,56.4h-.1a.1.1,0,0,0,.1.1"/><path class="p" d="M34.5,55.6s-.2-.2-.2-.1h.2"/><path class="p" d="M34.5,55.5c0-.1-.2-.1-.1-.1a.1.1,0,0,1,.1.1"/><path class="p" d="M34.9,55.7c.1.1.1.1.1.2s0-.2-.1-.2"/><path class="p" d="M36.2,56.4h0"/><polyline class="p" points="36.3 56.1 36.3 56.1 36.3 56.1"/><polyline class="p" points="35.5 55.9 35.5 55.9 35.5 55.9"/><polyline class="p" points="35.4 56.1 35.4 56.1 35.4 56.1"/><path class="p" d="M36.3,57.1c0-.1-.2-.1-.1,0h.1"/><path class="p" d="M37.8,56.8c.1,0,.3.1.3,0h-.3"/><path class="p" d="M37.6,56.8h0"/><path class="p" d="M36.3,57.1h-.1a.1.1,0,0,0,.1.1"/><path class="p" d="M35.6,57.5h.1a.1.1,0,0,0-.1.1h0"/><path class="p" d="M36.6,54.9h.1c.1.2.1,0,0,0h-.1"/><polyline class="p" points="36.1 56.2 36.1 56.2 36.1 56.2"/><path class="p" d="M35.7,56.1h-.2c-.1-.1-.1.1,0,0h.2"/><path class="p" d="M35.1,57.3H35c0,.1.1,0,.1,0"/><path class="p" d="M35,57.4c0-.1,0-.1-.1-.1H35"/><path class="p" d="M35.4,57.5c.1,0,.2.2.2.1h-.2"/><path class="p" d="M37,56.1c.1,0,.2.1.2,0H37"/><path class="p" d="M36.7,56h-.1s0-.1-.1,0h.2"/><path class="p" d="M38.3,55.9h0"/><path class="p" d="M37.9,55.8h0"/><path class="p" d="M34.4,53.5h0"/><path class="p" d="M36.9,55c-.1-.1-.1.1-.1.1s0-.1.1-.1"/><path class="p" d="M36.7,54.9h-.1a.1.1,0,0,0,.1-.1h0"/><path class="p" d="M36.7,54.9a.1.1,0,0,1-.1.1h.1"/><path class="p" d="M37.8,55h0"/><path class="p" d="M36.7,57.3c.1,0,.1,0,.1.1h0c.1-.1,0-.1-.1-.1"/><path class="p" d="M36,56.1c.1,0,.2.1.2,0H36"/><path class="p" d="M39,54.1h0"/><path class="p" d="M39,54.2h0"/><path class="p" d="M36,52.3h0"/><path class="p" d="M35.2,52.6h0"/><path class="p" d="M35.7,52.5a.5.5,0,0,0-.6.2h0l.6-.2"/><polyline class="p" points="37.5 55.1 37.5 55.1 37.5 55.1"/><path class="p" d="M37.4,55.1h.7c-.2,0-.5-.1-.7.1"/><path class="p" d="M38.4,55.1c.1,0,.5-.1.5-.3h0c-.1.2-.4.2-.5.3"/><path class="p" d="M35.1,54.2c-.1,0,0-.2,0-.2s-.1.2,0,.2"/><path class="p" d="M35.2,53.7c0-.1.4-.1.5-.1s1.6.1,2.7-.6c-.5.1-.9.6-1.4.7s-1.6-.5-1.8,0"/><polyline class="p" points="39 54.2 39 54.2 39 54.2"/><path class="p" d="M36.6,54.1c.6-.2,2.1-.4,2.5.1h0c.2-.6-2.3-.4-2.5-.1h0"/><path class="p" d="M37.4,51.7A6.7,6.7,0,0,1,36,53.6h0a3.4,3.4,0,0,0,1.4-1.9"/><path class="p" d="M37.4,52.9c.5-.8,1.1-3-.5-2.8h0c1.6.1.9,1.9.5,2.8"/><path class="p" d="M38.3,50.4a.8.8,0,0,0,.9.3,1.6,1.6,0,0,1-.9-.3h0"/><path class="p" d="M36.5,54.8c0,.1.4.3.3.1h-.3"/><path class="p" d="M37.1,55h-.3a.1.1,0,0,0-.1.1c.1,0,.4.1.4,0"/><path class="p" d="M36,54.9c0-.3-.1-.3-.4-.4s.3.1.4.3h0"/><path class="p" d="M34.8,52.4c-.1.1.1.6.2.4h0a.5.5,0,0,1-.2-.4"/><path class="p" d="M34.1,53.2c.2.1.2.3.3.5s-.2-.5-.3-.5"/><path class="p" d="M34.7,51.7c0-.1.1-.3.1-.4s-.2.3-.1.4"/><path class="p" d="M35.6,53.3c.1-.1,0-.5-.2-.6h0a1.4,1.4,0,0,1,.2.6"/><path class="p" d="M34.2,53.6h0"/><path class="p" d="M35.5,52.5h-.1a.1.1,0,0,0-.1.1h.2"/><path class="p" d="M35.4,52.5c0,.1,0,.1-.1.1h.1a.1.1,0,0,0-.1.1h.1c0-.1-.1-.1-.1,0h.1c0-.1-.1-.1-.1,0h.1c-.1.1,0,.1,0,.1h0"/><path class="p" d="M35.5,52.9h-.1c-.1,0,0,.2.1.1h0"/><path class="p" d="M34.9,52.9h0"/><path class="p" d="M34.9,52.9h0"/><path class="p" d="M34.9,52.8h0"/><path class="p" d="M36,52.4h-.7c.1.1.5,0,.7-.2"/><path class="q" d="M39.6,50.1c-.4,1.3.1,2.7-.4,4s-1.6,4.8-1.9,3.4a18.4,18.4,0,0,0,.5-2.5h0c-.3.1-.3.7-.4.9a12.8,12.8,0,0,1-1.1,2.7.3.3,0,0,1-.4-.4,15.7,15.7,0,0,1,.8-2.9c.1-.1.1-.3,0-.3s-1.3,4.1-2,3.4.1-.8.2-1.2a26,26,0,0,0,1-2.5c-.1-.1-.1.1-.2.1s-1.1,2.2-2,2.8.2-1.3.3-1.6,2.2-4.1,1-3.2a3.8,3.8,0,0,1-.8,1.1c-.4.3-1.6.2-.9-.4s1.2-2.6,3.2-3.3a.4.4,0,0,0,.4-.2l.4-.8a7.9,7.9,0,0,1-.4.9,6.4,6.4,0,0,0-2.2,1.4,7.2,7.2,0,0,1-1.4,2l-.2.3c.4.5,1.2.1,1.4-.4s.5-.9.9-.8,0,.3,0,.4-2.5,4.3-1.7,4.5,1.4-1.9,2.1-2.8-.8,2.2-.8,2.5-.6,1.7.2,1.2a36.8,36.8,0,0,0,1.5-3.5c.5,0-1.1,3-.8,3.6s1.3-3.4,1.9-3.5h0a4.9,4.9,0,0,1-.1,1.2c-.1.2-.8,1.9,0,1.5h0c.7-1.8,1.7-3.6,1.7-5.5a3.8,3.8,0,0,1,.2-2.1"/><path class="r" d="M39.6,50.1c-.4,1.3.1,2.7-.4,4s-1.6,4.8-1.9,3.4a18.4,18.4,0,0,0,.5-2.5h0c-.3.1-.3.7-.4.9a12.8,12.8,0,0,1-1.1,2.7.3.3,0,0,1-.4-.4,15.7,15.7,0,0,1,.8-2.9c.1-.1.1-.3,0-.3s-1.3,4.1-2,3.4.1-.8.2-1.2a26,26,0,0,0,1-2.5c-.1-.1-.1.1-.2.1s-1.1,2.2-2,2.8.2-1.3.3-1.6,2.2-4.1,1-3.2a3.8,3.8,0,0,1-.8,1.1c-.4.3-1.6.2-.9-.4s1.2-2.6,3.2-3.3a.4.4,0,0,0,.4-.2l.4-.8a7.9,7.9,0,0,1-.4.9,6.4,6.4,0,0,0-2.2,1.4,7.2,7.2,0,0,1-1.4,2l-.2.3c.4.5,1.2.1,1.4-.4s.5-.9.9-.8,0,.3,0,.4-2.5,4.3-1.7,4.5,1.4-1.9,2.1-2.8-.8,2.2-.8,2.5-.6,1.7.2,1.2a36.8,36.8,0,0,0,1.5-3.5c.5,0-1.1,3-.8,3.6s1.3-3.4,1.9-3.5h0a4.9,4.9,0,0,1-.1,1.2c-.1.2-.8,1.9,0,1.5h0c.7-1.8,1.7-3.6,1.7-5.5a3.8,3.8,0,0,1,.2-2.1"/><path class="p" d="M70,56.7h-.1c-.1,0,.1-.1.1,0"/><path class="p" d="M70.4,56.4s0-.2.1-.1a.1.1,0,0,0-.1.1"/><path class="p" d="M69.8,55.6s.2-.2.2-.1h-.2"/><path class="p" d="M69.8,55.5c0-.1.2-.1.2-.1s-.2,0-.2.1"/><path class="p" d="M69.4,55.7c0,.1-.1.1-.1.2s.1-.2.1-.2"/><path class="p" d="M68.2,56.4h0"/><polyline class="p" points="68.1 56.1 68.1 56.1 68.1 56.1"/><polyline class="p" points="68.9 55.9 68.9 55.9 68.9 55.9"/><polyline class="p" points="68.9 56.1 68.9 56.1 68.9 56.1"/><path class="p" d="M68,57.1c0-.1.2-.1.1,0H68"/><path class="p" d="M66.5,56.8s-.3.1-.2,0h.2"/><path class="p" d="M66.7,56.8h0"/><path class="p" d="M68.1,57.1h0"/><path class="p" d="M68.7,57.5h0"/><path class="p" d="M67.8,54.9h-.1c-.1.2-.2,0,0,0h.1"/><polyline class="p" points="68.3 56.2 68.3 56.2 68.3 56.2"/><path class="p" d="M68.7,56.1a.1.1,0,0,1,.1-.1h0c.2-.1.1.1,0,0h0a.1.1,0,0,1-.1.1"/><path class="p" d="M69.2,57.3h.1c0,.1-.1,0-.1,0h0"/><path class="p" d="M69.3,57.4a.1.1,0,0,1,.1-.1h-.1"/><path class="p" d="M68.9,57.5s-.2.2-.2.1h.1a.1.1,0,0,0,.1-.1"/><path class="p" d="M67.3,56.1s-.2.1-.2,0h.2"/><path class="p" d="M67.6,56h0"/><path class="p" d="M66.1,55.9h-.3s0-.1.1,0h0c0,.1.1.1.2.1"/><path class="p" d="M66.4,55.8h0"/><path class="p" d="M69.9,53.5h0"/><path class="p" d="M67.5,55c0-.1.1.1,0,.1h0"/><path class="p" d="M67.7,54.9h0"/><path class="p" d="M67.7,54.9h0"/><path class="p" d="M66.8,55h0c-.1.1,0,.1,0,.1h0c-.1.1-.1-.1,0-.1h0"/><path class="p" d="M66.8,55.1c-.1-.1,0-.1,0-.1h-.1c.1,0,.1.1.1,0h0c-.1.1-.1,0,0,0h0"/><path class="p" d="M66.5,55h0"/><path class="p" d="M67.6,57.3a.1.1,0,0,0-.1.1h0c-.1-.1.1-.1.1-.1"/><path class="p" d="M68.3,56.1c-.1,0-.2.1-.2,0h.2"/><path class="p" d="M65.3,54.1h0"/><path class="p" d="M65.4,54.2h0"/><path class="p" d="M68.4,52.3h0"/><path class="p" d="M69.1,52.6h0"/><path class="p" d="M68.6,52.5c.2-.1.6,0,.6.2h0a1.1,1.1,0,0,0-.6-.2"/><polyline class="p" points="66.9 55.1 66.9 55.1 66.9 55.1"/><path class="p" d="M66.9,55.1h-.6c.2,0,.4-.1.6.1"/><path class="p" d="M65.9,55.1c-.1,0-.5-.1-.4-.3h-.1s.1-.1,0-.1.1,0,.1.1h0c.1.2.3.2.4.3"/><path class="p" d="M69.2,54.2c.1,0,.1-.2.1-.2s0,.2-.1.2"/><path class="p" d="M69.1,53.7c0-.1-.4-.1-.5-.1A2.5,2.5,0,0,1,66,53c.5.1.8.6,1.3.7s1.6-.5,1.8,0"/><polyline class="p" points="65.3 54.2 65.3 54.2 65.3 54.2"/><path class="p" d="M67.8,54.1c-.6-.2-2.1-.4-2.5.1h-.1c0-.1.1-.1.1,0h-.1c0-.6,2.2-.4,2.6-.1h0"/><path class="p" d="M66.9,51.7a6.7,6.7,0,0,0,1.4,1.9h0c-.7-.3-1-1.2-1.4-1.9"/><path class="p" d="M67.8,54.8c0,.1-.4.3-.2.1s.2,0,.2-.1"/><path class="p" d="M67.3,55h0c.1,0,.2,0,.2-.1s.1,0,.1.1-.3.1-.3,0"/><path class="p" d="M68.3,54.9c0-.3.2-.3.4-.4s-.3.1-.3.3a.1.1,0,0,0-.1.1"/><path class="p" d="M69.6,52.4c0,.1-.2.6-.2.4h0a.5.5,0,0,0,.2-.4"/><path class="p" d="M70.2,53.2c-.2.1-.2.3-.3.5s.2-.5.3-.5"/><path class="p" d="M69.6,51.7c.1-.1,0-.3-.1-.4s.2.3.1.4"/><path class="p" d="M68.8,53.3c-.2-.1-.1-.5.1-.6h0a.7.7,0,0,0-.1.6"/><path class="p" d="M70.1,53.6h0"/><path class="p" d="M68.9,52.5h0a.1.1,0,0,1,.1.1h-.1"/><path class="p" d="M69,52.5h0s-.1,0,0-.1"/><path class="p" d="M68.8,52.9h.1c.1,0,0,.2,0,.1h-.1"/><path class="p" d="M69.4,52.9h0"/><path class="p" d="M69.4,52.9h0"/><path class="p" d="M69.5,52.8a.1.1,0,0,0-.1.1c0,.1,0-.1.1-.1"/><path class="p" d="M68.3,52.4h.8a.8.8,0,0,1-.8-.2"/><path class="p" d="M70,56.7h-.1c-.1,0,.1-.1.1,0"/><path class="p" d="M70.4,56.4s0-.2.1-.1a.1.1,0,0,0-.1.1"/><path class="p" d="M69.8,55.6s.2-.2.2-.1h-.2"/><path class="p" d="M69.8,55.5c0-.1.2-.1.2-.1s-.2,0-.2.1"/><path class="p" d="M69.4,55.7c0,.1-.1.1-.1.2s.1-.2.1-.2"/><path class="p" d="M68.2,56.4h0"/><polyline class="p" points="68.1 56.1 68.1 56.1 68.1 56.1"/><polyline class="p" points="68.9 55.9 68.9 55.9 68.9 55.9"/><polyline class="p" points="68.9 56.1 68.9 56.1 68.9 56.1"/><path class="p" d="M68,57.1c0-.1.2-.1.1,0H68"/><path class="p" d="M66.5,56.8s-.3.1-.2,0h.2"/><path class="p" d="M66.7,56.8h0"/><path class="p" d="M68.1,57.1h0"/><path class="p" d="M68.7,57.5h0"/><path class="p" d="M67.8,54.9h-.1c-.1.2-.2,0,0,0h.1"/><polyline class="p" points="68.3 56.2 68.3 56.2 68.3 56.2"/><path class="p" d="M68.7,56.1a.1.1,0,0,1,.1-.1h0c.2-.1.1.1,0,0h0a.1.1,0,0,1-.1.1"/><path class="p" d="M69.2,57.3h.1c0,.1-.1,0-.1,0h0"/><path class="p" d="M69.3,57.4a.1.1,0,0,1,.1-.1h-.1"/><path class="p" d="M68.9,57.5s-.2.2-.2.1h.1a.1.1,0,0,0,.1-.1"/><path class="p" d="M67.3,56.1s-.2.1-.2,0h.2"/><path class="p" d="M67.6,56h0"/><path class="p" d="M66.1,55.9h-.3s0-.1.1,0h0c0,.1.1.1.2.1"/><path class="p" d="M66.4,55.8h0"/><path class="p" d="M69.9,53.5h0"/><path class="p" d="M67.5,55c0-.1.1.1,0,.1h0"/><path class="p" d="M67.7,54.9h0"/><path class="p" d="M67.7,54.9h0"/><path class="p" d="M66.5,55h0"/><path class="p" d="M67.6,57.3a.1.1,0,0,0-.1.1h0c-.1-.1.1-.1.1-.1"/><path class="p" d="M68.3,56.1c-.1,0-.2.1-.2,0h.2"/><path class="p" d="M65.3,54.1h0"/><path class="p" d="M65.4,54.2h0"/><path class="p" d="M68.4,52.3h0"/><path class="p" d="M69.1,52.6h0"/><path class="p" d="M68.6,52.5c.2-.1.6,0,.6.2h0a1.1,1.1,0,0,0-.6-.2"/><polyline class="p" points="66.9 55.1 66.9 55.1 66.9 55.1"/><path class="p" d="M66.9,55.1h-.6c.2,0,.4-.1.6.1"/><path class="p" d="M65.9,55.1c-.1,0-.5-.1-.4-.3h-.1s.1-.1,0-.1.1,0,.1.1h0c.1.2.3.2.4.3"/><path class="p" d="M69.2,54.2c.1,0,.1-.2.1-.2s0,.2-.1.2"/><path class="p" d="M69.1,53.7c0-.1-.4-.1-.5-.1A2.5,2.5,0,0,1,66,53c.5.1.8.6,1.3.7s1.6-.5,1.8,0"/><polyline class="p" points="65.3 54.2 65.3 54.2 65.3 54.2"/><path class="p" d="M67.8,54.1c-.6-.2-2.1-.4-2.5.1h-.1c-.1-.6,2.3-.4,2.6-.1h0"/><path class="p" d="M66.9,51.7a6.7,6.7,0,0,0,1.4,1.9h0c-.7-.3-1-1.2-1.4-1.9"/><path class="p" d="M66.9,52.9c-.5-.8-1.1-3,.6-2.8h0c-1.6.1-.9,1.9-.6,2.8"/><path class="p" d="M66.1,50.4a1,1,0,0,1-1,.3,1.9,1.9,0,0,0,1-.3h0"/><path class="p" d="M67.8,54.8c0,.1-.4.3-.2.1s.2,0,.2-.1"/><path class="p" d="M67.3,55h0c.1,0,.2,0,.2-.1s.1,0,.1.1-.3.1-.3,0"/><path class="p" d="M68.3,54.9c0-.3.2-.3.4-.4s-.3.1-.3.3a.1.1,0,0,0-.1.1"/><path class="p" d="M69.6,52.4c0,.1-.2.6-.2.4h0a.5.5,0,0,0,.2-.4"/><path class="p" d="M70.2,53.2c-.2.1-.2.3-.3.5s.2-.5.3-.5"/><path class="p" d="M69.6,51.7c.1-.1,0-.3-.1-.4s.2.3.1.4"/><path class="p" d="M68.8,53.3c-.2-.1-.1-.5.1-.6h0a.7.7,0,0,0-.1.6"/><path class="p" d="M70.1,53.6h0"/><path class="p" d="M68.9,52.5h0a.1.1,0,0,1,.1.1h-.1"/><path class="p" d="M69,52.5h0s-.1,0,0-.1"/><path class="p" d="M68.8,52.9h.1c.1,0,0,.2,0,.1h-.1"/><path class="p" d="M69.4,52.9h0"/><path class="p" d="M69.4,52.9h0"/><path class="p" d="M69.5,52.8a.1.1,0,0,0-.1.1c0,.1,0-.1.1-.1"/><path class="p" d="M68.3,52.4h.8a.8.8,0,0,1-.8-.2"/><path class="q" d="M64.7,50.1c.5,1.3,0,2.7.4,4s1.6,4.8,2,3.4a10.2,10.2,0,0,1-.6-2.5h0c.3.1.3.7.5.9a12.5,12.5,0,0,0,1,2.7c.3.1.6-.1.5-.4s-.6-1.9-.9-2.9-.1-.3,0-.3,1.3,4.1,2.1,3.4-1.8-4.4-1.1-3.6,1.9,3.7,2.3,2.4-3-5.4-1.6-4.4.4.8.8,1.1.9.4,1.2,0a.5.5,0,0,0-.2-.4c-1.3-1.3-1.3-2.6-3.2-3.3-.2,0-.4,0-.5-.2a6.9,6.9,0,0,0-.3-.8,1.5,1.5,0,0,0,.4.9,6.4,6.4,0,0,1,2.2,1.4,6.9,6.9,0,0,0,1.3,2l.2.3c-.3.5-1.2.1-1.4-.4s-.4-.9-.8-.8-.1.3-.1.4,2.6,4.3,1.7,4.5-1.4-1.9-2-2.8.8,2.2.8,2.5.6,1.7-.2,1.2a15.4,15.4,0,0,1-1.5-3.5c-.6,0,1,3,.7,3.6s-1.3-3.4-1.9-3.5h0a5,5,0,0,0,.2,1.2c0,.2.7,1.9,0,1.5h0c-.8-1.8-1.8-3.6-1.7-5.5s.1-1.4-.3-2.1"/><path class="r" d="M64.7,50.1c.5,1.3,0,2.7.4,4s1.6,4.8,2,3.4a10.2,10.2,0,0,1-.6-2.5h0c.3.1.3.7.5.9a12.5,12.5,0,0,0,1,2.7c.3.1.6-.1.5-.4s-.6-1.9-.9-2.9-.1-.3,0-.3,1.3,4.1,2.1,3.4-1.8-4.4-1.1-3.6,1.9,3.7,2.3,2.4-3-5.4-1.6-4.4.4.8.8,1.1.9.4,1.2,0a.5.5,0,0,0-.2-.4c-1.3-1.3-1.3-2.6-3.2-3.3-.2,0-.4,0-.5-.2a6.9,6.9,0,0,0-.3-.8,1.5,1.5,0,0,0,.4.9,6.4,6.4,0,0,1,2.2,1.4,6.9,6.9,0,0,0,1.3,2l.2.3c-.3.5-1.2.1-1.4-.4s-.4-.9-.8-.8-.1.3-.1.4,2.6,4.3,1.7,4.5-1.4-1.9-2-2.8.8,2.2.8,2.5.6,1.7-.2,1.2a15.4,15.4,0,0,1-1.5-3.5c-.6,0,1,3,.7,3.6s-1.3-3.4-1.9-3.5h0a5,5,0,0,0,.2,1.2c0,.2.7,1.9,0,1.5h0c-.8-1.8-1.8-3.6-1.7-5.5s.1-1.4-.3-2.1"/><path class="b" d="M49.4,89.4a1.1,1.1,0,0,1-.2.6l-.3.2a.4.4,0,0,0-.1.3.4.4,0,0,1,.1-.3.2.2,0,0,1,.2-.2.7.7,0,0,0,.1-.6Z"/><path class="e" d="M39.4,51c.3-1.6,2-4.2,2.9-6.1A31.1,31.1,0,0,1,43.9,40a11.3,11.3,0,0,0,.1-2.8,28.3,28.3,0,0,1,.3-4.7c.1-.8.6,3.4,1,4.2s0,4.4-.6,6.3a15,15,0,0,0-.7,5.1c.3.8-.2,1.3-.4,2-1.4,4,1,9.2,1.5,12.7,0,1.2,0,6.2.2,7.1.3,2.7-1.6,7.2-.6,10.3A34.3,34.3,0,0,1,46,89.6c-.1,1.1-1.4,2-1.6,2.7v.8a.9.9,0,0,0-.1.7s.1.4.4.3a.3.3,0,0,0,.5.3c0,.2.5.6.7.3a.5.5,0,0,0,.5.3.5.5,0,0,0,.6-.4h0c0,.7,1,.7,1.3.5s.3-.8.4-1.2,0-2.3.3-3.1.4-1,.3-1.5-.3-.9-.4-1.5a3.1,3.1,0,0,1,.1-.9c-.2-4.8,1.8-10.4,1.2-14.5-.4-1.3.2-1.4.4-2,.5-2.5,1-11.3,1.3-14.4"/><path class="b" d="M47.1,94.8a2.2,2.2,0,0,1,.1-.8c0-.1.2-.4.2-.6s-.4.6-.4,1.2Z"/><path class="b" d="M46,94.7a1.8,1.8,0,0,1,.1-.5c.3-.2.3-.7.3-.8a4.1,4.1,0,0,1-.3.8.8.8,0,0,0-.2.5Z"/><path class="b" d="M45.3,94.5c-.1-.1.4-1,.3-1l-.3.6c0,.3-.1.3-.1.3Z"/><path class="b" d="M44.8,94.1v-.3l.2-.4c-.1.1-.2.6-.3.7Z"/><path class="s" d="M44.8,93.6c0-.1.1-.2,0-.3a.5.5,0,0,1,.2.4Z"/><path class="s" d="M44.8,93.7h0l.2.2Z"/><path class="b" d="M46.1,89.1c0,.1.1.3.1.4a.6.6,0,0,1,.1.4,2.8,2.8,0,0,1,.1.9c-.1-.3-.1-.6-.2-.9s-.1-.2-.1-.3-.2-.3-.2-.5Z"/><path class="s" d="M47.1,94c0-.2.1-.3.1-.4s.1.2.1.4Z"/><path class="b" d="M44.4,92.1l.3-.3a.2.2,0,0,1,.2-.2c.2-.1.4-.1.6-.3s-.4.2-.5.4a.2.2,0,0,0-.2.2l-.2.2Z"/><polygon class="b" points="48.8 92.6 48.6 91.1 49 92.5 48.8 92.6"/><path class="t" d="M47.3,94.7h.9a.3.3,0,0,0,0-.4h-.6a.3.3,0,0,0-.3.3h-.1a.1.1,0,0,1,.1.1Zm.1,0h-.2c.1,0,0,0,.1-.1h-.1a.4.4,0,0,1,.1-.3l.3-.2h.7a.4.4,0,0,1,.1.3c0,.1-.1.1-.1.2h0c-.1.1-.1.1-.2,0h-.7Z"/><path class="p" d="M47.5,94.3h.3Z"/><path class="t" d="M46.7,94.7v-.2h-.2c-.2,0-.3,0-.4.2s0-.3.1-.3h.4c.1.1.2.1.2.2S46.8,94.6,46.7,94.7Z"/><path class="p" d="M46.3,94.4c.2,0,.2-.1.4.1S46.3,94.6,46.3,94.4Z"/><path class="t" d="M45.8,94.5h-.5c0-.1,0-.2.2-.3h.1c.1,0,.2,0,.2.1s.2.2.1.3Zm0,0h0v-.2h-.2c0-.1-.1,0-.1.1h0Z"/><path class="p" d="M45.8,94.3c-.1.2-.3.1-.3-.1Z"/><path class="t" d="M44.9,94.1c-.1,0-.1-.1,0-.2h0c.1-.1.1,0,.2,0h.2v.2h-.1c0-.1,0-.1-.1-.1h-.2Z"/><path class="p" d="M45.2,94.1h-.1c-.1-.1-.2-.1-.1-.2h.2Z"/><path class="b" d="M48.6,94.2a1.9,1.9,0,0,0-.1-.8,1.1,1.1,0,0,1,.3.8Z"/><path class="p" d="M47.4,94h.5a.5.5,0,0,1,.5.3h-1Z"/><path class="b" d="M46.2,93.8c.1-.1.1-.2.2-.2v.3Z"/><path class="b" d="M45.5,93.8a.1.1,0,0,1,0-.2h.1c.1,0,.1.1,0,.1Z"/><path class="p" d="M46.3,94.1h.4l.3.3h-.7Z"/><path class="t" d="M44.9,94.1H45c.1.1.2.1.2.2h-.3s-.1.1-.1,0Z"/><path class="t" d="M44.8,93.7v.2h-.4v-.2h.4Z"/><path class="p" d="M44.5,93.7h.1c.1,0,.1,0,.1.1h-.2Z"/><path class="t" d="M44.8,93.7h-.3a.1.1,0,0,1,.1-.1h.1A.1.1,0,0,1,44.8,93.7Z"/><path class="b" d="M44.3,93.4c0-.2.1-.2.2-.3s-.1.2,0,.3Z"/><path class="b" d="M45.3,94.1v-.2l.2.2Z"/><path class="p" d="M46,94.2l-.5-.2A.3.3,0,0,1,46,94.2Z"/><path class="p" d="M44.9,93.8a.2.2,0,0,1,.4.1Z"/><path class="t" d="M47.5,93.3a1.5,1.5,0,0,1,.1-.7,2.4,2.4,0,0,0,.2-.8h0v.8a1.1,1.1,0,0,1-.3.7Z"/><path class="t" d="M45.7,93.2a1.4,1.4,0,0,1,.2-.6l.4-.5h0a1.4,1.4,0,0,1-.2.6l-.4.6Z"/><path class="t" d="M46.5,93.2c0-.2,0-.5.1-.6L47,92h0l-.2.6c0,.1-.1.2-.1.3l-.2.3Z"/><path class="t" d="M45.5,92.2c-.1.1-.1.3-.2.5l-.3.5h0a1.3,1.3,0,0,1,.1-.6l.4-.5Z"/><path class="t" d="M48.6,87.3v1.6a4.3,4.3,0,0,0,.1.5h0a2.3,2.3,0,0,1-.3-1.1,3.7,3.7,0,0,1,.1-1.1Z"/><path class="t" d="M46.1,94.6h.4a.2.2,0,0,1,.2.2Z"/><path class="p" d="M44.5,93.6h.3C44.6,93.7,44.6,93.7,44.5,93.6Z"/><path class="b" d="M55.1,89.4a1.4,1.4,0,0,0,.2.6.2.2,0,0,1,.2.2.4.4,0,0,1,.1.3v-.3l-.3-.2a3.3,3.3,0,0,1-.3-.6Z"/><path class="e" d="M65,50.9c-.4-1.5-2.1-4.1-2.9-6s-.9-3.7-1.6-4.9a11.3,11.3,0,0,1-.1-2.8,46.1,46.1,0,0,0-.3-4.7c-.1-.8-.7,3.4-1,4.2s0,4.4.6,6.3.9,4.3.6,5.1.3,1.3.5,2c1.4,4-1,9.2-1.5,12.7,0,1.2,0,6.2-.2,7.1-.3,2.7,1.6,7.2.6,10.3s-1.3,6.9-1.3,9.4,1.4,2,1.5,2.7a2.8,2.8,0,0,1,.1.8,1.7,1.7,0,0,1,.1.7s-.1.4-.4.3a.4.4,0,0,1-.5.3c0,.2-.5.6-.8.3s-.3.3-.4.3a.6.6,0,0,1-.7-.4h0c.1.7-.9.7-1.2.5s-.3-.8-.5-1.2.1-2.3-.2-3.1a4.8,4.8,0,0,1-.4-1.5c.1-.8.4-.9.4-1.5v-.9c.2-4.8-1.8-10.4-1.2-14.5.3-1.3-.2-1.4-.5-2-.4-2.5-.9-11.3-1.2-14.4"/><path class="b" d="M57.3,94.8a2.2,2.2,0,0,0-.1-.8c0-.1-.2-.4-.2-.6s.4.6.4,1.2Z"/><path class="b" d="M58.4,94.7a1,1,0,0,0-.2-.5,1.3,1.3,0,0,1-.2-.8,4.1,4.1,0,0,0,.3.8.8.8,0,0,1,.2.5Z"/><path class="b" d="M59.1,94.5c.1-.1-.4-1-.3-1l.3.6c0,.3.1.3.1.3Z"/><path class="b" d="M59.6,94.1v-.3c0-.3-.1-.3-.1-.4s.2.6.3.7Z"/><path class="s" d="M59.4,93.7a.5.5,0,0,1,.2-.4c-.1.1,0,.2,0,.3Z"/><path class="s" d="M59.4,93.8l.2-.2h-.2Z"/><path class="b" d="M58.5,89a2.4,2.4,0,0,1-.3.9c-.1.3-.1.6-.2.9a2.8,2.8,0,0,1,.1-.9,2.9,2.9,0,0,0,.2-.9Z"/><path class="s" d="M57.1,94c0-.2,0-.3.1-.4s.1.2.1.4Z"/><path class="b" d="M59.8,92.1l-.2-.2a.2.2,0,0,0-.2-.2c-.1-.2-.4-.2-.5-.4s.4.2.6.3l.2.2c.1,0,.2.1.2.3Z"/><polygon class="b" points="55.4 92.5 55.8 91.1 55.6 92.6 55.4 92.5"/><path class="t" d="M57,94.7h-.7c-.1.1-.2.1-.2,0h0c0-.1-.1-.1-.1-.2a.4.4,0,0,1,.1-.3h.7l.3.2a.4.4,0,0,1,.1.3h-.1c.1.1,0,.1,0,.1H57Zm0,0h.1a.1.1,0,0,1,.1-.1h-.1c0-.2-.2-.3-.4-.3h-.5a.3.3,0,0,0,0,.4H57Z"/><path class="p" d="M56.9,94.3l-.3.2h.3Z"/><path class="t" d="M57.7,94.7c-.1-.1-.2-.1-.1-.3s.1-.1.2-.2h.4c.1,0,.1.2.1.3s-.2-.2-.4-.2h-.2C57.6,94.5,57.7,94.6,57.7,94.7Z"/><path class="p" d="M58.1,94.4c0,.2-.3.2-.4.1S57.9,94.4,58.1,94.4Z"/><path class="t" d="M58.6,94.5l.4-.2h0c0-.1-.1-.2-.1-.1h-.2v.2h0Zm0,0h-.1c-.1-.1-.1-.3.1-.3a.1.1,0,0,1,.1-.1h.2c.2.1.2.2.2.3h-.5Z"/><path class="p" d="M58.6,94.3h.3C58.9,94.4,58.7,94.5,58.6,94.3Z"/><path class="t" d="M59.5,94.1h-.2c-.1,0-.1,0-.1.1h-.1V94h.4c.1.1.1.2,0,.2Z"/><path class="p" d="M59.2,94.1h.2c.1.1,0,.1-.1.2Z"/><path class="b" d="M55.6,94.2a1.1,1.1,0,0,1,.3-.8,1.9,1.9,0,0,0-.1.8Z"/><path class="p" d="M57,94H56a.5.5,0,0,1,.5-.3Z"/><path class="b" d="M58,93.9v-.3l.2.2Z"/><path class="b" d="M58.9,93.8h-.2a.1.1,0,0,1,.1-.1h.1Z"/><path class="p" d="M58.1,94.1h-.7l.3-.3Z"/><path class="t" d="M59.5,94.1h.1s-.1.1-.1,0h-.3c0-.1.1-.1.2-.2h.1Z"/><path class="t" d="M59.6,93.7H60v.2h-.4v-.2Z"/><path class="p" d="M59.9,93.7h-.2c0-.1,0-.1.1-.1Z"/><path class="t" d="M59.6,93.7a.1.1,0,0,1,.1-.1h.1a.1.1,0,0,1,.1.1h-.3Z"/><path class="b" d="M59.9,93.4c.1-.1,0-.2,0-.3s.2.1.2.3Z"/><path class="b" d="M58.9,94.1l.2-.2v.2Z"/><path class="p" d="M58.4,94.2a.3.3,0,0,1,.5-.2Z"/><path class="p" d="M59.5,93.8h-.4A.2.2,0,0,1,59.5,93.8Z"/><path class="t" d="M56.9,93.3a1.1,1.1,0,0,1-.3-.7v-.8h0a2.4,2.4,0,0,0,.2.8,1.5,1.5,0,0,1,.1.7Z"/><path class="t" d="M58.7,93.3l-.4-.6a1.4,1.4,0,0,1-.2-.6h0l.4.5a1.4,1.4,0,0,1,.2.6Z"/><path class="t" d="M57.9,93.2l-.2-.3c0-.1-.1-.2-.1-.3l-.2-.6h0l.4.6c.1.1.1.4.1.6Z"/><path class="t" d="M58.9,92.1l.3.5a.7.7,0,0,1,.2.6h0l-.3-.5c-.1-.2-.1-.4-.2-.5Z"/><path class="t" d="M55.8,87.3a3.7,3.7,0,0,1,.1,1.1,2.3,2.3,0,0,1-.3,1.1h0a4.3,4.3,0,0,0,.1-.5V87.3Z"/><path class="t" d="M58.3,94.6h-.6a.2.2,0,0,1,.2-.2Z"/><path class="p" d="M59.9,93.6c-.1.1-.1.1-.3,0h.3Z"/></svg>