<svg xmlns="http://www.w3.org/2000/svg" viewBox="0 0 100 100"><defs><style>.a{fill:#010101;}.b,.f{fill:none;stroke:#010101;stroke-miterlimit:10;stroke-width:0.5px;}.b{stroke-linecap:round;}.c{fill:#020202;}.d{fill:#bdbec0;}.e{fill:#bebec0;}</style></defs><path class="a" d="M38.2,39.1a32.9,32.9,0,0,0-7.7-.2l-3.7.7-1.8.6-.9.4-.4.2s-.2.1-.2,0h-.4a11.4,11.4,0,0,0-3.7.3,6.6,6.6,0,0,0-3.1,2.1,12.3,12.3,0,0,0-2.7,7h-.1a.2.2,0,0,1-.2-.2A13.5,13.5,0,0,1,16,42.9a8.1,8.1,0,0,1,3.3-2.1,9.7,9.7,0,0,1,3.8-.4h.4c.1,0-.1.1,0,0l.4-.2.9-.4,1.9-.6a23.2,23.2,0,0,1,3.8-.7,28.3,28.3,0,0,1,7.7.1c.2,0,.3.1.3.2s-.2.3-.3.3Z"/><path class="b" d="M23.4,40.6l2.2.5"/><path class="b" d="M78.2,40.4H76.5a10.3,10.3,0,0,0-2,.2"/><path class="b" d="M53.7,65.5s7.4,1.8,18.7-3.5a22.7,22.7,0,0,0,4.8-3.1"/><path class="b" d="M22.6,58.9A10.9,10.9,0,0,0,27.4,62s15.8,6.1,19.8,3.4"/><path class="c" d="M13.8,49.3a14.2,14.2,0,0,0-3.3,3.6,8.1,8.1,0,0,0-1,2.1c-.3.8-.4,1.5-.7,2.4A5.2,5.2,0,0,1,9,54.9a12.2,12.2,0,0,1,1-2.4l1.6-2,1.9-1.6a.2.2,0,0,1,.3.1.2.2,0,0,1,0,.3Z"/><path class="a" d="M63.3,38.6a38.7,38.7,0,0,1,7.6-.1,25,25,0,0,1,3.8.6l1.8.4.9.3.5.2.4.2a10.6,10.6,0,0,1,6.6,3.4,7.5,7.5,0,0,1,1.6,3.5,16.4,16.4,0,0,1-.2,3.8h-.2c-.1-.1-.1-.1-.1-.2a9.3,9.3,0,0,0,.2-3.7,6.7,6.7,0,0,0-1.5-3.3,9.3,9.3,0,0,0-3-2.2,13.6,13.6,0,0,0-3.6-1l-.4-.3h-.4l-.9-.3-1.8-.4a25.2,25.2,0,0,0-3.7-.5,31.4,31.4,0,0,0-7.5.1h0a.3.3,0,0,1-.3-.3l.2-.2Z"/><path class="c" d="M16.9,62.7a11.8,11.8,0,0,0,3.3-1.2,10,10,0,0,0,2.9-2c.1-.1.3,0,.4.1a.2.2,0,0,1,0,.3h0a10.1,10.1,0,0,1-3.2,1.8A13.3,13.3,0,0,1,16.9,62.7Z"/><path class="c" d="M86.6,48.9a9.8,9.8,0,0,1,1.7,1.8,9.5,9.5,0,0,1,1.5,2,21.4,21.4,0,0,1,1,2.2,6.9,6.9,0,0,1,.4,2.5,21.8,21.8,0,0,1-.9-2.3A10.6,10.6,0,0,0,89.2,53a17.6,17.6,0,0,0-2.9-3.7h0c-.1-.1-.2-.2-.1-.4S86.5,48.8,86.6,48.9Z"/><path class="c" d="M81.9,62.4l-2.9-1-1.4-.7a3.8,3.8,0,0,1-1.3-.9.3.3,0,0,1,0-.4c.2-.1.3-.1.4,0h0l1.1.9a5.7,5.7,0,0,0,1.3.8Z"/><path class="d" d="M29.9,43.3h0A12.2,12.2,0,0,0,35.5,45c.4.1,0-.6,0-.6-2,.4-3.9-.6-5.7-1.2h.1"/><path class="d" d="M70.6,43.3h0A12.2,12.2,0,0,1,65.1,45v-.6c2,.4,3.9-.6,5.7-1.2h-.1c-.1.1-.1,0,0,0"/><path class="b" d="M19.1,55s6,4.4,11.6-.6"/><path class="b" d="M81.7,55s-6,4.4-11.6-.6"/><path class="e" d="M48.8,63.1a4.9,4.9,0,0,1,1.1,3.5l-1.1-3.5"/><path class="e" d="M42.8,59.9c2.5,1.1,4.6,2.9,7.3,3.1-2.8.3-5.1-1.6-7.3-3.1"/><path class="f" d="M60,57.3c2.8-4.4,4.2-12.9,3.1-17.9s-4.3-10.8-11-11.2-9.9,2.3-12.4,7.2-2.6,13.5-1.6,17.1A15.3,15.3,0,0,0,41,57.7"/><path class="d" d="M58,59.9c-2.2,1.5-4.5,3.5-7.3,3.2,2.8-.2,4.9-2.1,7.3-3.2"/><path class="f" d="M52.5,65.6c.3-1,1.3-2.2,1.3-1.1s-1.3,2.4-1.9,3.2-1.5,1.1-2.5.1a7.4,7.4,0,0,1-1.8-2.1c-.7-1.3.1-1.7,1.2-.2"/><path class="d" d="M52.6,63.1c-.4,1.2-.8,2.4-1.1,3.6a4.7,4.7,0,0,1,1.1-3.6"/><path class="a" d="M56.3,62.6a35.8,35.8,0,0,0-2.6,2.9,7.3,7.3,0,0,1,2.6-2.9"/><path class="f" d="M44.1,62.4c1.2.5,2.7,2.4,3.5,3.3"/><path class="d" d="M37.1,42.4a1.6,1.6,0,0,1-.2,2c.1-.7.1-1.2.2-2"/><path class="d" d="M63.9,42.6a12.3,12.3,0,0,0,.2,2,1.5,1.5,0,0,1-.2-2"/><path class="f" d="M63.5,43.2c.3-.6,1.9-2.2,1.9-.6s-1,4.3-1.1,5.3-1.4,1.5-1.4.8"/><path class="f" d="M37.6,43.2c-3.1-4.5-1.6,4-1.3,4.7s1.1,1.8,1.2,1.1"/><path class="f" d="M61.4,54.5s-.1,2.8-1.2,4.2-2.9,3.8-5.1,4.4-3,0-4.9,0-3.5.3-5.2-.3a9.6,9.6,0,0,1-4-3.4,46.8,46.8,0,0,1-2.4-5.6"/></svg>