<svg xmlns="http://www.w3.org/2000/svg" viewBox="0 0 100 100"><defs><style>.a{fill:#bebdbf;}.b{fill:#010101;}.c{fill:#202020;}.d{fill:#c6c5c6;}</style></defs><path class="a" d="M44.9,48.3s1.1-.6,1.3-1.3,1.4-3.4,2.7-3,.8,1.3,1.4,1.2a1.3,1.3,0,0,0,1-.8,1.1,1.1,0,0,1,1.8.1c.5.7,1.4,3.4,2.7,3.8a6,6,0,0,0-2.3.7s-1.7.6-2.5.1a1.4,1.4,0,0,0-1.4,0,6.5,6.5,0,0,1-3.6-.5S45.1,48.2,44.9,48.3Z"/><path class="b" d="M53.2,87c-5.2-.1-11.1.5-15.7-2.2-12.2-6.4-9.5-25-6.8-35.6a62.4,62.4,0,0,0-.4-8.6c-.8-4.3-2.6-18.7,5.7-25.1,4.3-3.4,9.2-5.8,14.6-5v0c5.1-.8,10,1.9,14,5,8.3,6.4,6.5,20.8,5.7,25.1a62.4,62.4,0,0,0-.4,8.6C74,64.2,74.9,87.1,53.2,87Zm-2.8-.6c23.8,1.9,23.4-20.7,19-37.1a67.6,67.6,0,0,1,.4-8.8c.8-4.2,2.5-18.4-5.5-24.6-4-3.1-8.7-5.7-13.7-4.9-5.3-.8-10.1,1.5-14.3,4.9-8,6.2-6.3,20.4-5.5,24.6a67.6,67.6,0,0,1,.4,8.8C26.8,65.8,26.5,88.4,50.4,86.4Z"/><path class="b" d="M51.5,82.5H49.1c-8.7-.5-14-5.5-15.4-13.8a28.4,28.4,0,0,1-.3-6.8c.3-4.2-.1-11.5-.1-11.6-1.3-13.8.4-20.5.5-20.5C38.4,13.6,45.6,14.6,49,14.9l5.1-.2c.9,0,8.7.1,12.7,15.1.1,0,1.8,6.7.5,20.5,0,.1-.4,7.4-.1,11.6a28.4,28.4,0,0,1-.3,6.8C65.5,77,60.2,82.1,51.5,82.5ZM46.3,15c-1.4,0-8.5.7-12.3,14.8,0,.1-1.7,6.7-.4,20.5,0,.1.4,7.4.1,11.6a28.4,28.4,0,0,0,.3,6.8c1.4,8.1,6.6,13.1,15.2,13.6h2.3c8.6-.5,13.7-5.5,15.1-13.6a28.4,28.4,0,0,0,.3-6.8c-.3-4.2.1-11.5.1-11.6,1.3-13.8-.4-20.4-.4-20.5C62.6,15,55,15,54.1,15A50.8,50.8,0,0,1,46.3,15Z"/><path class="c" d="M50.2,16.2v.2a1.7,1.7,0,0,1-.2.5c-1,1.6-3.1,2.4-4.9,3.1h0C39.9,22.5,37,28.7,35,33.9a7.5,7.5,0,0,0-.4,1.6c-.1.5-.1,1-.2,1.6a2,2,0,0,0,.1.7c0,3.1,2.2,5.7,2.3,8.8s-1.2,4.2-1.5,6.3h0a29.4,29.4,0,0,0,3.5,17.7,11.8,11.8,0,0,0,10,7.4h1.1c.1.1,0,.2.1.2a4.9,4.9,0,0,1-.3,2.1,3,3,0,0,0,.3-2.1h0v-.2H48.8A11.5,11.5,0,0,1,39,70.6,29.1,29.1,0,0,1,35.5,53c.4-2.2,1.3-4.2,1.6-6.4s-2.3-5.7-2.4-8.8v-.7c0-.6.1-1.1.1-1.6s.3-1,.4-1.5c2-5.2,4.9-11.3,10-13.9h0c1.7-.7,3.9-1.5,4.9-3.1a1.8,1.8,0,0,0,.1-.6Z"/><path class="c" d="M49.3,25.7a2.5,2.5,0,0,0-1.9-.7l-1.4.4c-3.7,2.3-5.2,7.1-5.6,11.3a2.9,2.9,0,0,1-5.2,1.6c1.5,2.4,5,1.2,5.4-1.6a18,18,0,0,1,2.9-8.5c1-1.4,2.2-2.8,3.9-3A2.5,2.5,0,0,1,49.3,25.7Z"/><path class="c" d="M51.1,25.7a2.2,2.2,0,0,1,1.8-.5c1.7.2,3,1.6,3.9,3s2.6,5.6,3,8.5,3.9,4,5.4,1.6A2.9,2.9,0,0,1,60,36.7c-.4-4.2-2-9-5.7-11.3L52.9,25A2.1,2.1,0,0,0,51.1,25.7Z"/><path class="b" d="M48.6,73.1c-5.6,0-8.1-11.8-8.7-15.1h0c-.6-1.8-1.9-3.5-1.5-5.4s0-1.6.5-1.8a2.1,2.1,0,0,1,1.9,1.3,10.3,10.3,0,0,1,.1,1.9,18.7,18.7,0,0,0,.5,5.2c.5,2.1,1.1,5.1,1.9,6.4s2.9,3.6,3.8,3.6a2.3,2.3,0,0,1,2.1.8,4.2,4.2,0,0,1,.4,2.7C49.4,73.1,49.2,73,48.6,73.1ZM40.1,58c.7,3.3,2.8,15.4,9.1,14.8.5-.5.2-2.1-.2-2.7s-.9-.8-1.9-.8-2.9-1.9-4-3.6a25.3,25.3,0,0,1-1.8-6.5,15.7,15.7,0,0,1-.6-5.2,9.2,9.2,0,0,0-.1-1.8c-.3-.7-1-1.3-1.6-1.2s-.4.9-.4,1.3-.1.8-.1,1.2,1.2,3,1.6,4.5Z"/><path class="b" d="M48.5,72.4a.4.4,0,0,1,0-.8A.4.4,0,0,1,48.5,72.4Zm0-.7c-.4,0-.4.7,0,.6S48.9,71.7,48.5,71.7Z"/><path class="b" d="M61.1,46.7a13.7,13.7,0,0,0-3.9-7.5l-.5-.4h-.1a3.2,3.2,0,0,0-3.1-.4c-.1,0-.2,0-.2.1s-1.1,1.9-1.6,2.8-1.7.6-2.4.3-.7-1.5-1.1-2.2-2.9-1.5-4.2-.6a5.2,5.2,0,0,0-1.1,1,14.5,14.5,0,0,0-3.5,7.4c.8-2.9,2.1-6.1,4.6-8.1s3.8-.9,4.2,1.2a2.5,2.5,0,0,0,1,1.6,3.1,3.1,0,0,0,1.9.1c1.6-.4,1-2.8,2.5-3.4a3.3,3.3,0,0,1,2.9.4h.1l.5.4A15.6,15.6,0,0,1,61.1,46.7Z"/><path class="b" d="M37.4,37.3c-.4,0-.6-.4-1.2-.5s-.7-.2-.7-.6-.1-.3.2-.6-.1-1.1.6-1.8.5-.9.6-1.5.1-1.3.8-1.4.4-2.6.8-2.7l.7-.2c-.8-.8.5-2.5,1.2-2.8s.5-1.5,1.2-1.9.3-.3,1-.3.4-1.2.9-1.3h1.2c-.3-1.1,1.8-1.7,2.4-1.6s.2-.4,1-.6a2.6,2.6,0,0,1,2.3.2,14.7,14.7,0,0,1-.4,2.7c0,.2.1.5-.2.7a1.6,1.6,0,0,1-1.5,0l-.5-.8a1.8,1.8,0,0,1,.1.6c-.1.1-.2.5-.6.5s-.8.3-1.1,0l-.6-.5c.1.4.3,1.7,0,1.8s-.7,0-.9-.1H44c.5,1.3,0,1.4-1.1,1.7a2.1,2.1,0,0,1-.4,1.6l-1,1c.3.4.2.8-.2,1.3A2.7,2.7,0,0,1,40,31.7h.1c0,.1.4,2.2-1,3.1.4.9.2,2-.8,2.2A1.2,1.2,0,0,1,37.4,37.3Zm5-14.1c-.6,0-.6.2-.6.2h-.1a3.5,3.5,0,0,0-1.1,1.9c-.8.2-2,2-1.2,2.6l.2.2a1.4,1.4,0,0,0-1,.2c-.4.1-1.4,2.1-.6,2.5h.2a2,2,0,0,0-.8.3c-.3.2-.3.7-.3,1s-.4.6-.7.9.1.5.2.6a2.2,2.2,0,0,0-.8,1.8c-.3.4-.2.5-.1.8s1,.2,1.3.5.2.3.7.2.4-.2.4-.3h.1c1.1-.1,1.1-1.3.7-2.1s1.2-2.2,1-2.9,0-.3.3-.4.9-1.3,1.2-1.8-.1-.8-.1-.9l1.1-1.1a1.9,1.9,0,0,0,.3-1.5c.3-.1,1-.2,1.2-.5s0-1-.2-1.3h.8c.3,0,.6.3,1,.2s-.1-2-.1-2.2l1,.9c.1.2.6,0,.9-.1a.4.4,0,0,0,.4-.4c0-.2-.3-.9-.1-.9s.3.4.7.8.1.4.7.4.9-.1.8-.8a11.7,11.7,0,0,0,.4-2.6h0a3.8,3.8,0,0,0-2-.1c-.9.2-.7.7-1.2.7s-2.6.5-2.1,1.6h-.5a.9.9,0,0,0-.8,0h-.1c-.4.1-.7,1-.8,1.3Zm7.8-3.5Z"/><path class="b" d="M39.3,34.7a4.7,4.7,0,0,1-1.6-.2,2.4,2.4,0,0,1-1.3-.8C36.8,34.6,38.5,34.9,39.3,34.7Z"/><path class="b" d="M40.1,31.7l-2.2-.9A6.8,6.8,0,0,0,40.1,31.7Z"/><path class="b" d="M41.5,28.9,40,28.2h-.6c.1.2.4.1.6.2Z"/><path class="b" d="M41.4,29.4h-.1c-.1-.2-.4-.2-.6-.4l-.2-.2c-.2-.3-.6-.2-1-.2h-.3a.9.9,0,0,0-1,.2.9.9,0,0,1,1-.1c.5.4.8-.2,1.3.3a.2.2,0,0,0,.2.2l.6.3Z"/><path class="b" d="M40.8,29.2a4.4,4.4,0,0,1-.7,2.1,3.7,3.7,0,0,0,.8-1.8A.4.4,0,0,0,40.8,29.2Z"/><path class="b" d="M42.9,26.3c-.4-.6-1.9-.7-2.5-1S42.4,25.8,42.9,26.3Z"/><path class="b" d="M40.6,25.3c.5.4,2.2,1.5,1.8,2.3s.1-.6-.1-.9A5.5,5.5,0,0,0,40.6,25.3Z"/><path class="b" d="M43.5,24.4v.3a13.7,13.7,0,0,1-.8,1.4C42.8,26.1,43.7,24.8,43.5,24.4Z"/><path class="b" d="M43.7,24.7a1,1,0,0,0-.6-.5h-.2a2,2,0,0,0-.8-.8h0c.4.1.5.7,1,.8Z"/><path class="b" d="M43.9,24.4a4,4,0,0,1-1.3-1.3C42.6,23.5,43.5,24.3,43.9,24.4Z"/><path class="b" d="M45.5,24.7c-.1-.5,0-1.8-.6-2.2s-.5-.1-.7-.3-.5-.5-.7-.4l.5.2c.1.3.5.4.8.5S45.3,24.3,45.5,24.7Z"/><path class="b" d="M45.6,22.8a4.4,4.4,0,0,0-.8-1.1A4.4,4.4,0,0,0,45.6,22.8Z"/><path class="b" d="M44.7,22.7a1.7,1.7,0,0,1-.2.7c-.2.3-.5.5-.5.6A1.5,1.5,0,0,0,44.7,22.7Z"/><path class="b" d="M42.2,24.1c-.1,0-.1.4-.2.5l-.5.6c0,.1.5-.3.6-.6S42.2,24.2,42.2,24.1Z"/><path class="b" d="M42.7,24.7h-.4C42.3,24.8,42.7,24.7,42.7,24.7Z"/><path class="b" d="M40.7,26.8c-.1,0-.7.9-.6.9Z"/><path class="b" d="M40.7,26.3c-.1,0-.1.5,0,.5Z"/><path class="b" d="M39.5,30.3c-.1-.1-.8-.6-1-.5S39.4,30.3,39.5,30.3Z"/><path class="b" d="M39.2,29.3c-.1,0-.1.5-.1.5S39.2,29.3,39.2,29.3Z"/><path class="b" d="M39.8,29.4c0-.1-.7.4-.6.5Z"/><path class="b" d="M38,32.2l.3.8C38.4,33,38.1,32.2,38,32.2Z"/><path class="b" d="M37.7,33.6l.5-.5C38.1,33,37.6,33.5,37.7,33.6Z"/><path class="b" d="M39,32.9c0-.1-.5.1-.5.1S39.1,33,39,32.9Z"/><path class="b" d="M36.7,35.9l.4-.3h0c.1,0,.1,0,0-.1h0l-.4-.3h0s-.1,0,0,.1h0c0,.1.3.2.4.4S36.7,35.8,36.7,35.9Z"/><path class="b" d="M37.9,36l-.6-.4C37.2,35.7,37.8,36.1,37.9,36Z"/><path class="b" d="M38.5,35a5.3,5.3,0,0,1-.2,1.6c-.1.1-.2.2-.1.2s.1,0,.1-.2S38.6,35,38.5,35Z"/><path class="b" d="M47.5,22.2a1,1,0,0,1-1.7.5h0C46.4,23.3,47.5,23.1,47.5,22.2Z"/><path class="b" d="M47.7,22.1c.1,0,0-.1-.1-.2s-.3-1.6-.5-1.7.1.4.2,1a.6.6,0,0,0,.1.4l.2.3Z"/><path class="b" d="M50.1,21.5a4.2,4.2,0,0,1-.8,1.2c-.9.3-1.2-.7-1.6-1.1s.5,1,.9,1.1H49a.4.4,0,0,0,.5-.2A1.7,1.7,0,0,0,50.1,21.5Z"/><path class="b" d="M49.2,77.1c-.3,0-.5-.4-.6-.8s-.9,1-1.3.5-.3-.6-.4-1-.3,1-1.5.6a.7.7,0,0,1-.4-.6c-.1-.4-.3-.7-.4-1.1a1.1,1.1,0,0,1-1.3.6c-.9-.2-.9-2.2-.9-2.7a3.3,3.3,0,0,1-1.4,0c-.4-.2-.4-1.5-.4-1.9s-.8-.1-1.4-1a3.7,3.7,0,0,1-.2-2c-.1,0-.4-.2-.9-.8s-.6-2.2-.5-2.6a1.7,1.7,0,0,1-.8-1.5,6.8,6.8,0,0,1-.2-1.5c-.2,0-.3-.3-.4-.5a7.8,7.8,0,0,1-.5-1.4,2.5,2.5,0,0,1,1.9-2.5c.7-.2,1.3-.3,1.6.5s.5.9.3,1.1a5.9,5.9,0,0,0-.2,1.4c.7.5.5,1.1.6,1.6s.9,1.1.2,2.2.6.6,1,1.3a1.7,1.7,0,0,1,.1,1.7c.1,0,.5.6.7.9s.5.3.7.6,0,1,0,1.4.8.4,1,.7.1.9,0,1.2,1.5,1.3,1.5,2.1h.2c.9-.1,1.4-.1,1.8.9s1.2.2,1.6.3.4-.2.6-.1l.8.2c.3.2.2,1.4-.1,1.8S49.6,77.1,49.2,77.1Zm-.5-1.6c0,.4.1,1.4.5,1.5h.4c.2.1.2-.2.3-.4A2.7,2.7,0,0,0,50,75h-.8c0-.1-.3,0-.5.1s-1.2-.5-1.3-.4H47a6.8,6.8,0,0,0-.6-.9H44.9a2.2,2.2,0,0,0-.3-1.1,6.8,6.8,0,0,0-1.2-1.2,2.2,2.2,0,0,0,.1-1.1c-.2-.3-1.1-.6-1.1-.8s.3-1,0-1.3-.4-.3-.6-.6l-.7-.9H41a1.7,1.7,0,0,0,0-1.6c-.5-.7-.3-1-1.1-1.4a4.2,4.2,0,0,0,.4-1c-.1-.4-.5-.7-.6-1.1s.2-1.1-.6-1.6h0a5.3,5.3,0,0,1,.2-1.6c.2-.2,0-.6-.2-.9s-1.1-.4-1.8-.3a2.5,2.5,0,0,0-1.5,2.1l.4,1c.2.4.2.8.6.9s0,1,.1,1.3.1,1.4.9,1.7h0s-.3,1.8.4,2.5l1,.8h0s-.2,1.3.2,1.8.7,1,1.3,1h.1c0,.6.1,1.7.3,1.8a3.6,3.6,0,0,0,1.5,0c-.1.7,0,2.5.7,2.7s1.2-.7,1.4-.9a2.8,2.8,0,0,0,.4,1.2c.1.3,0,.7.4.8a1.4,1.4,0,0,0,1,.2c.1-.2.4-1.1.6-1.5s-.1,1.4.3,1.8h0C48.3,77.5,48.5,76.2,48.7,75.5Zm-6.1-5.9Zm-3.3-9.7Z"/><path class="b" d="M37.1,60.5a4.4,4.4,0,0,1-.5-2.8A3.1,3.1,0,0,0,37.1,60.5Z"/><path class="b" d="M37.5,60.6a1.6,1.6,0,0,0,1.3-.3c.1-.1.2-.2.2-.3s.2-.1.2-.2-.1.1-.2.2A1.8,1.8,0,0,1,37.5,60.6Z"/><path class="b" d="M37.3,60.8l-.7.5C36.8,61.4,37.3,61,37.3,60.8Z"/><path class="b" d="M38.2,64.2h-.8C37.4,64.3,38.1,64.4,38.2,64.2Z"/><path class="b" d="M37.4,61.2c0,.6-.2,1.5.1,2s.3.7.7.9,1.6.1,1.8-.5a1.7,1.7,0,0,1-1.8.4c-.3-.2-.4-.6-.6-.8S37.5,61.7,37.4,61.2Z"/><path class="b" d="M39.4,67.3a1.3,1.3,0,0,1-.7-.6,5.1,5.1,0,0,1-.3-1.7c0-.1-.1-.1-.1-.2h-.1a.6.6,0,0,1,.1.4C38.4,65.8,38.3,67.2,39.4,67.3Z"/><path class="b" d="M39.4,67.3a2.8,2.8,0,0,0,1.7-.7Z"/><path class="b" d="M41.4,70.2a3.5,3.5,0,0,1-1.2-1,2.7,2.7,0,0,1-.4-1.4A2.2,2.2,0,0,0,41.4,70.2Z"/><path class="b" d="M42.5,69.4c-.2.8-1.7.5-1.8,1.3C41,69.9,42.4,70.3,42.5,69.4Z"/><path class="b" d="M42.5,70.9c.1-.1-.9-.3-.9-.3S42.5,71,42.5,70.9Z"/><path class="b" d="M42.5,70.4c-.1,0,.2.6.2.5S42.6,70.3,42.5,70.4Z"/><path class="b" d="M43.5,71.2c.1.1,0,.1-.1.2l-1,1.1,1.1-1C43.6,71.4,43.6,71.2,43.5,71.2Z"/><path class="b" d="M44.4,73.1c-.1-.5-1-.8-1.4-.6A1.6,1.6,0,0,1,44.4,73.1Z"/><path class="b" d="M45,73.5c-.1.2-.5.7-.4,1A3,3,0,0,0,45,73.5Z"/><path class="b" d="M46.6,74.8h-.2a2.7,2.7,0,0,1-1.2-.5c.1.3.9.5,1.2.5Z"/><path class="b" d="M48.4,75.3a.9.9,0,0,1-.6,0l-.5-.2C47.4,75.4,48.2,75.5,48.4,75.3Z"/><path class="b" d="M50,75.1h-.2c-.1.2-1,.2-1,.2S50,75.5,50,75.1Z"/><path class="b" d="M48.7,75.7c.1,0,.1-.7,0-.7S48.6,75.7,48.7,75.7Z"/><path class="b" d="M47.1,74.6c-.1,0-.1.7-.1.7S47.2,74.6,47.1,74.6Z"/><path class="b" d="M40.7,67.6h0a.8.8,0,0,0,.4.8H41a1.9,1.9,0,0,1-.2-.7A.1.1,0,0,0,40.7,67.6Z"/><path class="b" d="M41.6,69.1c.1-.1-.4-.5-.4-.5S41.6,69.1,41.6,69.1Z"/><path class="b" d="M41.5,67.9c-.1,0-.3.5-.3.5S41.5,67.9,41.5,67.9Z"/><path class="b" d="M39.2,64.9c-.1.1.4.6.5.5Z"/><path class="b" d="M40,64.8c0-.1-.3.5-.2.5S40.1,64.8,40,64.8Z"/><path class="b" d="M40,66.2c.1,0-.2-.6-.2-.6S40,66.3,40,66.2Z"/><path class="b" d="M38.5,62.9c0,.1.3-.5.2-.5S38.4,62.9,38.5,62.9Z"/><path class="b" d="M38.7,61.4c-.1,0,0,.8,0,.8S38.7,61.4,38.7,61.4Z"/><path class="b" d="M39.5,63c.1,0,0,0-.1-.1s-.3-.5-.5-.5S39.3,63,39.5,63Z"/><path class="b" d="M37.9,59.8c.1-.2,0-.7.1-.9S37.9,59.6,37.9,59.8Z"/><path class="b" d="M37.9,58.9c.1-.2-.3-.4-.4-.6h-.1c-.1.2.3.5.4.6Z"/><path class="b" d="M38.3,58.1c0-.1-.4.4-.3.5S38.4,58.1,38.3,58.1Z"/><path class="b" d="M60.1,48h0c-.9,1.5-2.8.5-4.2.3s-3.3,1.5-5,.6a1.9,1.9,0,0,0-1.3.1h-.1c-1.6.7-3.2-1-4.8-.7s-3.3,1.2-4.2-.3h0c.8,1.6,2.8.7,4.2.4s3.3,1.6,5,.7a2.3,2.3,0,0,1,1.6.2c1.3.3,2.6-.5,3.8-.8s4,1.5,5-.5Z"/><path class="b" d="M56.9,48.6a3.1,3.1,0,0,1-3-2.3c-.4-.8-.8-2.4-2-2.2s-.4.3-.6.6a1.2,1.2,0,0,1-2.2-.4c-1.3-.9-2.1,1.1-2.4,2.1a3.2,3.2,0,0,1-3.8,2.1c-2.1-.6-2.1-3.5-.9-5.5s5.8-3.8,5.9-3.9v.2s-4.2,1.1-5.8,3.8-1.1,4.6.9,5.3a3,3,0,0,0,3.5-2.1c.4-.9.8-2.2,1.9-2.4a.6.6,0,0,1,.8.3c.2.2.2.4.4.6a1,1,0,0,0,1.5-.2c.2-.3.4-.7.8-.7s1.8,1.4,2.2,2.4a3,3,0,0,0,3.5,2.1c2.1-.7,2-3.4.9-5.3s-5.8-3.8-5.8-3.8v-.2c.1.1,4.3,1.1,5.9,3.9S59.7,48.7,56.9,48.6Z"/><path class="b" d="M43.3,54.8a.4.4,0,0,1,0-.8A.4.4,0,1,1,43.3,54.8Zm0-.7a.3.3,0,0,0,0,.6C43.8,54.7,43.8,54.1,43.3,54.1Z"/><path class="b" d="M44.8,53.8c-.6,0-.6-.9,0-.8S45.3,53.8,44.8,53.8Zm0-.8a.4.4,0,1,0,0,.7C45.2,53.7,45.2,53,44.8,53Z"/><path class="b" d="M46.2,52.9c-.6.1-.6-.9,0-.9S46.9,53,46.2,52.9Zm0-.8c-.5-.1-.5.8,0,.7S46.7,52,46.2,52.1Z"/><path class="b" d="M47.7,52a.5.5,0,1,1,0-1A.5.5,0,0,1,47.7,52Zm0-.9a.4.4,0,0,0,0,.8A.4.4,0,0,0,47.7,51.1Z"/><path class="b" d="M49.2,51a.5.5,0,0,1,0-1A.5.5,0,1,1,49.2,51Zm0-.9a.4.4,0,0,0,0,.8A.4.4,0,1,0,49.2,50.1Z"/><path class="c" d="M50.4,16.2v.2a1.8,1.8,0,0,0,.1.6c1,1.6,3.2,2.4,5,3.1,5.3,2.7,8.7,9.8,10.3,15.5a1.7,1.7,0,0,0,.1.7v1.1a11.5,11.5,0,0,1-.7,3.6c-.9,2.5-2.4,5.1-1.2,7.7s.7,2.9,1.1,4.3a30.1,30.1,0,0,1-3.5,17.7c-1.5,3.6-4.7,6.7-8.6,7.1l-2.4.3v.2h0a3,3,0,0,0,.3,2.1,3.7,3.7,0,0,1-.2-2.1v-.2l2.4-.3c4-.3,7.3-3.4,8.8-7.1A29.7,29.7,0,0,0,65.3,53h0c-.3-2.1-1.2-4.1-1.5-6.2s1.5-4.6,2-7l.2-.5a11,11,0,0,0,.2-1.8c0-.4-.1-.7-.1-1.1a2.5,2.5,0,0,0-.1-.8C64.5,29.8,60.9,22.7,55.5,20c-1.8-.7-3.9-1.4-4.9-3.1a1.7,1.7,0,0,1-.2-.5Z"/><path class="b" d="M52,73.1c-.6-.1-.8,0-1-.4a4.2,4.2,0,0,1,.4-2.7,2.3,2.3,0,0,1,2.1-.8c.9,0,2.8-1.9,3.8-3.6s1.4-4.3,1.9-6.4a15.6,15.6,0,0,0,.5-5.2,10.3,10.3,0,0,1,.1-1.9,2.1,2.1,0,0,1,1.9-1.3c.5.2.4,1.2.5,1.8s-.9,3.6-1.5,5.4h0C60.1,61.3,57.6,73.1,52,73.1ZM61.5,51c-1.5.2-1.7,1.5-1.6,3a15.7,15.7,0,0,1-.6,5.2,25.3,25.3,0,0,1-1.8,6.5c-1.1,1.7-3,3.6-4,3.6s-1.5.2-1.9.8-.7,2.2-.2,2.7c6.4.6,8.4-11.5,9.1-14.8h0c.6-1.8,1.9-3.5,1.5-5.4S62,51,61.5,51Z"/><path class="b" d="M52.1,72.4a.4.4,0,0,1,0-.8A.4.4,0,0,1,52.1,72.4Zm0-.7c-.4,0-.4.7,0,.6S52.5,71.7,52.1,71.7Z"/><path class="b" d="M63.2,37.3a1.2,1.2,0,0,1-.9-.3,1.5,1.5,0,0,1-.8-2.2c-1.4-.9-1-3-.9-3.1s-.8-.7-1.3-1.6-.5-.9-.2-1.3l-1-1a2.1,2.1,0,0,1-.4-1.6c-1.1-.3-1.6-.4-1.1-1.7s-1,.5-1.6.2-.1-1.4,0-1.8l-.6.5c-.3.3-.8,0-1.1,0s-.5-.4-.6-.5a1.8,1.8,0,0,1,.1-.6,3.5,3.5,0,0,1-.5.8,1.6,1.6,0,0,1-1.5,0c-.3-.2-.2-.5-.2-.7a14.7,14.7,0,0,1-.4-2.7,2.6,2.6,0,0,1,2.3-.2c.8.2.8.5,1,.6s2.7.5,2.4,1.6h1.2c.5.1.8,1.1.9,1.3s.9.2,1,.3,1.1,1.7,1.2,1.9,2,2.1,1.2,2.8l.7.2c.4.1,1.4,2.2.8,2.7s.8.7.8,1.4,1.1.8.6,1.5.5,1.1.6,1.8.3.4.2.6-.3.6-.7.6S63.6,37.3,63.2,37.3Zm-.7-.4c0,.1.8.4,1,.1a.1.1,0,0,0,.1-.1c.3-.3,1.1-.2,1.3-.5s.2-.4-.1-.8a2.2,2.2,0,0,0-.8-1.8c.7-.6-.4-.8-.5-1.5s0-.8-.3-1a2,2,0,0,0-.8-.3h.2c.8-.4-.2-2.4-.6-2.5a1.4,1.4,0,0,0-1-.2l.2-.2c.8-.6-.4-2.4-1.2-2.6s-.4-1.6-1.2-1.9h0c.1,0-.2-.3-.9-.2s-.4-1.2-.8-1.3H57a.9.9,0,0,0-.8,0h-.5c.5-1.1-1.6-1.7-2.1-1.6s-.3-.5-1.2-.7a3.3,3.3,0,0,0-1.9.1h-.1a11.7,11.7,0,0,0,.4,2.6c-.1.7.1.7.8.8s.5-.1.7-.4.5-.9.7-.8-.1.7-.1.9a.4.4,0,0,0,.4.4c.3.1.8.3.9.1l1.1-.9a5.3,5.3,0,0,0-.2,2.2c.4.1.7-.2,1-.2h.8c-.2.3-.4,1.1-.2,1.3s.9.4,1.3.5a1.4,1.4,0,0,0,.2,1.5l1.1,1.1c0,.1-.3.5-.1.9s.8,1.6,1.2,1.8.4.2.3.4,0,2.6,1,2.9-.3.7-.2,1.1a1,1,0,0,0,1,1ZM50.4,19.7Z"/><path class="b" d="M61.3,34.7c.8.2,2.5-.1,2.9-1a2.4,2.4,0,0,1-1.3.8A4.7,4.7,0,0,1,61.3,34.7Z"/><path class="b" d="M60.5,31.7a6.8,6.8,0,0,0,2.2-.9Z"/><path class="b" d="M59.1,28.9l1.5-.6c.2-.1.5,0,.6-.2h-.6Z"/><path class="b" d="M59.2,29.4h.1l.6-.3a.2.2,0,0,0,.2-.2c.5-.5.8.1,1.3-.3a.9.9,0,0,1,1,.1.9.9,0,0,0-1-.2h-.3c-.3,0-.8-.1-1,.2s-.1.2-.2.2-.5.2-.6.4Z"/><path class="b" d="M59.8,29.2a.4.4,0,0,0-.1.3,3.7,3.7,0,0,0,.8,1.8A4.4,4.4,0,0,1,59.8,29.2Z"/><path class="b" d="M57.7,26.3c.5-.5,2-.6,2.5-1S58.1,25.7,57.7,26.3Z"/><path class="b" d="M60,25.3a5.5,5.5,0,0,0-1.7,1.4c-.2.3-.4.7-.1.9S59.5,25.7,60,25.3Z"/><path class="b" d="M57.1,24.4c-.2.4.7,1.7.8,1.7a13.7,13.7,0,0,1-.8-1.4Z"/><path class="b" d="M56.9,24.7l.6-.5c.5-.1.6-.7,1-.8h0c-.3.1-.5.5-.8.8h-.2A1,1,0,0,0,56.9,24.7Z"/><path class="b" d="M56.7,24.4c.5-.1,1.3-.9,1.3-1.3A3.3,3.3,0,0,1,56.7,24.4Z"/><path class="b" d="M55.1,24.7c.2-.4.1-1.8.7-2.2s.7-.2.8-.5l.5-.2c-.2-.1-.5.2-.7.4s-.4.2-.6.3S55.2,24.2,55.1,24.7Z"/><path class="b" d="M55,22.8a4.4,4.4,0,0,0,.8-1.1A4.4,4.4,0,0,0,55,22.8Z"/><path class="b" d="M55.9,22.7a1.5,1.5,0,0,0,.7,1.3c0-.1-.2-.3-.4-.6A1.3,1.3,0,0,1,55.9,22.7Z"/><path class="b" d="M58.4,24.1c0,.1,0,.4.1.5s.6.7.6.6l-.5-.6C58.5,24.5,58.5,24.1,58.4,24.1Z"/><path class="b" d="M57.9,24.7s.4.1.4,0Z"/><path class="b" d="M59.9,26.8l.6.9C60.6,27.7,60,26.8,59.9,26.8Z"/><path class="b" d="M59.9,26.3v.5C60,26.8,60,26.3,59.9,26.3Z"/><path class="b" d="M61.2,30.3a3.6,3.6,0,0,1,.9-.5C61.9,29.7,61.2,30.2,61.2,30.3Z"/><path class="b" d="M61.4,29.3s0,.5.1.5S61.5,29.3,61.4,29.3Z"/><path class="b" d="M60.8,29.4l.6.5C61.5,29.8,60.8,29.3,60.8,29.4Z"/><path class="b" d="M62.6,32.2c-.1,0-.4.8-.3.8Z"/><path class="b" d="M62.9,33.6c.1-.1-.4-.6-.5-.5Z"/><path class="b" d="M61.6,32.9c0,.1.5.2.5.1S61.6,32.8,61.6,32.9Z"/><path class="b" d="M63.9,35.9c0-.1-.3-.3-.4-.4s.4-.3.4-.4h0l-.4.3h0c-.1.1-.1.1,0,.1h0Z"/><path class="b" d="M62.7,36c.1.1.7-.3.6-.4Z"/><path class="b" d="M62.1,35c-.1,0-.1,1.4.2,1.6s.1.2.2.2l-.2-.2A5.3,5.3,0,0,1,62.1,35Z"/><path class="b" d="M53.1,22.2c0,.9,1.1,1.1,1.7.5h0A1,1,0,0,1,53.1,22.2Z"/><path class="b" d="M52.9,22.1v-.2l.2-.3a.6.6,0,0,0,.1-.4l.2-1c-.2.1-.3,1.3-.5,1.7S52.8,22.1,52.9,22.1Z"/><path class="b" d="M50.5,21.5a1.7,1.7,0,0,0,.6,1.1c.1.2.4.3.5.2H52l.3-.2a3.5,3.5,0,0,0,.6-.9c-.3.4-.7,1.4-1.6,1.1A4.2,4.2,0,0,1,50.5,21.5Z"/><path class="b" d="M51.3,77.1c-.4,0-.7,0-.8-.4a2.9,2.9,0,0,1-.3-1c0-.6.1-.7.2-.8l.9-.2c.1-.1.4.1.5.1s1.2-.5,1.6-.3a3.5,3.5,0,0,1,.5-.8,1.7,1.7,0,0,1,1.2-.1h.3c0-.8.9-1.7,1.5-2.1s-.2-1,0-1.2.8-.5,1.1-.7a2.3,2.3,0,0,1-.1-1.4c.3-.3.5-.3.7-.6s.6-.9.7-.9a2.1,2.1,0,0,1,.1-1.7c.4-.7.3-.9,1-1.3s-.2-1.2.3-2.2-.2-1.1.6-1.6a3.2,3.2,0,0,0-.3-1.4c-.1-.2.1-.7.3-1.1s1-.7,1.7-.5a2.5,2.5,0,0,1,1.9,2.5,7.8,7.8,0,0,1-.5,1.4c-.1.2-.2.5-.4.5a6.8,6.8,0,0,1-.2,1.5c-.1.5-.2,1.2-.8,1.5s.2,2-.5,2.6-.8.8-.9.8a3.9,3.9,0,0,1-.3,2c-.6.9-.7.9-1.4,1s0,1.7-.4,1.9a2.8,2.8,0,0,1-1.3,0c0,.5-.1,2.5-1,2.7a1.1,1.1,0,0,1-1.3-.6c-.1.4-.3.7-.4,1.1s-.1.4-.4.6-1.3.1-1.5-.6-.2.9-.4,1a.8.8,0,0,1-1.4-.4C51.8,76.7,51.7,77.1,51.3,77.1Zm0-2.2h-.8a2.4,2.4,0,0,0-.1.7,3.2,3.2,0,0,0,.3.9c.1.4.3.3.6.4s.4-1.3.4-1.7.4,2.3,1.3,1.4h0a2.8,2.8,0,0,0,.4-1.8,11.6,11.6,0,0,0,.6,1.5,2.4,2.4,0,0,0,1-.2c.4-.1.2-.5.4-.8a5.6,5.6,0,0,0,.4-1.2c.2.2.3,1.1,1.4.9s.8-2.3.8-2.7a3.2,3.2,0,0,0,1.4,0c.3-.1.4-1.2.4-1.8s.8-.1,1.4-1.1.2-1.8.2-1.8h0a3.4,3.4,0,0,0,1-.8c.7-.7.4-2.5.4-2.5h0c.8-.3.8-1.1.9-1.7s0-1.1.1-1.3.4-.5.6-.9l.4-1a2.4,2.4,0,0,0-1.9-2.2c-.6-.2-1-.4-1.4.4s-.4.7-.3.9.4,1.6.2,1.6h0c-.7.5-.4,1-.6,1.6s-.4.7-.5,1.1.2.8.4,1-.7.7-1.1,1.4a1.5,1.5,0,0,0,0,1.6h-.1a3.1,3.1,0,0,0-.7.9c-.2.3-.5.3-.7.6s0,1,0,1.3-.9.5-1.1.8a2.2,2.2,0,0,0,.1,1.1,6.8,6.8,0,0,0-1.2,1.2,2.2,2.2,0,0,0-.3,1.1H54a4.4,4.4,0,0,0-.5.9h-.4c-.2-.1-.9.2-1.3.4ZM58,69.6Zm3.3-9.7Z"/><path class="b" d="M63.5,60.5a3.1,3.1,0,0,0,.5-2.8A4.4,4.4,0,0,1,63.5,60.5Z"/><path class="b" d="M63.1,60.6a1.8,1.8,0,0,1-1.5-.6.2.2,0,0,0-.2-.2c0,.1.1.1.2.2s.1.2.2.3A1.6,1.6,0,0,0,63.1,60.6Z"/><path class="b" d="M63.3,60.8c0,.2.5.6.7.5Z"/><path class="b" d="M62.4,64.2c.1.2.8.1.8-.1Z"/><path class="b" d="M63.2,61.2c-.1.5.2,1.4-.2,2s-.3.6-.6.8a1.7,1.7,0,0,1-1.8-.4c.2.6,1.2.7,1.8.5s.4-.6.7-.9S63.2,61.8,63.2,61.2Z"/><path class="b" d="M61.2,67.3c1.1-.1,1-1.5,1.1-2.3a.6.6,0,0,1,.1-.4h-.1c0,.1-.1.1-.1.2a5.1,5.1,0,0,1-.3,1.7A1.3,1.3,0,0,1,61.2,67.3Z"/><path class="b" d="M61.2,67.3l-1.7-.7A2.8,2.8,0,0,0,61.2,67.3Z"/><path class="b" d="M59.2,70.2a2.4,2.4,0,0,0,1.7-2.4,4.8,4.8,0,0,1-.5,1.4A3.5,3.5,0,0,1,59.2,70.2Z"/><path class="b" d="M58.1,69.4c.1.9,1.5.5,1.8,1.3C59.8,69.9,58.3,70.2,58.1,69.4Z"/><path class="b" d="M58.1,70.9c0,.1.9-.2.9-.3S58.1,70.8,58.1,70.9Z"/><path class="b" d="M58.1,70.4c0-.1-.3.5-.2.5S58.2,70.4,58.1,70.4Z"/><path class="b" d="M57.1,71.2c-.1,0-.1.2,0,.3l1.1,1-1-1.1C57.1,71.3,57,71.3,57.1,71.2Z"/><path class="b" d="M56.2,73.1a1.6,1.6,0,0,1,1.4-.6C57.2,72.3,56.3,72.6,56.2,73.1Z"/><path class="b" d="M55.6,73.5a3,3,0,0,0,.4,1C56.1,74.2,55.7,73.7,55.6,73.5Z"/><path class="b" d="M54,74.8h.2c.3,0,1.1-.2,1.2-.5a2.7,2.7,0,0,1-1.2.5Z"/><path class="b" d="M52,75.3a1.1,1.1,0,0,0,1.2-.2l-.6.2A1.1,1.1,0,0,1,52,75.3Z"/><path class="b" d="M50.6,75.1c-.1.4,1,.4,1,.3s-.8,0-.9-.2A.1.1,0,0,1,50.6,75.1Z"/><path class="b" d="M51.8,75.7V75C51.7,75,51.7,75.7,51.8,75.7Z"/><path class="b" d="M53.5,74.6c-.1,0,0,.7.1.7S53.6,74.6,53.5,74.6Z"/><path class="b" d="M59.9,67.6a.1.1,0,0,0-.1.1,1.9,1.9,0,0,1-.2.7c-.1,0-.1.1,0,.1a1,1,0,0,0,.3-.8Z"/><path class="b" d="M59,69.1s.5-.5.4-.5S58.9,69,59,69.1Z"/><path class="b" d="M59.1,67.9s.2.5.3.5S59.2,67.9,59.1,67.9Z"/><path class="b" d="M61.4,64.9l-.5.5C61,65.5,61.5,65,61.4,64.9Z"/><path class="b" d="M60.6,64.8c-.1,0,.1.5.2.5S60.7,64.7,60.6,64.8Z"/><path class="b" d="M60.6,66.2c0,.1.3-.6.2-.6S60.5,66.2,60.6,66.2Z"/><path class="b" d="M62.1,62.9c.1,0-.2-.5-.2-.5S62.1,63,62.1,62.9Z"/><path class="b" d="M61.9,61.4s-.1.8,0,.8S62,61.4,61.9,61.4Z"/><path class="b" d="M61.1,63c.2,0,.5-.5.6-.6s-.4.4-.5.5Z"/><path class="b" d="M62.7,59.8c0-.2.1-.7-.1-.9S62.6,59.6,62.7,59.8Z"/><path class="b" d="M62.7,58.9h.1c.1-.1.5-.4.4-.6h-.1C63,58.5,62.6,58.7,62.7,58.9Z"/><path class="b" d="M62.3,58.1c-.1,0,.3.5.3.5S62.3,58,62.3,58.1Z"/><path class="b" d="M57.3,54.8a.4.4,0,1,1,0-.8A.4.4,0,0,1,57.3,54.8Zm0-.7c-.5,0-.5.6,0,.6A.3.3,0,0,0,57.3,54.1Z"/><path class="b" d="M55.8,53.8c-.5,0-.5-.9,0-.8S56.4,53.8,55.8,53.8Zm0-.8c-.4,0-.4.7,0,.7A.4.4,0,1,0,55.8,53Z"/><path class="b" d="M54.4,52.9c-.7.1-.7-.9,0-.9S55,53,54.4,52.9Zm0-.8c-.5-.1-.5.8,0,.7S54.9,52,54.4,52.1Z"/><path class="b" d="M52.9,52a.5.5,0,0,1,0-1A.5.5,0,1,1,52.9,52Zm0-.9a.4.4,0,0,0,0,.8A.4.4,0,0,0,52.9,51.1Z"/><path class="b" d="M51.4,51a.5.5,0,1,1,0-1A.5.5,0,0,1,51.4,51Zm0-.9a.4.4,0,0,0,0,.8A.4.4,0,0,0,51.4,50.1Z"/><path class="c" d="M50.2,37.7c.2.3.2-13.6,0-13.4S50.1,38,50.2,37.7Z"/><path class="c" d="M50.2,66.4c.2.4.2-13.7,0-13.4S50.1,66.8,50.2,66.4Z"/><path class="c" d="M52.8,69.3a5.8,5.8,0,0,1-2.2-.2h-.9a4.2,4.2,0,0,1-1.4.2c.3.3,1.4.1,1.8,0A3.6,3.6,0,0,0,52.8,69.3Z"/><path class="b" d="M40.1,40.3c.1,1.1-.6,2.3-1,3.5a18.1,18.1,0,0,0-.6,8.3c0-2.1-.1-6,.8-8.3S40.4,41.4,40.1,40.3Z"/><path class="b" d="M60.4,40.3c-.4,1.1.4,2.4.8,3.5s.8,6.3.8,8.3a18.1,18.1,0,0,0-.6-8.3C61,42.6,60.3,41.4,60.4,40.3Z"/><path class="c" d="M44.1,32.1c1.1-1.2,2.2-3.7,3.8-4.5h0C46.2,28.2,44.9,30.7,44.1,32.1Z"/><path class="c" d="M44.1,35.6C45,34.4,47,32,48,30.9A19.5,19.5,0,0,0,44.1,35.6Z"/><path class="c" d="M56.4,32.1c-.9-1.4-2.1-3.9-3.8-4.5s-.4-.1-.1,0S55.3,30.9,56.4,32.1Z"/><path class="c" d="M56.3,35.6a17.1,17.1,0,0,0-3.8-4.7A55.8,55.8,0,0,1,56.3,35.6Z"/><path class="d" d="M48.3,11.6a9.4,9.4,0,0,0,.1,1.2,3.5,3.5,0,0,0,.4,1.2c.1,0-.1-.5-.2-1.2S48.4,11.6,48.3,11.6Z"/><path class="d" d="M47.5,11.6c-.2,0,0,2.4.2,2.3Z"/><path class="d" d="M46.2,11.8c-.2,0-.1,1.8.1,1.8Z"/><path class="d" d="M44,12c-.1,0-.1.6,0,1.2s.3,1,.4,1S44,12,44,12Z"/><path class="d" d="M42.8,12.7c-.2-.1.2,1.6.3,1.5S42.9,12.6,42.8,12.7Z"/><path class="d" d="M41.7,13.3a3.4,3.4,0,0,0,0,1.1,3.9,3.9,0,0,0,.3,1.1c.1,0-.1-.5-.1-1.1S41.8,13.3,41.7,13.3Z"/><path class="d" d="M40.8,14.2a2,2,0,0,0,.3,1.7l-.2-.8C40.9,14.6,40.9,14.2,40.8,14.2Z"/><path class="d" d="M39.1,15.2a1.7,1.7,0,0,0,.6,1.6,4.8,4.8,0,0,1-.4-.8Z"/><path class="d" d="M38.1,15.7A3.4,3.4,0,0,0,39.2,18c.1,0-.3-.5-.6-1.1A10.4,10.4,0,0,1,38.1,15.7Z"/><path class="d" d="M38.1,19.1a18.3,18.3,0,0,0-1.3-2.4A8,8,0,0,0,38.1,19.1Z"/><path class="d" d="M37.2,20.1c0-.1-.4-.6-.8-1.3a8.1,8.1,0,0,1-.6-1.3c-.1,0,.1.7.5,1.4A3.6,3.6,0,0,0,37.2,20.1Z"/><path class="d" d="M36.3,20.2a6.4,6.4,0,0,0-1-1.3C35.1,19,36.2,20.4,36.3,20.2Z"/><path class="d" d="M36.3,22.4l-1.2-1.6c-.6-.8-.8-1.7-.9-1.6A5.7,5.7,0,0,0,36.3,22.4Z"/><path class="d" d="M35,22.6c0,.1-1.1-1.9-1.1-1.8S34.8,22.7,35,22.6Z"/><path class="d" d="M35.1,24.8c.1-.1-.5-.6-1.1-1.4s-1-1.6-1-1.5.2.7.8,1.6A13,13,0,0,0,35.1,24.8Z"/><path class="d" d="M34.5,25.5c0-.1-.5-.4-1-.9l-.9-1a2.2,2.2,0,0,0,.8,1.1A2.7,2.7,0,0,0,34.5,25.5Z"/><path class="d" d="M52.5,11.6c-.1,0-.1.5-.2,1.2L52,14c.1,0,.3-.5.4-1.2A2.8,2.8,0,0,0,52.5,11.6Z"/><path class="d" d="M53.4,11.6a9,9,0,0,0-.2,2.3A5.8,5.8,0,0,0,53.4,11.6Z"/><path class="d" d="M54.7,11.8a5.6,5.6,0,0,0-.1,1.8C54.8,13.6,54.8,11.8,54.7,11.8Z"/><path class="d" d="M56.8,12a19.2,19.2,0,0,0-.3,2.2,3.9,3.9,0,0,0,.3-1C56.9,12.6,56.9,12,56.8,12Z"/><path class="d" d="M58.1,12.7a3.7,3.7,0,0,0-.4,1.5A4.2,4.2,0,0,0,58.1,12.7Z"/><path class="d" d="M59.1,13.3a7.5,7.5,0,0,1-.1,1.1l-.2,1.1c.1,0,.3-.4.4-1.1S59.2,13.3,59.1,13.3Z"/><path class="d" d="M60,14.2a5.1,5.1,0,0,1-.1.9c0,.4-.2.8-.1.8A1.7,1.7,0,0,0,60,14.2Z"/><path class="d" d="M61.8,15.2c-.1,0-.1.4-.3.8l-.4.8A2,2,0,0,0,61.8,15.2Z"/><path class="d" d="M62.8,15.7c-.1,0-.2.6-.5,1.2L61.6,18A3.5,3.5,0,0,0,62.8,15.7Z"/><path class="d" d="M62.8,19.1a11.2,11.2,0,0,0,1.3-2.4A11.2,11.2,0,0,0,62.8,19.1Z"/><path class="d" d="M63.7,20.1a6.3,6.3,0,0,0,.9-1.2c.4-.7.5-1.4.4-1.4a8.1,8.1,0,0,1-.6,1.3C64,19.5,63.6,20,63.7,20.1Z"/><path class="d" d="M64.6,20.2c.1.2,1.1-1.2,1-1.3S64.5,20.2,64.6,20.2Z"/><path class="d" d="M64.6,22.4a5.5,5.5,0,0,0,2-3.2,11.1,11.1,0,0,1-.9,1.6C65.2,21.7,64.5,22.3,64.6,22.4Z"/><path class="d" d="M65.9,22.6c.2.1,1.2-1.7,1.1-1.8A17.4,17.4,0,0,0,65.9,22.6Z"/><path class="d" d="M65.7,24.8A4.6,4.6,0,0,0,67,23.5a11.1,11.1,0,0,0,.9-1.6c-.1-.1-.5.7-1.1,1.5S65.7,24.7,65.7,24.8Z"/><path class="d" d="M66.3,25.5a2.7,2.7,0,0,0,1.2-.8c.5-.5.8-1,.7-1.1a4.4,4.4,0,0,1-.9,1C66.8,25.1,66.3,25.4,66.3,25.5Z"/><path class="d" d="M50,13.9l-.2-1a5.8,5.8,0,0,1-.1-1c-.1,0-.2.5-.1,1S49.9,14,50,13.9Z"/><path class="d" d="M50.6,13.8c.2.1.4-1.9.2-1.8A5.5,5.5,0,0,0,50.6,13.8Z"/><path class="d" d="M49.2,82.9c-.1,0-.2.6-.2,1.5a5.2,5.2,0,0,0,.2,1.5,4.3,4.3,0,0,0-.1-1.5A11.9,11.9,0,0,1,49.2,82.9Z"/><path class="d" d="M47.7,83.4c-.1,0-.2.5-.2,1.1s.3,1.2.4,1.1l-.2-1.1Z"/><path class="d" d="M46.8,83a2.5,2.5,0,0,0,0,2.5,3.5,3.5,0,0,1-.2-1.2A4.6,4.6,0,0,1,46.8,83Z"/><path class="d" d="M44.7,82.5a3.4,3.4,0,0,0-.1,2.8c.1,0-.1-.6,0-1.4S44.8,82.5,44.7,82.5Z"/><path class="d" d="M43.8,82.8c-.1,0-.2.4-.3,1s0,1,.1,1a5.8,5.8,0,0,1,.1-1A4.5,4.5,0,0,1,43.8,82.8Z"/><path class="d" d="M42.5,81.3a6.7,6.7,0,0,0-.9,2.6c0,.4,0,1,.3,1.1S42.5,81.6,42.5,81.3Z"/><path class="d" d="M40.9,82.1c-.2-.1-.6,1.9-.4,1.9Z"/><path class="d" d="M40.3,80.2a4.5,4.5,0,0,0-1,3.7,7.4,7.4,0,0,1,.3-1.9A8.4,8.4,0,0,1,40.3,80.2Z"/><path class="d" d="M39.1,80.4a3,3,0,0,0-.8,2.4c.1,0,.1-.6.3-1.3S39.2,80.4,39.1,80.4Z"/><path class="d" d="M37.9,79.7a4.1,4.1,0,0,0-.6,1.1c-.3.7-.4,1.3-.3,1.3l.4-1.2C37.7,80.3,38,79.8,37.9,79.7Z"/><path class="d" d="M36.8,78.5a4.9,4.9,0,0,0-1.2,3.7c.1,0,.1-.9.4-1.9A12.3,12.3,0,0,1,36.8,78.5Z"/><path class="d" d="M35.5,77.7c-.1,0-.4.3-.7.8s-.3,1-.2,1l.4-.9A4.4,4.4,0,0,1,35.5,77.7Z"/><path class="d" d="M35.5,75.9c-.1-.1-.8.4-1.4,1.2a3.8,3.8,0,0,0-1,1.6l1.1-1.4Z"/><path class="d" d="M34.5,75c-.1-.2-1.9,1.3-1.7,1.4Z"/><path class="d" d="M34.3,73.3a5.3,5.3,0,0,0-3,2.5,14.7,14.7,0,0,1,1.4-1.4A8.5,8.5,0,0,1,34.3,73.3Z"/><path class="d" d="M33.2,72.7a2.5,2.5,0,0,0-1.9,1.1l.9-.6Z"/><path class="d" d="M33.8,71.6a5.2,5.2,0,0,0-3.2,1.1l1.5-.6A14.3,14.3,0,0,0,33.8,71.6Z"/><path class="d" d="M51.6,82.9a6.3,6.3,0,0,0,0,1.5,11.9,11.9,0,0,1-.1,1.5c.1,0,.3-.6.3-1.5A5.2,5.2,0,0,0,51.6,82.9Z"/><path class="d" d="M53.1,83.4c-.1,0,0,.5-.1,1.1s-.2,1.1-.1,1.1a2.8,2.8,0,0,0,.3-1.1A2.3,2.3,0,0,0,53.1,83.4Z"/><path class="d" d="M54,83c-.1,0,.1.6.1,1.3s-.2,1.2-.1,1.2A2.8,2.8,0,0,0,54,83Z"/><path class="d" d="M56,82.5a4.9,4.9,0,0,1,.2,1.4,9.4,9.4,0,0,1-.1,1.4A3.4,3.4,0,0,0,56,82.5Z"/><path class="d" d="M57,82.8c-.1,0,0,.4.1,1s0,1,.1,1a5.8,5.8,0,0,0,.1-1A3.9,3.9,0,0,0,57,82.8Z"/><path class="d" d="M58.3,81.3c0,.3,1.1,3,.5,3.7s.4-.7.3-1.1A6.6,6.6,0,0,0,58.3,81.3Z"/><path class="d" d="M59.9,82.1a7.2,7.2,0,0,0,.4,1.9A5.8,5.8,0,0,0,59.9,82.1Z"/><path class="d" d="M60.5,80.2c-.1,0,.4.7.7,1.8s.2,1.9.3,1.9A5.3,5.3,0,0,0,60.5,80.2Z"/><path class="d" d="M61.6,80.4a6.2,6.2,0,0,1,.5,1.1c.3.7.3,1.3.4,1.3A3,3,0,0,0,61.6,80.4Z"/><path class="d" d="M62.8,79.7c0,.1.3.6.5,1.2s.4,1.2.5,1.2a3.7,3.7,0,0,0-.3-1.3A3.3,3.3,0,0,0,62.8,79.7Z"/><path class="d" d="M63.9,78.5c0,.1.5.8.9,1.8a7.4,7.4,0,0,1,.3,1.9A4.5,4.5,0,0,0,63.9,78.5Z"/><path class="d" d="M65.3,77.7c-.1,0,.2.4.5.9s.3.9.4.9a2.5,2.5,0,0,0-.3-1A2.1,2.1,0,0,0,65.3,77.7Z"/><path class="d" d="M65.3,75.9c-.1,0,.6.6,1.2,1.4s1.1,1.5,1.2,1.4a5.8,5.8,0,0,0-1-1.6C66,76.3,65.3,75.8,65.3,75.9Z"/><path class="d" d="M66.3,75,68,76.4C68.2,76.3,66.3,74.8,66.3,75Z"/><path class="d" d="M66.5,73.3a8.5,8.5,0,0,1,1.6,1.1c.8.7,1.3,1.5,1.4,1.4A5.7,5.7,0,0,0,66.5,73.3Z"/><path class="d" d="M67.5,72.7l1,.5,1,.6A2.7,2.7,0,0,0,67.5,72.7Z"/><path class="d" d="M67,71.6a10.1,10.1,0,0,0,1.6.5l1.6.6A5.4,5.4,0,0,0,67,71.6Z"/><path class="d" d="M32.3,70.5h-.9l-.7.5A10.4,10.4,0,0,0,32.3,70.5Z"/><path class="d" d="M69.7,70.9c.1-.1-1.4-.6-1.5-.5Z"/></svg>