<svg xmlns="http://www.w3.org/2000/svg" viewBox="0 0 100 100"><defs><style>.a{fill:#231f20;}.b,.d{fill:none;stroke:#231f20;}.b{stroke-linecap:round;stroke-linejoin:round;stroke-width:0.2px;}.c{fill:#bdbec0;}.d{stroke-miterlimit:10;stroke-width:0.3px;}</style></defs><path class="a" d="M40.4,35.7c.1-.1.4-.6.1-.5l-.4.3c-.1.1-.2.1-.2.2h-.1c-.1,0-.1-.1-.2,0s.3.4.2.7.1.1.1,0a1.8,1.8,0,0,1,.5-.7"/><path class="b" d="M39,37.9h0"/><path class="a" d="M38.8,38.2l-.2.3a.2.2,0,0,1-.3,0s-.1-.2-.1-.1,0,.2.1.3-.1.3,0,.2a1.4,1.4,0,0,0-.1.9c0,.1.1.1.1,0a4.4,4.4,0,0,1,.6-1.6c0-.1-.1-.1-.1,0"/><path class="c" d="M57.1,42.9a6.6,6.6,0,0,0,6.3-1.4,2.5,2.5,0,0,1,.4-.7h-.1c-.1.1-.2.3-.3.3l-.6.4a6.9,6.9,0,0,1-5.7,1.5"/><path class="c" d="M53.5,41.8c-1.3-.9-1.6-2.5-2.2-3.9s-.2-.2-.2-.1a3.2,3.2,0,0,0,.3.9c.3,1.1.9,2.7,2.1,3.1"/><path class="c" d="M50.9,37.5H51c-.3-.1-.5.4-.6.5a5.7,5.7,0,0,1-2.7,2.4,4,4,0,0,0-2.4,1,2.2,2.2,0,0,0-.5,1.1h0a6.5,6.5,0,0,1,1.6-1.3c1.2-.4,2.5-.6,3.3-1.6a4.5,4.5,0,0,0,1.1-1.9c0-.1.1-.2.1-.1"/><path class="c" d="M55.4,65.2a7.5,7.5,0,0,1,5.5,3.4l.4.2c.1.1.1,0,.1,0s-.4-.9-.8-1.4a6,6,0,0,0-5.2-2.2h0"/><path class="c" d="M51.1,62.8c-4-3.2-5.4-10.4-6.4-15.3h0c.8,4.9,1.7,12.8,6.4,15.3"/><path class="a" d="M47.4,23.8a3.5,3.5,0,0,0,3.6-.9,2.5,2.5,0,0,0,.2-1.7,5.2,5.2,0,0,0-.7-2.1c-.2-.4-1-1.7-1.5-1.2s.1.4.3.2h.4c.1-.1,0-.1,0-.1h-.5c0,.2-.1.3-.1.4h0a4.3,4.3,0,0,1,1.6,4.1c0,.4-.5.7-.9.9a4,4,0,0,1-2.4.5c-.1,0-.1.1,0,.1"/><path class="a" d="M50.8,22.9h-.1a7.5,7.5,0,0,0,.9,4.4l.3.2c.2,0,.6-.3.4-.6a3.5,3.5,0,0,0-.3-1.1h0a1.6,1.6,0,0,1,.1,1h0a16.7,16.7,0,0,1-.8-2,17.4,17.4,0,0,0-.5-2.2h0"/><path class="a" d="M42.1,30.5a2.8,2.8,0,0,0,1.3-4.4c-.2-.3-.5-.7-.9-.6l-.4-.2h0l.3.3v.2l.4.5c1.4,1.5.4,3-.8,4.1s0,.1,0,.1"/><path class="a" d="M38.9,35.7a1.7,1.7,0,0,0,1.9-.3,2.7,2.7,0,0,0,.4-4.1,1.7,1.7,0,0,0-1.3-.8c-.1,0-.2.2-.3.3s.1,0,.2,0h-.2a2.3,2.3,0,0,1,1.9,2.6c-.2,1.3-1.6,1.9-2.6,2.2"/><path class="a" d="M47.5,28.3a7,7,0,0,1-1.7.9,10.3,10.3,0,0,0-3.3,3.6,1.8,1.8,0,0,0-.5.7c0,.1.1.2,0,.3h.2c1.1-1.5,2.1-3.2,3.7-4.2s1.3-.6,1.6-1.2"/><path class="a" d="M59.1,28c-.1-.5-1.3-.3-1.6-.3l-3-.2a23.8,23.8,0,0,1-2.6-.5c-1.2,0-2.8,0-3.6,1a.8.8,0,0,1,.8-.2,15.2,15.2,0,0,1,2.1-.3c1.1-.1,2.1.4,3.2.4a17,17,0,0,0,3.9-.1,1.2,1.2,0,0,1,.8.2"/><path class="a" d="M46.1,24.7c-.4.7.8,2.9,1.5,3.1s.1-.1,0-.1a5.2,5.2,0,0,1-1.4-2.2,1.1,1.1,0,0,1,0-.8h-.1"/><path class="a" d="M51,22.3c0,.1-.2.3-.2.5a.7.7,0,0,0,.1.6c.4.9.7,1.8,1,2.7s.2.7,0,.9-.2.2-.1.3H52c1.3-.1-.4-3.3-.7-4s-.3-.5-.3-.8a.3.3,0,0,0,0-.4h0"/><path class="a" d="M45.1,26.2a1.4,1.4,0,0,0,1-1,3.7,3.7,0,0,0-.4-3.4c-.3-.5-.8-1-1.3-1h0c.1-.1.1-.2,0-.2h0c0-.1-.1,0,0,0h0a.2.2,0,0,0-.2.2c.1.1.1.2.2.2a3.3,3.3,0,0,1,1.1,4.3,1.5,1.5,0,0,1-.5.7h.1"/><path class="a" d="M45.8,22.4V21.2c0-.2-.3-.2-.3-.1a1.1,1.1,0,0,0,0,.8h.3a.8.8,0,0,1-.1-.4c-.1-.2-.4-.2-.3,0s0,.5.2.6h-.1c.2.2.5-.1.2-.2h.1c.1-.2-.1-.4-.1-.6h-.3c0,.2.1.3.1.4a.1.1,0,0,0,.3,0c0-.2-.1-.5,0-.7h-.3a5.2,5.2,0,0,0,.2,1.1h.1"/><path class="c" d="M56.9,24.9A3.7,3.7,0,0,0,59.8,21c0-.8-.5-1.3-.6-2h-.1c0,.3.1.6.1.8a8.1,8.1,0,0,1-.1,2.7,7.4,7.4,0,0,1-1.5,1.9l-.7.5"/><path class="a" d="M53,24.9a3.2,3.2,0,0,1-1.4-.8c-.2-.2-.2-.4-.4-.5v.2A2.1,2.1,0,0,0,53,24.9"/><path class="a" d="M44.6,29.5a2.3,2.3,0,0,1-.7-.7h0a.2.2,0,0,0-.2-.2h0c-.2,0-.2.3,0,.4h-.1a1.1,1.1,0,0,0,1,.6h0"/><path class="a" d="M50.1,17a3.5,3.5,0,0,0,.1,2c0,.1.1.1.1,0a12.8,12.8,0,0,1-.1-1.9c.1-.1-.2-.2-.2,0s.1,1.1.1,1.6h.2a4.3,4.3,0,0,0-.2-1.1c-.1-.2-.4-.1-.3.1s.1.4.1.7h.3c0-.2-.1-.3-.1-.5s-.3-.1-.3.1v.2h.3c0-.2-.4-.2-.4,0v.3h.4V18h-.4a.4.4,0,0,0,.1.3c0,.1.3.1.3-.1V18h-.3c0,.1.1.3.1.4a.1.1,0,0,0,.3,0c0-.3-.1-.6-.1-.8h-.3a3.8,3.8,0,0,1,.3,1c0,.2.2.2.2,0s-.3-1-.1-1.6H50c-.2.6.2,1.2.2,1.9a.1.1,0,0,0,.1-.1,4.1,4.1,0,0,1-.2-1.6V17"/><path class="a" d="M50.1,16.8a5.5,5.5,0,0,0,.1,2.2c.1.2.1.4.3.5h.1l-.3-.6a14.9,14.9,0,0,1-.2-2.1"/><path class="a" d="M51.5,24.4c.2-.3-.3-.7-.6-.6s-.1.2,0,.2.4.1.5.4.2,0,.2-.1-.5-1.1-.7-.7,0-.1.1-.1v.2h.1c-.1-.1-.1,0,0,0h.2c-.1-.2-.2-.3-.2-.4h-.2c.1.1,0,.4.2.4s.3-.1.2-.2-.4-.1-.3.1l.3.4c.1.2.4,0,.2-.1h0c.1-.2-.2-.4-.2-.6l-.3.2h.1a.4.4,0,0,1,.1-.3h.1c-.1-.1-.1-.3-.2-.4a.2.2,0,0,0-.3.1c.1.2.1.4.3.5s.3-.2.1-.4a.3.3,0,0,0-.4.2.2.2,0,0,0,.3-.1h-.2a2.1,2.1,0,0,1,.4.6c.1,0,.2,0,.2-.1s-.3-.6-.6-.4V24c.2-.1.5.1.4.3h.1"/><path class="a" d="M42,26.1h0c-.1,0-.1.1,0,.1h.1c.6-.1,1,.5,1.4.9h0c0-.6-.9-1.4-1.5-1h0"/><path class="d" d="M63.9,39.4a15.5,15.5,0,0,0-1-7.7c-.9-2.1-3.4-4-3.3-5.5V22.7c.1-3.2-.4-6.6-4.5-7.9s-4.9,1-5.2,2.2-.4,1-1.4.8a2.5,2.5,0,0,0-2.7,1.1c-.7,1,.2,2.8-.7,2.4s-2.2-1.1-2.8.3-.6,3.3-.1,3.7.4.4-.6.7-1.5.2-1.8,1.7.5,2.8-.2,3.1-1.7.4-1.9,1.9-.8,2.7-.2,4.2c1.4,3.1.2,5.5.9,9,1.7,7.9,6.1,24.2,9.2,32,1.2,2.6,5,7.4,8.8,6s8.3-4.4,5.6-12.4C57,57.6,62.3,49.8,63.9,39.4Z"/><path class="a" d="M43.4,26.5c.2-.4-1.1-.8-1.3-1v-.3a4.3,4.3,0,0,1-.1-.5c0-.2-.3-.1-.3,0s.1.9-.2,1.1.3.1.4,0H42l.3.2h-.4l-.2.2h.2a1.1,1.1,0,0,1,.8.2c.5.2.7.7,1.1,1h.1a1.5,1.5,0,0,0-.5-.8"/><path class="a" d="M44,29c-.2-.2-.6,0-.7.2a.1.1,0,0,0,.1.1c.1-.2.3-.2.5-.2A.1.1,0,0,0,44,29"/><path class="a" d="M46.3,25.9l-.2-.3c.1,0,.1-.1,0-.2h0c-.1-.1-.2,0-.2.1s-.3.1-.2.2h.1c.2,0,.7.8.5.3"/><path class="a" d="M50.9,23.3c.2-.1-.1-.3-.2-.4s-.3.1-.2.2h-.2a.1.1,0,0,0,0,.2h.3a.4.4,0,0,1,.1.3h0a.1.1,0,0,0,.3,0,.6.6,0,0,1-.1-.4"/><path class="a" d="M45.4,20.2c-.1.1-.1.3-.2.4s-.1.2-.3.2H45c0,.2.3.1.4-.1s0-.5.1-.7,0-.1-.1-.1"/><path class="a" d="M45.8,21.9v-.3a.7.7,0,0,0-.1-.5c-.2.1-.2.4-.2.6s0,.4.2.5.1-.2.1-.3"/></svg>