<svg xmlns="http://www.w3.org/2000/svg" viewBox="0 0 100 100"><defs><style>.a{fill:#cbd1d4;}.b{fill:#231f20;}.c{fill:#010101;}.d{fill:none;stroke:#cbd1d4;stroke-width:0.5px;}.d,.g{stroke-linecap:round;stroke-miterlimit:10;}.e{fill:#808184;}.f{fill:#bdbec0;}.g{fill:#020202;stroke:#020202;stroke-width:0.25px;}</style></defs><path class="a" d="M49.9,30.1a14.3,14.3,0,0,1-1.4,3.4,15.3,15.3,0,0,1-1.9,3c0,.1,0,.1-.1,0h0a19.2,19.2,0,0,0,1.8-3.1A22.4,22.4,0,0,0,49.4,30h0c0-.1.2-.2.3-.2s.2.2.2.3Z"/><path class="a" d="M33,31.1a19.6,19.6,0,0,0,1.2,3.4,13.4,13.4,0,0,0,1.7,3.1h-.1a19.8,19.8,0,0,1-1.9-3.1,32.7,32.7,0,0,1-1.4-3.3c0-.2.1-.3.2-.3a.2.2,0,0,1,.3.1Z"/><path class="b" d="M33.5,13.6l-.6,7.5-.3,3.8v1.8c0,.7.1,1.3.1,1.9v7.6a47.4,47.4,0,0,0,.6,7.5h-.1a38.4,38.4,0,0,1-.9-7.5c-.1-2.5-.1-5-.2-7.6a38,38,0,0,1,.3-7.5q.3-3.7.9-7.5Z"/><path class="b" d="M32.4,37.8c-.8,2.3-1.5,4.7-2.1,7.1s-.5,2.4-.7,3.7a22.2,22.2,0,0,0-.3,3.7h-.1a.1.1,0,0,1-.1-.1,16.1,16.1,0,0,1,.1-3.8c.1-1.2.4-2.5.6-3.7a45.6,45.6,0,0,1,2.4-7.1h.2Z"/><path class="b" d="M31.7,45.8a58.7,58.7,0,0,0-2.8,9.3,60,60,0,0,0-1.5,9.6,61.6,61.6,0,0,0-.2,9.6,77.7,77.7,0,0,0,1,9.7h-.1c-.3-1.6-.7-3.2-.9-4.8a38.8,38.8,0,0,1-.4-4.8,53.4,53.4,0,0,1,.1-9.8A62,62,0,0,1,28.5,55a41.5,41.5,0,0,1,3.1-9.2h.1Z"/><path class="b" d="M49.6,14.4c.3,2.5.6,4.9.7,7.4a26.3,26.3,0,0,1-.2,7.4,22.4,22.4,0,0,0-1,7.2,21.7,21.7,0,0,0,1.1,7.2c.1.1,0,.1,0,.2H50a22.5,22.5,0,0,1-1.4-7.3,24,24,0,0,1,.3-3.7,11.6,11.6,0,0,1,.4-1.8,2.9,2.9,0,0,1,.2-.9l.2-.9c.2-1.2.2-2.4.3-3.6s-.1-2.5-.1-3.7-.3-4.9-.5-7.4h.2Z"/><path class="b" d="M49.1,35.5a69.7,69.7,0,0,1,3.5,7.3,13.9,13.9,0,0,1,.6,1.9,5.9,5.9,0,0,0,1,1.7A18.5,18.5,0,0,0,57,49.2c.1,0,.1.1,0,.1s0,.1-.1,0a18.8,18.8,0,0,1-3-2.7,5.2,5.2,0,0,1-1-1.8l-.6-1.9a67.6,67.6,0,0,0-3.6-7.1h0c-.1-.1,0-.3.1-.4s.3,0,.3.1Z"/><path class="b" d="M61.9,37.2c-.2,1.7-.3,3.5-.4,5.2V45a10.6,10.6,0,0,0,.2,2.5c.7,1.5,1.6,3,2.4,4.5s1.5,3.1,2.2,4.7a43.7,43.7,0,0,1,3.1,9.9,17.3,17.3,0,0,1-.9,10.3h0c-.2,1.4-.3,2.7-.5,4.1s-.3,2.8-.3,4.2h-.2c.1-1.4.2-2.8.4-4.2s.3-2.8.5-4.1h0A18.2,18.2,0,0,0,69,66.7a55.8,55.8,0,0,0-3.1-9.8c-.7-1.6-1.4-3.1-2.2-4.7l-2.4-4.6a11.8,11.8,0,0,1-.2-2.6,21.1,21.1,0,0,1,.2-2.6c.1-1.8.2-3.5.4-5.2h.2Z"/><path class="a" d="M67.6,76.1A15.9,15.9,0,0,1,62,74.7a12,12,0,0,1-2.4-1.5,7.6,7.6,0,0,1-1.8-2.3h0a9.5,9.5,0,0,0,2,2,15.8,15.8,0,0,0,2.4,1.5l2.7,1,2.7.7h0Z"/><path class="a" d="M66.6,82a10.6,10.6,0,0,1-3.1-.5,5.2,5.2,0,0,1-2.6-1.7h0A13.9,13.9,0,0,0,63.7,81l2.9.9Z"/><path class="a" d="M36.5,67.2a11.1,11.1,0,0,1-.8,3,17.4,17.4,0,0,1-1.4,2.7,14.4,14.4,0,0,1-1.8,2.5c-.6.8-1.3,1.5-2,2.3h-.1c-.1-.1-.1-.1,0-.1l1.8-2.4,1.7-2.5c.5-.9,1-1.8,1.4-2.7s.8-1.9,1.1-2.8h0A.1.1,0,0,1,36.5,67.2Z"/><path class="a" d="M51.1,63.9a33.1,33.1,0,0,1-4.5-5.4,30.7,30.7,0,0,1-3.1-6.3,20.9,20.9,0,0,1-1.1-7,17.2,17.2,0,0,1,1.4-6.8.1.1,0,0,1,.1-.1h0l-.5,1.7-.2.8v.9l-.3,1.7v1.7A19.9,19.9,0,0,0,44,52a29.9,29.9,0,0,0,2.9,6.3,44.4,44.4,0,0,0,4.2,5.5c.1,0,.1.1,0,.1Z"/><path class="a" d="M39.1,56.8l1.2-3a28.1,28.1,0,0,0,1-3.1,21.6,21.6,0,0,0,.9-6.2.1.1,0,0,1,.1-.1h0a12.2,12.2,0,0,1,.1,3.3,18,18,0,0,1-.6,3.2c-.3,1-.7,2-1.1,3a26.4,26.4,0,0,1-1.5,2.9Z"/><path class="c" d="M58,33.8a4.5,4.5,0,0,0,2.8,2.9,9.4,9.4,0,0,0,4.1.4l2-.3,2.1-.5a11.7,11.7,0,0,0,2-.6A2.9,2.9,0,0,0,72,34h0a2.4,2.4,0,0,0-.5-1.8h0a2.5,2.5,0,0,1-.2-1.2,1.3,1.3,0,0,1,.1-.6,1.2,1.2,0,0,1,.5-.5h0c.2-.1.2-.2.2-.4a1,1,0,0,0-.5-.6l-.4-.2.5-.2c.2-.1.4-.2.4-.4s0-.4-.1-.7l-.4-.8a1.1,1.1,0,0,1,0-1h0c.2-.3.5-.3.7-.4h.6a2,2,0,0,0,1.1-.2,1,1,0,0,0,.6-.8,1.2,1.2,0,0,0-.4-1.1c-.2-.3-.6-.5-.8-.9a11.7,11.7,0,0,1-.5-1.1,9,9,0,0,0-.8-2.3c-.1,0,0,0,0-.1h.1a6.5,6.5,0,0,1,.8,2.2l.5,1.2.8.8a1.7,1.7,0,0,1,.5,1.2,1.5,1.5,0,0,1-.7,1.1,2.7,2.7,0,0,1-1.2.3h-.6c-.2,0-.4.2-.3.2h0c-.1.2,0,.4.1.7l.3.7a1.2,1.2,0,0,1,.2,1c-.1.5-.5.6-.8.7v-.4a1.6,1.6,0,0,1,.6.8.6.6,0,0,1,0,.6.8.8,0,0,1-.4.4h0c-.5.2-.4,1.1-.2,1.7h0a2.9,2.9,0,0,1,.5,2h0A3.2,3.2,0,0,1,71.1,36a15.2,15.2,0,0,1-2,.6L67,37a7.6,7.6,0,0,1-2.1.3,8.5,8.5,0,0,1-4.2-.4,4.4,4.4,0,0,1-2.9-3c-.1-.1,0-.1.1-.2Z"/><path class="d" d="M65.4,68.6c.2,2-1.4,2.2-1.6.1S65.2,66.5,65.4,68.6Z"/><path class="e" d="M55.2,22.5c-.1.3-.5.3-.7.6a1.6,1.6,0,0,1-.5.8c.5-.6.4-1.1,1.2-1.4"/><path class="e" d="M55.1,23.2c0,.1-.2.6-.2.3s-.2-.5-.3-.4.4-.5.5-.4a.8.8,0,0,1,0,.5"/><path class="f" d="M55,22.9h0"/><path class="e" d="M54.9,22.7v.4h-.5Z"/><path class="e" d="M54.3,21.1c-.5.9-1.6,1.6-1.6,2.4s.9,1.9,1.6,1.5.3-.6.6-.4.4.3.6.2.2-.9-.1-1.1h-.3c-.1-.2.1-.4,0-.6a.3.3,0,0,0-.4-.2c.5.2.2.4.2.8s.3.2.4.2.4.7.1.9-.4-.4-.7-.2-.3.4-.6.5-1.2-.9-1.2-1.5,1.2-1.5,1.4-2.4"/><path class="e" d="M53.7,23.3c1.2-.8,1-3.3-.7-3.4s-1.2,4.6.6,5.8c-1.3-1.2-2.8-3.3-1.7-5a1.3,1.3,0,0,1,1.8-.5,2.1,2.1,0,0,1,0,3.1"/><path class="g" d="M55.3,21.1c-1.4-3.3-5.5-1-4.2,2s4.8,5.6,4.9,2.7c0-.7.3-1.4,0-2.1a7.4,7.4,0,0,1,0,2.1c-.2,2.9-4.7-1.3-4.8-2.7-1.3-3,2.6-5.2,4.1-2"/><path class="a" d="M40.6,54.2c1.1-2.4,2.2-2.9,3.8.4l-2.1-9.2Z"/><path class="a" d="M37,39.5a3.9,3.9,0,0,0,1,.8c.1.2.3.3.5.5l.4.5c.1.2.1.3-.1.4s-.2,0-.3-.1h0l-.3-.5-.4-.5-.9-1H37Z"/><path class="a" d="M38.7,39l1.1,2a.2.2,0,0,1-.1.3c-.1.1-.3.1-.3-.1h0L38.6,39h0A.1.1,0,0,1,38.7,39Z"/><path class="a" d="M40.1,39.1l.3,1.6c.1.2,0,.3-.2.3l-.3-.2h0V39.2h0c0-.1,0-.2.1-.2A.1.1,0,0,1,40.1,39.1Z"/><path class="a" d="M41.5,39.4l-.3,1.4h0c0,.2-.1.3-.3.2s-.2-.1-.2-.3h0l.7-1.3h.1Z"/><path class="a" d="M43.1,61.2l-1.2-2.6c-.1-.1,0-.3.1-.4s.3,0,.3.2h.1l.8,2.8h-.1Z"/><path class="a" d="M44.6,60.7l-1.7-2.9a.2.2,0,0,1,.1-.3c.1-.1.3-.1.3.1h.1l1.3,3h-.1Z"/><path class="a" d="M41.3,61.2a10.5,10.5,0,0,0-.6-2.4.2.2,0,1,1,.4-.2.1.1,0,0,1,.1.1,21.1,21.1,0,0,1,.2,2.5h-.1Z"/><path class="a" d="M39.6,60.8a14.8,14.8,0,0,0,.1-2.1.2.2,0,0,1,.2-.2c.2,0,.3.1.3.2h0a6.5,6.5,0,0,1-.5,2.1Z"/><path class="a" d="M37.8,60.2a5.6,5.6,0,0,0,.9-1.7c0-.1.2-.2.3-.2s.2.2.2.3h0a7,7,0,0,1-1.4,1.6h0Z"/></svg>