<svg xmlns="http://www.w3.org/2000/svg" viewBox="0 0 100 100"><defs><style>.a{fill:#bdbec0;}.b{fill:#939598;}.c{fill:#231f20;}</style></defs><path class="a" d="M34,45.1h0"/><path class="b" d="M26.2,72.8h0"/><path class="a" d="M72.7,52.5h0"/><path class="b" d="M57.6,83.8h0"/><path class="c" d="M32.8,11.5a22.7,22.7,0,0,1,1.4,5.1h.1c.4-1.8-.7-3.7-1.5-5.1"/><path class="a" d="M57.4,67.3c-.4-.5-1.1-.1-1.6,0a2.3,2.3,0,0,1-1.1-.3c-.3-.1-.8-.3-1.1,0h0a6.5,6.5,0,0,0,2,.4c.5-.1,1.3-.6,1.7-.2s.2,0,.1,0"/><path class="a" d="M55.8,68.8a3.2,3.2,0,0,1-2.5-.5c-.1-.1-.2.1-.1.2a1.9,1.9,0,0,0,1.3.7,1.8,1.8,0,0,0,1.4-.2c.1-.1,0-.2-.1-.2"/><path class="a" d="M53.3,66c.1-.1.1-.1.1-.2h0a3,3,0,0,1,2.6-.4s.1-.1,0-.1a2.3,2.3,0,0,0-1.6-.3c-.3,0-1.7.5-1.1.9"/><path class="a" d="M56.8,67.2h.1s-.2-.1-.1,0"/><path class="a" d="M47.3,69.3a2.4,2.4,0,0,1-2.2.1c-.3-.1-.6-.3-.9-.2s.2.4.3.4a2.7,2.7,0,0,0,2.6,0l.3-.2a.1.1,0,0,0-.1-.1"/><path class="a" d="M46.6,68.1H45.4c-.2,0-.5.2-.7.1s-.4-.2-.4,0,.7.3,1.1.1,1,0,1.2-.3"/><path class="a" d="M46.6,66.7c-.5-.5-1.5,0-1.9.3s.1.2.2.2,1.1-.7,1.6-.4h.1"/><path class="a" d="M65.1,34.5A17,17,0,0,1,63.8,40c-.7,1.5-2.2,2.6-2.4,4.4,0,0,.1.1.1,0s2.9-3.3,3.4-5.4a22.6,22.6,0,0,0,.2-4.5"/><path class="a" d="M66.6,39.9c-.2.4-1,.3-1.3.4a4.7,4.7,0,0,0-3.8,3.8c0,.1,0,.1.1.1a1.5,1.5,0,0,1,.5-.6c.7-.6,1-1.6,1.8-2a10.5,10.5,0,0,0,1.1-.7l.8-.4c.1-.1,1-.4.8-.6h0"/><path class="a" d="M51.5,58.6a1.4,1.4,0,0,0-.2-.7h-.1c-.1.1.2.4.2.5s0,.3.1.2"/><path class="a" d="M49.7,55.8h0c1.4,1.2,1.3,3.2,1.7,4.8a4.2,4.2,0,0,0-1.7-4.9c-.1,0,0,.2,0,.2"/><path class="a" d="M41.4,53.8h-.2a4.3,4.3,0,0,1,1.1,2.6,2.3,2.3,0,0,0,.3,1.8h0a.8.8,0,0,1,.2-.7,2.5,2.5,0,0,0,.1-1.9,4.9,4.9,0,0,0-1.6-1.9h-.1c.1.1.2.1.2,0"/><path class="a" d="M31.5,48.9a36.2,36.2,0,0,1,2.2,3.2,8,8,0,0,1,1.4,3.1h.1a2.8,2.8,0,0,1,.1-.9,3.1,3.1,0,0,0-.9-2.6,19.2,19.2,0,0,0-2.8-2.9h-.1"/><path class="b" d="M74.6,54.7a.8.8,0,0,0,.2-.5l.4-.5a2.6,2.6,0,0,1,1.2-.5h0c.1,0,.3-.1.2,0h.3a.4.4,0,0,0,0-.7,1,1,0,0,0-.7.2c-.3.3-.8.5-1,.9h0l-.5.7v.2c0,.1-.2.3-.1.4"/><path class="b" d="M77.2,53.6a1.1,1.1,0,0,1-1.2.2.1.1,0,0,0-.1.1,1.3,1.3,0,0,0,1.3-.3"/><path class="a" d="M75.2,52.7a1.9,1.9,0,0,1,.9-.4s.2-.1.1-.2H76a1.8,1.8,0,0,0-.9.6h.1"/><path class="a" d="M72.5,49.9a.6.6,0,0,0,.6,0l1-.4a3.8,3.8,0,0,0,1.4-1.1c.1-.1,0-.3,0-.4s-.2,0-.2.1v.2h0a5.1,5.1,0,0,1-2.8,1.7"/><path class="a" d="M72.9,47.8a6.7,6.7,0,0,0,1.2-.6c.3-.1.6,0,.8-.2s0-.1,0-.1-.9,0-1.1.3h.1a1.7,1.7,0,0,0-1,.6"/><path class="a" d="M74,48.4a1.2,1.2,0,0,0,.7-.5h-.1l-.6.5h0"/><path class="a" d="M70,40.4a5.8,5.8,0,0,0,2.4-2,1.6,1.6,0,0,0,.2-1h-.1a8.1,8.1,0,0,1-2.5,3"/><path class="a" d="M58.5,50.4a6.2,6.2,0,0,0,1.6-3.1H60a12.7,12.7,0,0,1-1.5,3.1"/><path class="a" d="M38,68.1h0"/><path class="b" d="M44.9,88.6c-.9-.1-2-.3-2.3-1.3s.1.6.2.8,1.4.4,2.1.5"/><path class="b" d="M45.1,84.6c-.5.3-1,0-1.5.1s1.2.3,1.5-.1"/><path class="b" d="M35.7,85.1a2,2,0,0,1-1.3-.2c-.4-.2-.4-.4-.6-.6s-.1.3,0,.4a1.9,1.9,0,0,0,1.9.4"/><path class="b" d="M35.9,81.7a2.5,2.5,0,0,1-1.2-.1h-.1a1,1,0,0,0,.7.2c.2,0,.5.1.6-.1"/><path class="b" d="M27.5,73.6a3.3,3.3,0,0,1-1.4-.4h0c-.1-.1-.1,0-.1.1h0c.1.2.5.2.7.3a2.1,2.1,0,0,0,.8,0"/><path class="a" d="M29.5,61.5c-.9.7-2.1-.3-3-.6h0a4.4,4.4,0,0,0,1.5.8c.5.2,1.2.3,1.5-.2h0"/><path class="a" d="M29.8,59.8v-.2a2.8,2.8,0,0,0-2.5-.3s0,.2.1.1a2.8,2.8,0,0,1,2.5.4"/><path class="a" d="M29,60.5h-.5c-.1,0-.1.1,0,.1H29"/><path class="a" d="M29.3,60.8c-.2-.6-1.3-.3-1.7-.6h-.3c-.1-.1-.5-.5-.5-.3l.4.5h0c0,.1,0,.2.1.2h-.1c.4.8,1.6,0,2.1.5h0"/><path class="b" d="M36,81h0"/><path class="a" d="M55,14.7a.4.4,0,0,0,.5.1,4.8,4.8,0,0,0,1.8-.5c.3-.1.9-.1.9-.4s-.3-.2-.3,0h0c0,.2.3.1.2-.1s-.2-.1-.2,0,.2.3.3.1-.3-.3-.3,0H58c-.9.2-2.1,1.2-3,.9"/><path class="a" d="M58.3,16a4.5,4.5,0,0,1-.5,1.9,4.7,4.7,0,0,1-1.4,1.4h.1A3.4,3.4,0,0,0,58.3,16"/><path class="b" d="M45.8,87.8a.4.4,0,0,0,.2-.4,7.6,7.6,0,0,0,.2-2.6,2,2,0,0,0-1.4-1.4c-1.3-.6-2.4.7-2.5,2a7.6,7.6,0,0,0,.1,1.5c.2-.2.1-.9.1-1.2s.9-2.1,2-1.9a1.9,1.9,0,0,1,1.4,1.1,7.1,7.1,0,0,1-.1,2.9"/><path class="b" d="M36.6,84c.2-.9.5-2.4-.5-3a1.6,1.6,0,0,0-2.4,1.1,3,3,0,0,0-.1,1.6c-.1-1.2.8-3.2,2.3-2.5s.7,1.9.7,2.8"/><path class="b" d="M28,72.8c0-.5.1-1.5-.2-1.9a1,1,0,0,0-1.7,0,3.6,3.6,0,0,0-.3,1.8h0c.2-.6.2-1.3.7-1.7h.2a1.2,1.2,0,0,1,.8.2,3.2,3.2,0,0,1,.3.9c.1.2,0,.6.2.8"/><path class="b" d="M57.3,84.5a3.7,3.7,0,0,0-.2-2.9c-1.1-1.4-3.3-.2-3.1,1.6s0,.9.2,1v-.8c0-1.2,1.5-2.6,2.6-1.5a3.4,3.4,0,0,1,.5,2.6h0"/><path class="b" d="M56.8,85.3a7.5,7.5,0,0,1-1.5,0c-.5-.1-.7-.5-.9-.8s0,.4.1.5,1.6.4,2.3.3"/><path class="b" d="M56.2,82a1.5,1.5,0,0,1-.9.1,1,1,0,0,0,.9,0h0"/><path class="b" d="M27.3,71.5h0"/><path class="a" d="M49.8,56.5c-.1.6-.8,1.4-.2,2s.1-.2.1-.2a2.8,2.8,0,0,1,.1-1.3c0-.1.1-.6,0-.5"/><path class="a" d="M41.1,54.4c0,.8-.5,1.9,0,2.7h0c0,.1-.1.2,0,.2s.2,0,.2-.1,0-.8,0-1.2a2.9,2.9,0,0,0-.2-1.6s-.1,0,0,.1"/><path class="a" d="M43.5,50.8a8,8,0,0,1,.6-3H44a4,4,0,0,0-.5,3"/><path class="a" d="M36.7,49.1c.2-.6.2-1.3.4-1.9h0c-.5.4-.3,1.3-.4,1.9"/><path class="a" d="M57.6,51.2l.9-.6a4.3,4.3,0,0,0,1.7-2.8,1.4,1.4,0,0,1,.2-.6c0-.1,0-.1-.1-.1s-1,1.3-1.4,2l-1.1,1.6c0,.1-.3.3-.2.5"/><path class="a" d="M28.4,47.7a3.1,3.1,0,0,0-1.5-1h0c-.1-.1-.3,0-.4,0h-.1s-.1.2,0,.2.1.1.1,0h.1a.1.1,0,0,1-.1-.1c.2.2.3.1.5.1h.1a3.8,3.8,0,0,1,1.3.6"/><path class="a" d="M34,45.1h0"/><path class="b" d="M26.2,72.8h0"/><path class="a" d="M72.7,52.5h0"/><path class="b" d="M57.6,83.8h0"/><path class="c" d="M32.8,11.5a22.7,22.7,0,0,1,1.4,5.1h.1c.4-1.8-.7-3.7-1.5-5.1"/><path class="a" d="M57.4,67.3c-.4-.5-1.1-.1-1.6,0a2.3,2.3,0,0,1-1.1-.3c-.3-.1-.8-.3-1.1,0h0a6.5,6.5,0,0,0,2,.4c.5-.1,1.3-.6,1.7-.2s.2,0,.1,0"/><path class="a" d="M55.8,68.8a3.2,3.2,0,0,1-2.5-.5c-.1-.1-.2.1-.1.2a1.9,1.9,0,0,0,1.3.7,1.8,1.8,0,0,0,1.4-.2c.1-.1,0-.2-.1-.2"/><path class="a" d="M53.3,66c.1-.1.1-.1.1-.2h0a3,3,0,0,1,2.6-.4s.1-.1,0-.1a2.3,2.3,0,0,0-1.6-.3c-.3,0-1.7.5-1.1.9"/><path class="a" d="M56.8,67.2h.1s-.2-.1-.1,0"/><path class="a" d="M47.3,69.3a2.4,2.4,0,0,1-2.2.1c-.3-.1-.6-.3-.9-.2s.2.4.3.4a2.7,2.7,0,0,0,2.6,0l.3-.2a.1.1,0,0,0-.1-.1"/><path class="a" d="M46.6,68.1H45.4c-.2,0-.5.2-.7.1s-.4-.2-.4,0,.7.3,1.1.1,1,0,1.2-.3"/><path class="a" d="M46.6,66.7c-.5-.5-1.5,0-1.9.3s.1.2.2.2,1.1-.7,1.6-.4h.1"/><path class="a" d="M65.1,34.5A17,17,0,0,1,63.8,40c-.7,1.5-2.2,2.6-2.4,4.4,0,0,.1.1.1,0s2.9-3.3,3.4-5.4a22.6,22.6,0,0,0,.2-4.5"/><path class="a" d="M66.6,39.9c-.2.4-1,.3-1.3.4a4.7,4.7,0,0,0-3.8,3.8c0,.1,0,.1.1.1a1.5,1.5,0,0,1,.5-.6c.7-.6,1-1.6,1.8-2a10.5,10.5,0,0,0,1.1-.7l.8-.4c.1-.1,1-.4.8-.6h0"/><path class="a" d="M51.5,58.6a1.4,1.4,0,0,0-.2-.7h-.1c-.1.1.2.4.2.5s0,.3.1.2"/><path class="a" d="M49.7,55.8h0c1.4,1.2,1.3,3.2,1.7,4.8a4.2,4.2,0,0,0-1.7-4.9c-.1,0,0,.2,0,.2"/><path class="a" d="M41.4,53.8h-.2a4.3,4.3,0,0,1,1.1,2.6,2.3,2.3,0,0,0,.3,1.8h0a.8.8,0,0,1,.2-.7,2.5,2.5,0,0,0,.1-1.9,4.9,4.9,0,0,0-1.6-1.9h-.1c.1.1.2.1.2,0"/><path class="a" d="M31.5,48.9a36.2,36.2,0,0,1,2.2,3.2,8,8,0,0,1,1.4,3.1h.1a2.8,2.8,0,0,1,.1-.9,3.1,3.1,0,0,0-.9-2.6,19.2,19.2,0,0,0-2.8-2.9h-.1"/><path class="b" d="M74.6,54.7a.8.8,0,0,0,.2-.5l.4-.5a2.6,2.6,0,0,1,1.2-.5h0c.1,0,.3-.1.2,0h.3a.4.4,0,0,0,0-.7,1,1,0,0,0-.7.2c-.3.3-.8.5-1,.9h0l-.5.7v.2c0,.1-.2.3-.1.4"/><path class="b" d="M77.2,53.6a1.1,1.1,0,0,1-1.2.2.1.1,0,0,0-.1.1,1.3,1.3,0,0,0,1.3-.3"/><path class="a" d="M75.2,52.7a1.9,1.9,0,0,1,.9-.4s.2-.1.1-.2H76a1.8,1.8,0,0,0-.9.6h.1"/><path class="a" d="M72.5,49.9a.6.6,0,0,0,.6,0l1-.4a3.8,3.8,0,0,0,1.4-1.1c.1-.1,0-.3,0-.4s-.2,0-.2.1v.2h0a5.1,5.1,0,0,1-2.8,1.7"/><path class="a" d="M72.9,47.8a6.7,6.7,0,0,0,1.2-.6c.3-.1.6,0,.8-.2s0-.1,0-.1-.9,0-1.1.3h.1a1.7,1.7,0,0,0-1,.6"/><path class="a" d="M74,48.4a1.2,1.2,0,0,0,.7-.5h-.1l-.6.5h0"/><path class="a" d="M70,40.4a5.8,5.8,0,0,0,2.4-2,1.6,1.6,0,0,0,.2-1h-.1a8.1,8.1,0,0,1-2.5,3"/><path class="a" d="M58.5,50.4a6.2,6.2,0,0,0,1.6-3.1H60a12.7,12.7,0,0,1-1.5,3.1"/><path class="a" d="M38,68.1h0"/><path class="b" d="M44.9,88.6c-.9-.1-2-.3-2.3-1.3s.1.6.2.8,1.4.4,2.1.5"/><path class="b" d="M45.1,84.6c-.5.3-1,0-1.5.1s1.2.3,1.5-.1"/><path class="b" d="M35.7,85.1a2,2,0,0,1-1.3-.2c-.4-.2-.4-.4-.6-.6s-.1.3,0,.4a1.9,1.9,0,0,0,1.9.4"/><path class="b" d="M35.9,81.7a2.5,2.5,0,0,1-1.2-.1h-.1a1,1,0,0,0,.7.2c.2,0,.5.1.6-.1"/><path class="b" d="M27.5,73.6a3.3,3.3,0,0,1-1.4-.4h0c-.1-.1-.1,0-.1.1h0c.1.2.5.2.7.3a2.1,2.1,0,0,0,.8,0"/><path class="a" d="M29.5,61.5c-.9.7-2.1-.3-3-.6h0a4.4,4.4,0,0,0,1.5.8c.5.2,1.2.3,1.5-.2h0"/><path class="a" d="M29.8,59.8v-.2a2.8,2.8,0,0,0-2.5-.3s0,.2.1.1a2.8,2.8,0,0,1,2.5.4"/><path class="a" d="M29,60.5h-.5c-.1,0-.1.1,0,.1H29"/><path class="a" d="M29.3,60.8c-.2-.6-1.3-.3-1.7-.6h-.3c-.1-.1-.5-.5-.5-.3l.4.5h0c0,.1,0,.2.1.2h-.1c.4.8,1.6,0,2.1.5h0"/><path class="b" d="M36,81h0"/><path class="a" d="M55,14.7a.4.4,0,0,0,.5.1,4.8,4.8,0,0,0,1.8-.5c.3-.1.9-.1.9-.4s-.3-.2-.3,0h0c0,.2.3.1.2-.1s-.2-.1-.2,0,.2.3.3.1-.3-.3-.3,0H58c-.9.2-2.1,1.2-3,.9"/><path class="a" d="M58.3,16a4.5,4.5,0,0,1-.5,1.9,4.7,4.7,0,0,1-1.4,1.4h.1A3.4,3.4,0,0,0,58.3,16"/><path class="b" d="M45.8,87.8a.4.4,0,0,0,.2-.4,7.6,7.6,0,0,0,.2-2.6,2,2,0,0,0-1.4-1.4c-1.3-.6-2.4.7-2.5,2a7.6,7.6,0,0,0,.1,1.5c.2-.2.1-.9.1-1.2s.9-2.1,2-1.9a1.9,1.9,0,0,1,1.4,1.1,7.1,7.1,0,0,1-.1,2.9"/><path class="b" d="M36.6,84c.2-.9.5-2.4-.5-3a1.6,1.6,0,0,0-2.4,1.1,3,3,0,0,0-.1,1.6c-.1-1.2.8-3.2,2.3-2.5s.7,1.9.7,2.8"/><path class="b" d="M28,72.8c0-.5.1-1.5-.2-1.9a1,1,0,0,0-1.7,0,3.6,3.6,0,0,0-.3,1.8h0c.2-.6.2-1.3.7-1.7h.2a1.2,1.2,0,0,1,.8.2,3.2,3.2,0,0,1,.3.9c.1.2,0,.6.2.8"/><path class="b" d="M57.3,84.5a3.7,3.7,0,0,0-.2-2.9c-1.1-1.4-3.3-.2-3.1,1.6s0,.9.2,1v-.8c0-1.2,1.5-2.6,2.6-1.5a3.4,3.4,0,0,1,.5,2.6h0"/><path class="b" d="M56.8,85.3a7.5,7.5,0,0,1-1.5,0c-.5-.1-.7-.5-.9-.8s0,.4.1.5,1.6.4,2.3.3"/><path class="b" d="M56.2,82a1.5,1.5,0,0,1-.9.1,1,1,0,0,0,.9,0h0"/><path class="b" d="M27.3,71.5h0"/><path class="a" d="M49.8,56.5c-.1.6-.8,1.4-.2,2s.1-.2.1-.2a2.8,2.8,0,0,1,.1-1.3c0-.1.1-.6,0-.5"/><path class="a" d="M41.1,54.4c0,.8-.5,1.9,0,2.7h0c0,.1-.1.2,0,.2s.2,0,.2-.1,0-.8,0-1.2a2.9,2.9,0,0,0-.2-1.6s-.1,0,0,.1"/><path class="a" d="M43.5,50.8a8,8,0,0,1,.6-3H44a4,4,0,0,0-.5,3"/><path class="a" d="M36.7,49.1c.2-.6.2-1.3.4-1.9h0c-.5.4-.3,1.3-.4,1.9"/><path class="a" d="M57.6,51.2l.9-.6a4.3,4.3,0,0,0,1.7-2.8,1.4,1.4,0,0,1,.2-.6c0-.1,0-.1-.1-.1s-1,1.3-1.4,2l-1.1,1.6c0,.1-.3.3-.2.5"/><path class="a" d="M28.4,47.7a3.1,3.1,0,0,0-1.5-1h0c-.1-.1-.3,0-.4,0h-.1s-.1.2,0,.2.1.1.1,0h.1a.1.1,0,0,1-.1-.1c.2.2.3.1.5.1h.1a3.8,3.8,0,0,1,1.3.6"/><path class="b" d="M75.1,56.6c-.4-1.2-.4-2.6,1-3.2l.9-.3h.3c.1,0-.1-.1-.1-.1s-.8-.5-1.2-.3a2.7,2.7,0,0,0-1.5,2.8c.1.4.2.9.6,1.1"/><path class="b" d="M76,57.5c.6.8,2.6.1,3.1-.7s-.1-.3-.2-.3h0a.2.2,0,0,0-.2.2h.1c-.6.7-1.8,1.4-2.7.8s-.1,0-.1.1"/><path class="c" d="M57.9,12a14,14,0,0,0,1.2,5.8c.9,1.8,2.7,2.9,4,4.4a68.1,68.1,0,0,1,7.5,9.5,16.6,16.6,0,0,1,2,4c.6,2.5.9,4.9,1.6,7.4s1.1,3.8,1.8,5.7a22.2,22.2,0,0,0,2.1,5.6c.9,1,2,3,.7,4.2s-5.2.4-7.1-1.1c-3.4-2.6-4.1-6.9-5.4-10.7a48.9,48.9,0,0,0-2-4.8c-.1-.2-.2-.4-.3-.3s-1.4,1.2-1.9,2a37.6,37.6,0,0,0-2.3,5.5c.1,1.9.2,6.9.2,9,.2,5.8-.2,12.2-.5,18a40.5,40.5,0,0,1-.5,6c-.3,1.5-.6,3.2-1.8,4.2a2.4,2.4,0,0,1-3.8-1.5,15.7,15.7,0,0,1-.5-3c-.6-6.9-1.2-14-1.6-21a10.2,10.2,0,0,0-.5-3.5c-.7-.4-.9.6-1,1.2s-.4,6.9-.5,9c-.2,4-.9,7.9-1.2,11.9l-.4,6a5.4,5.4,0,0,1-.8,3,3.3,3.3,0,0,1-5.4-.4c-.5-.7-.4-2.1-.4-3,0-9.4.5-19.1,1.3-28.5,0-.2,0-.5-.1-.6s-.8-.5-1-.1c-.4,5.5-1.5,11.7-2.1,17.1-.3,3-.5,6-1,9s-.3,3.4-1.9,4a2.7,2.7,0,0,1-3.8-1.9c-.3-3.4.2-8.6.2-12.1.2-6,1.2-12,1.9-17.9a1.9,1.9,0,0,0-.8-1.7c-.7-.6-1,.4-1.1.9-1.3,6.4-2,12.9-3.5,19.2-.3,1.9-1.9,2.9-3.6,1.7s-.8-2.9-.8-4.3c.4-7,.6-14.1,1.3-21S28.8,33,31.2,25.4c1.1-3.9,2.8-7.5,3.5-11.5,0,4.1-2.1,7.7-3.1,11.6s-2.3,7.7-3.3,11.6a65.9,65.9,0,0,0-1.8,11.8c-.6,8-1.2,16-1.4,24,.2,1.3,2.4,2,3.2.8a2.5,2.5,0,0,0,.5-1.3c1.5-5.8,2.1-11.8,3.2-17.7.1-1.1.4-3.8,2-2.7a2.4,2.4,0,0,1,1.1,2.1c-.2,1.8-.5,4.2-.8,6A152.4,152.4,0,0,0,32.9,78v3.1c0,1.8-.4,4.3,2,4.7s2.8-2,3.1-3.8.7-6,.9-9c.5-5.2,1.8-11.2,2-16.4,0-.5.3-1.4,1-1.2s.9.3.9.8c-.1,5.4-1.1,11.5-1,16.9s-.1,8-.2,12a5.7,5.7,0,0,0,.3,2.9,2.8,2.8,0,0,0,2.3,1.3c2.4.2,3.2-1.7,3.2-3.8.3-5.8,1.3-12.2,1.7-18l.2-6c.2-1-.2-5.5,1.8-4.4s.5,2.6.7,3.8q.6,10.5,1.5,21a13.5,13.5,0,0,0,.5,2.9c.5,1.5,1.9,2.3,3.3,1.3s1.4-2.6,1.7-3.9a40.5,40.5,0,0,0,.5-6c.4-7.9.6-16.1.4-24,0-1.2-.4-2.6.1-3.8s3.8-10.3,5.2-5.9a90.3,90.3,0,0,1,3.6,9.9,10.2,10.2,0,0,0,5.9,6.3c1.6.5,4.6.6,4.7-1.6a5.3,5.3,0,0,0-1.3-2.6c-1.1-1.7-1.5-3.7-2.2-5.6a94.1,94.1,0,0,1-3-11.6,13,13,0,0,0-2.3-5.4,75.6,75.6,0,0,0-7.4-9.5c-1.4-1.5-3.2-2.6-4.1-4.4a12.4,12.4,0,0,1-.9-6"/><path class="c" d="M74.2,54.5c-.2.3-.1.6-.1.9h0c.1-.3,0-.6.1-.9"/><path class="a" d="M38.2,66.4c-.4-1.1-2.9-1.1-3.4-.2h0a2.6,2.6,0,0,1,3.4.1"/><path class="a" d="M36.6,66.6a1.1,1.1,0,0,0-1.2-.2h0a1.6,1.6,0,0,1,1.2.1h0"/><path class="a" d="M35.2,67.4h0"/><path class="a" d="M37.7,67.8c-.2-.3-.7-.1-1-.3s-1.1-.8-1.6-.4.3.2.4.3.9.4,1.5.4h.7s.1-.1,0-.1"/><path class="a" d="M28.9,67.5H29c-.4-.8-1.7-.3-2.4-.8a.1.1,0,0,0-.1.1c.5.6,1.2.3,1.8.5s.4.2.6.3v-.2c-.1.1-.1.3,0,.2"/><path class="a" d="M28,68h-.1a1.1,1.1,0,0,0-.8-.2c-.2.2.6.4.8.3H28"/><path class="a" d="M37.4,77.1c-.2-.5-.9-.7-1.3-.8s-.9.3-1.4.3h-.4c-.3.2.4.5.6.4l.9-.4a1.2,1.2,0,0,1,.8.1c.3.1.6.2.7.5h.1"/><path class="a" d="M36.3,77.5c-.4.5-1.2.1-1.6-.1h-.1c0,.2.2.3.3.4a1.7,1.7,0,0,0,1.2.1c.1-.1.3-.2.3-.3h-.1"/><path class="a" d="M46.4,80.8c-.3-.2-.7.1-1,.2a3.9,3.9,0,0,1-1.5-.2h0a2.5,2.5,0,0,0,1.5.3l.9-.3a.1.1,0,0,0,.1-.1"/><path class="a" d="M45.3,80.1s0-.2-.1-.2-1.2-.6-1.9-.3.4.2.5.2.9.3,1.4.3h0c0,.1.1.1.1,0"/><path class="a" d="M44.9,80.5h-.3c-.2-.1-.4.1-.1.2h.4"/><path class="a" d="M57,78.8c.1,0,.1-.1,0-.1h0"/><path class="a" d="M57.1,78.7a3.2,3.2,0,0,0-2.7.3h.1c.8,0,1.7-.6,2.5-.2h.1"/><path class="a" d="M57,77.9a.1.1,0,0,0-.1-.1H57c-.2-.2-.7-.2-.8,0h.7c.1,0,.3,0,.1-.1"/><path class="a" d="M55.1,79.4h-.2c-.1,0-.6.1-.4.2h.6"/></svg>