<svg xmlns="http://www.w3.org/2000/svg" viewBox="0 0 100 100"><defs><style>.a{fill:#231f20;}.b{fill:none;stroke:#231f20;stroke-miterlimit:10;stroke-width:0.25px;}.c{fill:#818285;}</style></defs><path class="a" d="M49.1,63.9a.6.6,0,0,1,0-.8.1.1,0,0,0,.1-.1h1c0,.1-.1,0,0,0s0,.1.1.1h0c0,.1,0,.2.1.2h0c0,.2-.1.4-.1.6h0a.8.8,0,0,0,.3-.7c.2-.6-.7-.8-1.2-.6s-.8.6-.6,1,.3.5.3.4"/><path class="a" d="M48.8,65.6c-.2.2.1.7.3.9s1.7,0,1.7-1h-.1a5.6,5.6,0,0,1-.5.8h-1a1,1,0,0,1-.4-.7h0"/><path class="a" d="M56.2,42.5c4.8-4.5,11.4-6.7,17-10C67.9,36.3,61.4,38.5,56.2,42.5Z"/><path class="b" d="M41.5,40.8c2.5-1.9,11.5-2.9,17.1-.3"/><path class="a" d="M70,67.2c-2.9,4.5-20.1,8.5-20.2.2.3,3.3,3.6,4.6,6.5,4.4,4.8-.2,10.3-1.1,13.7-4.6"/><path class="a" d="M56.4,62.2c3.9,5.2,12.6,3.5,17.8,1.2-4.9,3-14.4,4.5-17.8-1.2"/><path class="a" d="M57.7,42.5h0"/><path class="c" d="M50.1,65.8a.6.6,0,0,1-.7-.1,6.9,6.9,0,0,1,.1-2.1c.2.2.5.1.5.2a6.2,6.2,0,0,1,.1,2"/><path class="a" d="M65.3,70.3c3.6-.6,5.4-4.1,7.9-6.2,0-.1-.1-.3-.2-.2s-2.4,2.2-3.4,3.3-2.8,2.2-4.3,3.1h0"/><path class="a" d="M70.3,65.2a33.1,33.1,0,0,0,10.2-5.3c.1,0,0-.2-.1-.1a91,91,0,0,1-8.1,4.4c-.6.4-1.5.5-2,1"/><path class="a" d="M43.4,42.5c-5.2-4-11.6-6.2-16.9-10C32.1,35.8,38.6,38,43.4,42.5Z"/><path class="a" d="M29.6,67.2c3.5,3.5,8.9,4.4,13.7,4.6,2.9.2,6.2-1.1,6.5-4.4-.1,8.3-17.2,4.4-20.2-.2"/><path class="a" d="M43.2,62.2c-3.4,5.7-12.9,4.2-17.8,1.2,5.2,2.3,13.9,4,17.8-1.2"/><path class="a" d="M34.3,70.3a14.3,14.3,0,0,1-4.2-3.1c-1.1-1.1-2-2.8-3.5-3.3s-.2.1-.1.2c2.4,2,4.5,5.9,7.8,6.2"/><path class="a" d="M29.3,65.2a101.9,101.9,0,0,1-10.1-5.4c-.1-.1-.2.1-.1.1a33.1,33.1,0,0,0,10.2,5.3"/></svg>