<?xml version="1.0" encoding="UTF-8"?><svg id="a" xmlns="http://www.w3.org/2000/svg" viewBox="0 0 52.09 31.07"><defs><style>.b,.c{fill:#58595b;}.d{fill:#f1f1f2;stroke:#231f20;stroke-width:2px;}.d,.c{stroke-miterlimit:10;}.c{stroke:#fff;}</style></defs><polygon class="c" points="29.61 23.21 12.08 1.42 12.14 20.5 1.3 29.85 26.82 30.56 29.61 23.21"/><polygon class="d" points="25.69 17.07 25.69 21.22 45.18 15.99 25.69 10.77 25.69 14.91 14.03 14.91 14.03 17.07 25.69 17.07"/><path class="b" d="M47.32,1.42c-2.64,0-4.77,2.13-4.77,4.77,0,3.58,4.77,8.86,4.77,8.86,0,0,4.77-5.28,4.77-8.86,0-2.64-2.13-4.77-4.77-4.77Zm0,6.47c-.94,0-1.7-.76-1.7-1.7s.76-1.7,1.7-1.7,1.7,.76,1.7,1.7-.76,1.7-1.7,1.7Z"/></svg>