<?xml version="1.0" encoding="utf-8"?>
<!-- Generator: Adobe Illustrator 25.4.1, SVG Export Plug-In . SVG Version: 6.00 Build 0)  -->
<svg version="1.1" id="Layer_1" xmlns="http://www.w3.org/2000/svg" xmlns:xlink="http://www.w3.org/1999/xlink" x="0px" y="0px"
	 viewBox="0 0 1000 1000" style="enable-background:new 0 0 1000 1000;" xml:space="preserve">
<g>
	<g transform="translate(0.000000,511.000000) scale(0.100000,-0.100000)">
		<path d="M4598.9,4979.4c-350.6-63.2-670.8-196-984.4-405.1c-235.2-156.8-640.3-568.4-810.2-825.4
			c-1149.9-1735.8-681.7-4281.7,967-5244.3c84.9-47.9,220-115.4,300.5-148.1c130.7-54.4,148.1-67.5,137.2-108.9
			c-24-93.7-143.7-827.6-191.7-1173.9c-32.7-239.6-47.9-463.9-47.9-718.7l-2.2-370.2l78.4-163.3c98-202.5,209.1-331,376.8-439.9
			c352.8-228.7,805.8-228.7,1158.6,0c167.7,108.9,278.8,237.4,376.8,439.9c74,154.6,78.4,178.6,84.9,413.8
			c10.9,291.8-47.9,821.1-161.2,1511.4c-41.4,250.5-80.6,477-87.1,503.1c-8.7,39.2,10.9,54.5,165.5,117.6
			c394.2,163.3,899.4,575,1163,943C7563-66.7,7793.8,630.2,7826.5,1429.5c32.7,849.4-182.9,1644.3-629.4,2319.4
			c-167.7,252.6-572.8,668.6-801.4,821.1c-450.8,300.5-910.4,444.3-1413.4,439.9C4855.9,5009.9,4683.8,4994.7,4598.9,4979.4z
			 M5306.7,4652.7c914.7-137.2,1696.6-895.1,2029.8-1966.6C7719.8,1451.3,7404,26.9,6559-813.7c-302.7-300.5-666.5-518.3-1019.3-612
			c-130.7-34.8-145.9-45.7-135-84.9c30.5-113.3,165.5-890.8,215.6-1241.4c115.4-838.5,124.1-1088.9,39.2-1278.4
			c-61-141.6-204.7-289.7-350.6-359.4c-104.6-52.3-148.1-61-307.1-61s-202.5,8.7-307.1,61c-145.9,69.7-289.7,217.8-350.6,359.4
			c-84.9,189.5-76.2,439.9,39.2,1278.4c50.1,350.6,185.1,1128.1,215.6,1241.4c10.9,39.2-4.4,50.1-135,84.9
			C3832.3-1260.2,3235.6-731,2882.7-27.5c-496.6,988.8-503.1,2223.6-15.2,3214.6c396.4,805.8,1067.2,1350.3,1807.6,1465.7
			C4923.4,4691.9,5058.4,4691.9,5306.7,4652.7z"/>
		<path d="M4683.8,4393.6c-209.1-39.2-291.8-69.7-498.7-172c-1176-583.8-1735.8-2276-1241.4-3750.4
			c82.8-243.9,276.6-616.3,424.7-812.3c409.4-551,951.7-864.6,1535.4-890.8c572.8-28.3,1086.8,189.5,1515.8,642.5
			c215.6,224.3,350.6,420.3,487.8,703.5c581.5,1193.5,383.3,2728.9-468.2,3641.4c-84.9,91.5-220,213.4-302.7,274.4
			c-180.8,135-507.5,294-699.1,339.8C5237,4417.5,4871.1,4430.6,4683.8,4393.6z M5361.2,4040.7c400.7-98,794.9-392,1067.2-801.5
			c318-479.1,470.4-1012.7,470.4-1646.5c0-520.5-91.5-925.6-307.1-1361.2C6201.8-556.7,5515.8-990.2,4812.3-892.1
			C3984.7-776.7,3327-5.8,3137.5,1070.1c-41.4,243.9-43.6,757.9,0,1023.6c152.5,951.8,697,1687.9,1422.2,1925.3
			C4799.3,4097.4,5091.1,4106.1,5361.2,4040.7z"/>
		<path d="M4705.4,3150c-115.4-113.3-122-104.6,755.7-986.6c446.5-446.5,834.1-816.8,858.1-823.3c63.1-15.2,176.4,43.6,193.8,102.4
			c8.7,24,8.7,65.4,2.2,91.5c-6.5,26.2-376.7,413.8-823.2,860.3C4810,3272,4818.7,3265.4,4705.4,3150z"/>
		<path d="M5764.4,3043.4c-78.4-34.8-113.3-104.5-91.5-193.8c8.7-26.2,154.7-187.3,326.7-359.4c285.3-283.2,320.1-309.3,392-309.3
			c58.8,0,89.3,15.2,122,56.6c87.1,111.1,67.5,145.9-243.9,461.7c-156.8,161.1-318,311.4-352.8,333.2
			C5838.5,3082.5,5855.9,3080.3,5764.4,3043.4z"/>
	</g>
</g>
</svg>
