<svg xmlns="http://www.w3.org/2000/svg" xmlns:xlink="http://www.w3.org/1999/xlink" viewBox="0 0 600 600"><defs><style>.a,.d,.f,.g{fill:none;}.b{opacity:0.3;}.c{fill:#231f20;}.d,.g{stroke:#231f20;}.d,.f,.g{stroke-miterlimit:10;}.d{stroke-width:3.31px;}.e{clip-path:url(#a);}.f{stroke:#bdbec0;stroke-width:1.84px;}.f,.h{opacity:0.1;}.g{stroke-width:2px;}.i{fill:#010101;}.j{fill:#bdbec0;}.k{fill:#bebdbf;}.l,.o{fill:#fff;}.m{fill:#c6c5c6;}.n{opacity:0.05;}.o{opacity:0.56;}</style><clipPath id="a"><path class="a" d="M390.66,473.38"/></clipPath></defs><g class="b"><path class="c" d="M427.16,477c-6.69,33.44-6.27,67.92-1.16,101.56-9.58-32.71-9.93-69.19,1.16-101.56"/><path class="d" d="M155.63,586.36c13.48-35.49,3.55-81.61-5-122"/><g class="e"><path class="f" d="M370.73,430.58c4,6.39,6.95,10.81,9.72,18.64,2.64,7.47,8.89,15.62,9.28,24.11"/></g><path class="g" d="M190.33,71.31c-51.73,37.29-62.78,83.52-71.92,142.35"/><path class="c" d="M125.77,312.69c-6.5-29.63-11-60.09-8.94-90.56,1.3-22.86,6.83-45.15,13.16-67C156.82,62.14,240.6,33.47,329.64,40.86,410.75,48.24,469,111,479.79,190.31c4.47,38.22-4.63,76-14,112.61-6.94,52.35-3.85,107.62-26.57,156.61a287.27,287.27,0,0,1-35.4,58.68c-13.82,18.23-29.07,36.11-49.3,47.62C289,602.45,213.63,567.24,175,508.66c-50.8-74.75-38.7-113.72-49.2-196m2.25-.5c4.55,29.61,4.94,61.07,8.31,90.75,5.86,56.65,41.33,119.55,88.84,151.48,36.71,25.7,88.08,30.89,127.4,8.1,12.94-7.46,24.06-17.74,33.85-29.12,19.58-22.91,37.45-47.59,49.86-75.16,23.09-48.6,19.6-103.62,26.74-155.79,9.41-36.43,18.55-74.1,14.17-111.83-10.58-78.2-67.81-140-147.81-147.41C155.65,27,93.13,158.52,128,312.19"/></g><g class="h"><path class="i" d="M323,288.27c-6.18,9.48-11.23,21-10.81,32.9.09,9,2.32,17.93,1.27,27-.36,3-1,5.93-1.45,8.9.44-6,1.16-11.89.47-17.88s-1.71-11.86-1.81-18c-.34-12.11,5.06-24.1,12.33-32.94"/><path class="i" d="M314.08,342.89c2,12.85,2.64,26.44,7.62,38.38,5.5,9.12,14.68,17.87,12.4,30-1.48,8.19-9.4,15.68-17.14,12.51,11.67,1.5,19.52-13.31,14.74-24.43-2.38-6.66-7.85-11.28-11.34-17.26-5.18-12.18-5.53-26.07-6.28-39.24"/><path class="i" d="M317.12,415.5c-11-17.37-16.17,19.73-25.49,3.82-7.19-16.84-21.07-4.28-14.12,3.89,3.51,2,7.11-1.16,10.41-.75,5.17,4.3,13.19,3.21,18.23-.77,2.56-.73,5.34,2.28,7.87,1.91C318,424.15,318.84,418.32,317.12,415.5Z"/><path class="i" d="M268.32,287.6l-.22-.36c0-.15.08,0,.09,0,20.79,31.83,7.77,37.06,11.12,69.12-3.16-12-.76-24.07-.39-36.18.48-11.78-6.19-22.84-10.78-33Z"/><path class="i" d="M276.92,350c-1.15,11-1.7,22.88-7.12,32.56C266,388.6,260.27,393.5,259,401c-1.64,8.32,2.35,19.44,10.47,21.39,1.55.44,3.08-.15,4.94.73-3.2,2.31-7.28.72-10.24-1.35-5.6-4.83-8-13.59-6.34-21.09,1.51-7.69,7.47-12.59,11.47-18.59,5.52-9.43,6.3-21.28,7.63-32.17"/><path class="j" d="M306.36,355.71c.74,7.54,2.25,14.7,6.15,20.9,3.36,6.7,7.25,14.06,6.12,22.06-1.06,5.07-4.44,10-9.13,11.22,11.9-8,6.14-21.42.77-31.9-3.78-6.59-4.94-14.76-3.91-22.28"/><path class="j" d="M288.31,354.27c1,7.52-.12,15.7-3.91,22.28-5.36,10.48-11.12,23.93.77,31.9-4.69-1.22-8.06-6.15-9.13-11.22-1.12-8,2.76-15.36,6.13-22.06,3.89-6.2,5.4-13.36,6.14-20.9"/><path class="i" d="M238.56,469.9C250.64,465,261.93,455.55,275.4,455c5.44.38,10.57,2.26,15.46,4.45,3.47,1.55,7.31,2.55,11,1.51,5.55-2,10.8-5.37,16.72-6.45,14.08.09,26.57,9.92,38,16.93-11.81-5.07-23.05-13.52-36-15.31-6.48-.12-12.35,4.18-18.35,6.27-9.48,2.55-17.75-5.18-27-5.65-13,.28-24.66,9.14-36.72,13.14"/><path class="i" d="M368.05,469.73l-.08.07c-.11,0,0,.14,0,.16s0-.09-.05-.13c-.21,1.32-1,2.55-.72,3.91a3.86,3.86,0,0,0,2.29,2.72.07.07,0,0,0,.08-.1c-.21-.38-.6-.62-.79-1-.5-1.21.17-2.63-.37-3.83,0,.09.05.17.07.26-.11-.44-.08-2-.51-2l-.08.05.1.06c0-.06.06-.05.07-.12s0-.05-.05,0"/><path class="i" d="M224.64,468.32a8.77,8.77,0,0,1-.41,1.5,12.41,12.41,0,0,0-1.5,3.73c0,.24-.65,1-.37,1,1.63-.92,3.13-2.69,2.61-4.65-.08-.52-.06-1.09-.18-1.61a.08.08,0,0,0-.15,0"/><path class="i" d="M246.13,481.1c2.5,4,7.18,6.09,11.1,8.5,4.15,2.25,8.23,4.66,12.71,5.93a110.3,110.3,0,0,0,27.8,4c9.35.27,18.94-.09,27.77-3a101.61,101.61,0,0,0,18.59-10c1.8-1.42,3.9-2.88,4.64-5.16a7.16,7.16,0,0,1-1.74,3.09c-5.9,5.93-13.47,9.84-21,13.43-9,3.4-18.81,3.65-28.34,3.57-9.52-.43-19.11-1.47-28.19-4.52-6.73-2.44-12.85-6.4-18.59-10.62-1.82-1.47-3.83-3-4.77-5.22"/><path class="i" d="M224.9,469.57a54.05,54.05,0,0,0,17.9,3.74c10.77-.58,21.11-6.06,32.06-5.48,6.34.77,10.88,6.09,16.89,7.41,7.5,1.41,15.29.82,21.72-3.64,2-1.2,4.25-2.54,6.7-2.67,10.26-.56,19.33,6.35,29.5,5.9a77.56,77.56,0,0,0,18.2-2.46l.48,1.9c-7.86,1-15.53,2-23.37,1.2-10.1-1.09-21.23-9.47-30.75-2.61-6.56,4.72-15,5.57-22.78,3.92-6.18-1.36-10.54-6.75-16.78-7.67-10.85-.64-21,4.57-31.86,5a69.79,69.79,0,0,1-18.43-3.24Z"/><path class="j" d="M291.85,436.1c-1.37,6.55-5,13.89-2.45,20.58.59,1.23,2.38,3.17,3.84,2,.6-1-1.12-1.46-1.55-2.13-2.44-4.83.07-10.59.17-15.73-.05-1.43.85-3.59,0-4.68"/><path class="j" d="M302.86,436.12c-.44,1.32.14,3.22.33,4.55.35,2.39.74,4.78,1.06,7.18.43,3.56,1.23,8.48-2.62,10.32a.2.2,0,0,0,0,.3c1.18.6,2.47-.55,3.05-1.48,2.78-6.63-.76-14.34-1.86-20.87"/><path class="i" d="M259.39,316.16c-.07,0-.24.11-.32.2-.85.91-2.59,1-4,.95a25.37,25.37,0,0,0-7.3.8c-5.28,1.32-10.67,3.74-16.22,4.75a58.94,58.94,0,0,1-27.48-.44c-6.76-1.79-13.89-5.18-17.86-10.82-1.38-1.94-2.21-3.86-1.89-1.74a9.75,9.75,0,0,0,.52,1.65l.31.71c6.56,12.49,25.75,16.31,38.88,14.93a66.44,66.44,0,0,0,11.93-2.34c6-1.76,11.34-4.81,17.16-5.74.35-.06.69-.09,1-.14a10.27,10.27,0,0,0,4.23-1.05,3.42,3.42,0,0,0,.51-.39,2.37,2.37,0,0,0,.33-.41,1.78,1.78,0,0,0,.25-.52C259.45,316.43,259.47,316.17,259.39,316.16Z"/><path class="k" d="M237.51,305.33a19,19,0,0,1-19,19c-16,.08-24.76-18.88-14.66-31,9.9-4.51,21.46-2.82,30.86,2.16A18.84,18.84,0,0,1,237.51,305.33Z"/><path class="i" d="M218.54,324.91c-16.48,0-25.62-19.52-15-32.11,10.23-4.63,21.73-3.05,31.67,2.2C243.33,307.71,233.66,325.11,218.54,324.91ZM204.26,293.8c-9.67,11.78-1,30,14.28,29.89,14,.18,23.12-15.83,15.77-27.76C224.83,291,214,289.51,204.26,293.8Z"/><path class="i" d="M226.23,305.44a8,8,0,0,1-8,8c-10.61-.42-10.61-15.59,0-16A8,8,0,0,1,226.23,305.44Z"/><path class="l" d="M215.53,311.53a3.44,3.44,0,0,1-6.88,0A3.44,3.44,0,0,1,215.53,311.53Z"/><path class="l" d="M235.24,297.44c-1.08,4.87-9.5,7.52-13.76,9.05a.9.9,0,0,1-1.17-.8,28.34,28.34,0,0,1,.34-6.36,21.18,21.18,0,0,1,2.77-8A45.43,45.43,0,0,1,234,295.09C234.44,295.84,234.83,296.63,235.24,297.44Z"/><path class="i" d="M180.17,309.35c0,.13.32.3.5.37l.31.1.13,0a4.18,4.18,0,0,0,1.28.06c2-.19,4-1.51,5.63-2.78,3.4-2.6,6.16-5.67,9.81-8.26l.76-.51.78-.49c.55-.31,1.11-.64,1.69-.94a40.12,40.12,0,0,1,21.12-4.64c6,.6,11.55,3.23,16.69,6.2,4.39,2.54,7.85,6.39,11.49,9.5a37.52,37.52,0,0,0,4.82,3.55c1.61,1,3.49,1.7,3.75,3.64a2.4,2.4,0,0,1-.35,1.58c-.18.27-.13.37.21.25,1.17-.64,1.36-2.38.75-3.67s-2.13-2.34-3.37-3.26a42.93,42.93,0,0,1-4.31-3.73c-3.72-3.64-6.8-7.42-11.49-10.34-5.44-3.36-11.39-6.2-17.88-6.85-.43-.06-.87-.07-1.3-.1-.65-.05-1.3,0-1.95,0s-1.27,0-1.9.1A42.32,42.32,0,0,0,198,295.58l-.86.59-.81.6a76.44,76.44,0,0,0-7.46,7.12c-2,1.95-4,4.19-6.61,5.1a4.84,4.84,0,0,1-.57.15c-.22.05-.4.06-.6.09h-.29C180.57,309.27,180.23,309.23,180.17,309.35Z"/><path class="i" d="M261.82,304.44c-3.46-7.16-8.32-14.39-15.26-19.29l-1.43-.92c-.66-.4-1.34-.77-2-1.14-11.88-6-26.62-6.18-39.07-1.36a59.37,59.37,0,0,0-7.54,3.48c-1.22.68-2.45,1.4-3.61,2.16-6.25,4.09-11.86,9.05-17.81,13-1.29.94-5.82,3.51-5.59,3.49a20.39,20.39,0,0,0,3-1.37c.95-.51,1.9-1.06,2.86-1.64,6.09-3.68,11.79-8.56,18.07-12.56,1.14-.73,2.36-1.42,3.57-2.08a59.2,59.2,0,0,1,7.42-3.36c12.17-4.64,26.53-4.49,38.19,1.21.66.36,1.33.7,2,1.08L246,286C253.06,290.61,257.46,297.94,261.82,304.44Z"/><path class="i" d="M185.7,338.14c6.11,2.81,14.84,3.39,22.79,2.95,13.47-.91,29.54-5.49,40.75-12.91.54-.39,1.11-.79,1.63-1.19l1.41-1.14c.49-.45,1-.9,1.47-1.34s1-1,1.4-1.49a8.78,8.78,0,0,0,1-1.37,8,8,0,0,0-1.28,1.13c-.47.45-1,.88-1.49,1.34s-1,.82-1.52,1.24l-1.44,1.05c-.53.37-1.1.74-1.64,1.11-7.29,4.63-17.13,8-26,10.18C210.65,340.76,196.81,341.1,185.7,338.14Z"/><path class="m" d="M191.88,358.81a26.69,26.69,0,0,0,5.18.16,80.81,80.81,0,0,0,26.34-5.8,88.28,88.28,0,0,0,18.8-10.41,80.48,80.48,0,0,0,18.9-19.24,26.64,26.64,0,0,0,2.62-4.47s-.25.2-.6.64a95.61,95.61,0,0,1-21.77,21.89,93.3,93.3,0,0,1-18.5,10.24,91.27,91.27,0,0,1-21.29,5.86C198.38,358.25,194.9,358.29,191.88,358.81Z"/><path class="i" d="M251.29,307.5c-.12.67.39,1.85.32,2.74-.13,2.48-2.29,4.85-3.44,6.91-.63,1-1.06,1.52-1,1.61s.69-.34,1.47-1.22c1.38-1.73,3.12-3.92,3.63-6.16A5,5,0,0,0,251.29,307.5Z"/><path class="i" d="M333.79,316.16c.06,0,.24.11.32.2.85.91,2.59,1,4.05.95a25.45,25.45,0,0,1,7.3.8c5.27,1.32,10.67,3.74,16.22,4.75a58.94,58.94,0,0,0,27.48-.44c6.76-1.79,13.88-5.18,17.86-10.82,1.37-1.94,2.21-3.86,1.88-1.74a8.92,8.92,0,0,1-.52,1.65l-.3.71c-6.56,12.49-25.76,16.31-38.88,14.93a66.44,66.44,0,0,1-11.93-2.34c-6-1.76-11.35-4.81-17.17-5.74-.34-.06-.69-.09-1-.14a10.27,10.27,0,0,1-4.22-1.05,3,3,0,0,1-.51-.39,2.05,2.05,0,0,1-.34-.41,1.75,1.75,0,0,1-.24-.52C333.73,316.43,333.71,316.17,333.79,316.16Z"/><path class="k" d="M355.67,305.33a19,19,0,0,0,19,19c15.95.08,24.76-18.88,14.65-31-9.9-4.51-21.45-2.82-30.85,2.16A18.84,18.84,0,0,0,355.67,305.33Z"/><path class="i" d="M358,295c9.94-5.25,21.44-6.83,31.66-2.2,10.59,12.59,1.45,32.16-15,32.11C359.52,325.11,349.85,307.71,358,295Zm.86.93c-7.35,11.93,1.73,27.94,15.77,27.76,15.27.11,23.95-18.11,14.27-29.89C379.18,289.51,368.35,291,358.87,295.93Z"/><path class="i" d="M367,305.44a8,8,0,0,0,8,8c10.62-.42,10.61-15.59,0-16A8,8,0,0,0,367,305.44Z"/><path class="l" d="M377.64,311.53a3.45,3.45,0,0,0,6.89,0A3.45,3.45,0,0,0,377.64,311.53Z"/><path class="l" d="M357.94,297.44c1.08,4.87,9.5,7.52,13.76,9.05a.91.91,0,0,0,1.17-.8,28.34,28.34,0,0,0-.34-6.36,21.36,21.36,0,0,0-2.77-8,45.43,45.43,0,0,0-10.58,3.72C358.74,295.84,358.34,296.63,357.94,297.44Z"/><path class="i" d="M413,309.35c0,.13-.32.3-.49.37l-.32.1-.12,0a4.19,4.19,0,0,1-1.28.06c-2-.19-4-1.51-5.63-2.78-3.41-2.6-6.16-5.67-9.81-8.26l-.76-.51-.79-.49c-.55-.31-1.1-.64-1.68-.94A40.12,40.12,0,0,0,371,292.29c-6,.6-11.55,3.23-16.69,6.2-4.39,2.54-7.85,6.39-11.49,9.5a36.89,36.89,0,0,1-4.83,3.55c-1.6,1-3.48,1.7-3.74,3.64a2.4,2.4,0,0,0,.35,1.58c.18.27.13.37-.21.25-1.18-.64-1.37-2.38-.75-3.67s2.13-2.34,3.37-3.26a44.06,44.06,0,0,0,4.31-3.73c3.71-3.64,6.8-7.42,11.48-10.34,5.45-3.36,11.39-6.2,17.89-6.85.43-.06.87-.07,1.3-.1.65-.05,1.3,0,1.95,0s1.27,0,1.9.1a42.32,42.32,0,0,1,19.39,6.46l.85.59.81.6a76.56,76.56,0,0,1,7.47,7.12c2,1.95,4,4.19,6.6,5.1a5.55,5.55,0,0,0,.58.15c.22.05.4.06.6.09h.29C412.61,309.27,413,309.23,413,309.35Z"/><path class="i" d="M331.36,304.44c3.46-7.16,8.32-14.39,15.25-19.29l1.43-.92c.67-.4,1.35-.77,2-1.14,11.88-6,26.63-6.18,39.08-1.36a60.68,60.68,0,0,1,7.54,3.48c1.21.68,2.45,1.4,3.61,2.16,6.25,4.09,11.86,9.05,17.81,13,1.28.94,5.81,3.51,5.58,3.49a20.79,20.79,0,0,1-3-1.37c-1-.51-1.9-1.06-2.86-1.64-6.09-3.68-11.79-8.56-18.07-12.56-1.15-.73-2.37-1.42-3.57-2.08a59.86,59.86,0,0,0-7.42-3.36c-12.18-4.64-26.53-4.49-38.19,1.21-.67.36-1.33.7-2,1.08l-1.39.87C340.12,290.61,335.72,297.94,331.36,304.44Z"/><path class="i" d="M407.48,338.14c-6.11,2.81-14.84,3.39-22.8,2.95-13.46-.91-29.53-5.49-40.74-12.91-.54-.39-1.11-.79-1.63-1.19l-1.41-1.14c-.5-.45-1-.9-1.47-1.34s-1-1-1.4-1.49a7.65,7.65,0,0,1-1-1.37,7.62,7.62,0,0,1,1.27,1.13c.48.45,1,.88,1.5,1.34s1,.82,1.52,1.24l1.43,1.05c.53.37,1.11.74,1.65,1.11,7.28,4.63,17.13,8,26,10.18C382.52,340.76,396.37,341.1,407.48,338.14Z"/><path class="m" d="M401.29,358.81a26.66,26.66,0,0,1-5.18.16,80.75,80.75,0,0,1-26.33-5.8A88.35,88.35,0,0,1,351,342.76a80.86,80.86,0,0,1-18.9-19.24,28.07,28.07,0,0,1-2.62-4.47c.05,0,.26.2.61.64a95.57,95.57,0,0,0,21.76,21.89,93.58,93.58,0,0,0,18.5,10.24,91.48,91.48,0,0,0,21.3,5.86C394.8,358.25,398.28,358.29,401.29,358.81Z"/><path class="i" d="M341.89,307.5c.12.67-.39,1.85-.32,2.74.13,2.48,2.29,4.85,3.44,6.91.63,1,1.06,1.52,1,1.61s-.69-.34-1.48-1.22c-1.37-1.73-3.12-3.92-3.62-6.16A5,5,0,0,1,341.89,307.5Z"/><path class="m" d="M240.93,325.57c.87-.27,1-2.33.78-3.1s-.53-.67-.64,0-.25,1.83-.28,2.47C240.78,325.3,240.81,325.53,240.93,325.57Z"/><path class="m" d="M243.44,324.44c.57.12,1-2.64.45-2.71S242.86,324.37,243.44,324.44Z"/><path class="m" d="M245.82,323.09c.32-.15.31-.64.35-1s.05-.85-.25-1C245.12,321,245,323.06,245.82,323.09Z"/><path class="m" d="M239.32,325.11c.76.1,1-1.73.22-1.81-.32.1-.38.54-.43.87S239,324.94,239.32,325.11Z"/><path class="m" d="M236.6,327.59c.88-.29,1.08-3.68.24-4.07-.25,0-.3,1-.37,2S236.36,327.52,236.6,327.59Z"/><path class="m" d="M234.14,327.59c.58.05.62-3.19,0-3.16S233.56,327.62,234.14,327.59Z"/><path class="m" d="M232.1,329c.92-.36,1.14-4.06.27-4.53-.25,0-.28,1.05-.36,2.25S231.85,328.88,232.1,329Z"/><path class="m" d="M229.39,329.85c.24,0,.48-1.13.35-2.54s-.6-2.48-.84-2.42C228.47,324.87,229,330,229.39,329.85Z"/><path class="m" d="M186.67,307c-.34.39-1,.1-1.48.1a26.27,26.27,0,0,1-4-.73c-3.09-.8-5.33-2.2-5.48-2,1.63,2.13,6.52,3.54,9.48,3.34a5.13,5.13,0,0,0,.73-.06,1.34,1.34,0,0,0,.6-.16C186.71,307.4,186.87,307.06,186.67,307Z"/><path class="m" d="M188.72,305.56c-.22-.25-2.5-.33-3.22-.54a19.59,19.59,0,0,1-3.9-1.21c-.7-.23-2.64-1.47-3-1.39-.08.09.31.58,1.11,1.19a10.9,10.9,0,0,0,1.5.95,12.67,12.67,0,0,0,4.12,1.28,10.45,10.45,0,0,0,1.76.07C188.13,305.86,188.73,305.68,188.72,305.56Z"/><path class="m" d="M188.89,304.4c0-.26-1.71-.7-3.67-1.68s-3.41-2.06-3.58-1.87c.22.94,2.13,2.16,3.18,2.68S188,304.81,188.89,304.4Z"/><path class="m" d="M182.56,299.58c-.09,0,.09.42.18.57a1.67,1.67,0,0,0,.13.2,3.37,3.37,0,0,0,.36.45l.23.25c.08.09.18.16.27.25s.42.32.65.49a7,7,0,0,0,3.53,1.09c.29,0,.56,0,.81,0l.37,0,.33-.08a3.26,3.26,0,0,0,.55-.17l.22-.09c.65-.32.61-.51-.11-.41-.25,0-.47,0-.76,0s-.42,0-.63,0-.48,0-.73,0a8.69,8.69,0,0,1-3.15-1c-.22-.13-.44-.25-.63-.38s-.35-.24-.52-.36-.39-.32-.6-.47S182.62,299.51,182.56,299.58Z"/><path class="m" d="M184.26,296.81c-.09,0,.13.44.24.6a7.84,7.84,0,0,0,1.79,1.8,9.9,9.9,0,0,0,3.71,1.6,7.77,7.77,0,0,0,2.54.09c1.21-.26.39-.39-.84-.57a14.11,14.11,0,0,1-1.51-.33,13.81,13.81,0,0,1-3.44-1.48C186.12,298.22,184.57,296.79,184.26,296.81Z"/><path class="m" d="M187.91,295c-.1.06,0,.53.46,1.18a6.21,6.21,0,0,0,.88,1.05,7.56,7.56,0,0,0,2.89,1.67,6.38,6.38,0,0,0,1.35.24c.78,0,1.25-.08,1.25-.19-.14-.26-1.81-.56-2.33-.84a10.88,10.88,0,0,1-2.62-1.51C189.3,296.26,188.2,295,187.91,295Z"/><path class="m" d="M190.3,292.53c-.1.05,0,.55.33,1.27a6.52,6.52,0,0,0,.78,1.18,7.71,7.71,0,0,0,2.78,2.08,6,6,0,0,0,1.35.41c.8.15,1.3.07,1.31,0s-1.26-.58-1.68-.81l-.62-.31a10.83,10.83,0,0,1-2.52-1.88c-.17-.18-.33-.34-.47-.51C191.22,293.58,190.43,292.41,190.3,292.53Z"/><path class="m" d="M194,290.42c-.16,1.56,1.89,4.43,3.07,5.52,2.11,1.77.36-.59-.94-2.54C195,291.75,194.22,290.33,194,290.42Z"/><path class="m" d="M196.31,288.11c-.12,0-.14.48,0,1.19a6.09,6.09,0,0,0,.47,1.2,7.41,7.41,0,0,0,2,2.41,5.92,5.92,0,0,0,1.09.67c.67.31,1.12.37,1.17.26,0-.29-1.37-1.14-1.73-1.56a11.9,11.9,0,0,1-1.82-2.19C197.19,289.66,196.59,288.16,196.31,288.11Z"/><path class="m" d="M205.91,285.08c-.4,1.47,1.16,4.51,2.13,5.71,1.78,2,.45-.52-.51-2.56C206.72,286.49,206.16,285,205.91,285.08Z"/><path class="m" d="M208.56,285.27c-.57.17,2.53,5.89,3,5.51C212.1,290.61,209,284.89,208.56,285.27Z"/><path class="m" d="M211.75,284.91c-.58,0,.76,5.53,1.3,5.3C213.64,290.17,212.29,284.68,211.75,284.91Z"/><path class="m" d="M214.57,283.85c-.44-.11-.31,6.51.13,6.38.24,0,.55-1.41.52-3.2S214.81,283.82,214.57,283.85Z"/><path class="m" d="M218.09,283.67c-.26,0-.39,1.52-1,3.25s-1.4,3-1.2,3.18c.83-.18,1.72-1.94,2-2.89S218.63,284.31,218.09,283.67Z"/><path class="m" d="M220.62,283.31c-.26,0-.6,1.68-1.37,3.64a16.53,16.53,0,0,1-1.43,3.08c-.14.15-.35.2-.14.31a.53.53,0,0,0,.29,0C219.58,289.71,221.3,284.75,220.62,283.31Z"/><path class="m" d="M223.25,283.49c-.13,0-.23.46-.39,1.17a16.76,16.76,0,0,1-2.38,5.6.84.84,0,0,1-.17.22.24.24,0,0,1-.16.08s-.06,0-.07,0a.18.18,0,0,0,0,.15c.22.2.54,0,.75-.14C222.6,289.16,224.15,285.4,223.25,283.49Z"/><path class="m" d="M226.63,283.31c-.17-.05-.41,1.22-.56,1.67,0,.2-.12.41-.19.62a14,14,0,0,1-1.24,2.69c-.13.19-.24.38-.35.55-.25.4-1.07,1.41-.92,1.5s1.2-.64,1.5-1a5.09,5.09,0,0,0,.45-.55,8.13,8.13,0,0,0,1.36-2.92,6.86,6.86,0,0,0,.12-.7C226.91,284.64,226.84,283.25,226.63,283.31Z"/><path class="m" d="M227.53,285.26c-.25,0-.66,1.36-1.33,3-.79,1.93-2,4.26-.32,2.41C226.77,289.54,228.08,286.59,227.53,285.26Z"/><path class="m" d="M229.63,283.85c-.26,0-.32,1.79-.87,3.87s-1.35,3.67-1.13,3.81c.88-.38,1.7-2.47,2-3.58S230.21,284.6,229.63,283.85Z"/><path class="m" d="M232.83,286c-.25,0-.68,1.78-1.73,3.76a5.12,5.12,0,0,1-2.19,2.55l.24.27c0-.14.14-.27.15-.37s-.07-.07-.17-.06-.42.35-.52.58c1.56.11,2.6-1.21,3.29-2.55S233.22,286.91,232.83,286Z"/><path class="m" d="M236.16,286.68c-.27.1-.66,1.68-.95,2.16a12.42,12.42,0,0,1-1.53,2.45c-.3.47-1.55,1.52-1.52,1.81.06.1.51,0,1.13-.42a6.55,6.55,0,0,0,1-.83,7.67,7.67,0,0,0,1.68-2.7,6.33,6.33,0,0,0,.3-1.27C236.37,287.14,236.28,286.69,236.16,286.68Z"/><path class="m" d="M237.82,285.62c-.24.2-.35,2.19-.59,2.82a13.39,13.39,0,0,1-1.37,3.29c-.27.62-1.61,2.11-1.58,2.42.07.09.58-.16,1.24-.77a8.08,8.08,0,0,0,1-1.2,9.3,9.3,0,0,0,1.48-3.56,7.74,7.74,0,0,0,.11-1.58C238.12,286.14,237.93,285.6,237.82,285.62Z"/><path class="m" d="M239,288.45c-.26,0-.47,1.55-1.14,3.32s-1.52,3.09-1.32,3.25c.84-.18,1.8-2,2.16-2.93S239.56,289.14,239,288.45Z"/><path class="m" d="M243.82,289c-.12,0-.38.45-.74,1.24a13.15,13.15,0,0,1-2.86,4.41,5.41,5.41,0,0,1-1,.7c-.71.38-1.24.34-1.27.47.62.63,2.08,0,2.77-.54C242.43,294.09,244,290.81,243.82,289Z"/><path class="m" d="M245.74,292.68c-.1-.08-.46.19-1,.66a22.78,22.78,0,0,1-3.19,2.68c-.18.11-.37.22-.55.31l-.25.13-.24.11c-.21.11-.38.16-.56.25,0,0,0,0,0,0h0l-.07,0-.09,0h-.07s0,0,0,0,0-.06,0-.08h0a.1.1,0,0,0-.07.05.22.22,0,0,0,0,.21.79.79,0,0,0,.12.15c.27.21.66.07,1,0l.29-.07a5.13,5.13,0,0,0,1-.37C243.41,296,245.51,294,245.74,292.68Z"/><path class="m" d="M248,294.11c-.12-.12-.9,1.09-1.26,1.43-.14.16-.31.32-.48.5a9.2,9.2,0,0,1-2.66,1.74c-.23.09-.45.18-.66.24-.63.28-2.79.5-1.28.79l.23,0a5.22,5.22,0,0,0,.56,0l.33,0,.34-.05a7.67,7.67,0,0,0,.76-.19,6.92,6.92,0,0,0,3-1.95,6.33,6.33,0,0,0,.47-.62c.07-.1.14-.19.2-.29l.15-.29a4.13,4.13,0,0,0,.22-.51c0-.08.06-.15.08-.22S248.13,294.12,248,294.11Z"/><path class="m" d="M249.13,296.23c-.08-.28-2.94,2-4,2.65a3.86,3.86,0,0,1-1.53.67c-.16,0-.27,0-.3.1C244.36,301.2,249.14,297.42,249.13,296.23Z"/><path class="m" d="M251.68,298.6c-.07-.15-1.17.73-1.6.95-.18.12-.39.22-.6.34a10.07,10.07,0,0,1-3,1l-.68.09c-.67.11-2.76-.06-1.38.5l.21.07a3.8,3.8,0,0,0,.53.11,5.62,5.62,0,0,0,1.42.05,7.33,7.33,0,0,0,3.28-1.08,5.75,5.75,0,0,0,1.47-1.3l.13-.18C251.58,299,251.77,298.65,251.68,298.6Z"/><path class="m" d="M253.22,299.58a.58.58,0,0,1-.35.4c-.76.39-1.48.8-2.52,1.27-1.77.81-3.32,1.2-3.29,1.45,1.6.59,4.87-1,6.06-2.22l.09-.08a.91.91,0,0,0,.25-.51.32.32,0,0,0-.12-.3C253.28,299.55,253.24,299.56,253.22,299.58Z"/><path class="m" d="M253.16,302.25c-.14-.08-.66.63-.94.85-.1.1-.22.19-.33.29a5.89,5.89,0,0,1-.85.54,6.28,6.28,0,0,1-.95.36c-.15,0-.29.08-.43.1-.49.12-1.83,0-.94.53l.15.06a2.8,2.8,0,0,0,.37.1l.23,0h.24a3.38,3.38,0,0,0,.54,0,3.83,3.83,0,0,0,2.19-1.1,3.19,3.19,0,0,0,.35-.41,1.2,1.2,0,0,0,.13-.21l.11-.2a1.48,1.48,0,0,0,.14-.36.83.83,0,0,0,0-.15C253.24,302.53,253.25,302.27,253.16,302.25Z"/><path class="m" d="M255.55,302.64c-.12-.05-.37.29-.8.78a8,8,0,0,1-3.08,2.24,4.74,4.74,0,0,1-.56.2,3.14,3.14,0,0,1-.49.14,2,2,0,0,1-.69.05c-.16,0-.26-.06-.31,0s0,.17.16.32a1.43,1.43,0,0,0,.89.28,3.17,3.17,0,0,0,.6-.05,5.32,5.32,0,0,0,.67-.14C253.45,306.1,255.75,304.15,255.55,302.64Z"/><path class="m" d="M256.32,304.83c-.48-.13-3.53,2.83-4.51,3.25-.1,0-.2,0-.24.07s0,.17.17.28C253,308.85,256.39,305.94,256.32,304.83Z"/><path class="m" d="M256.56,305.81c-.12,0-.29.2-.52.56a19.53,19.53,0,0,1-1.88,2.62.33.33,0,0,1-.13.13l-.08.06c-.17.05-.2-.05-.24.16a.24.24,0,0,0,.1.18l.06,0a.76.76,0,0,0,.67-.05l.09-.06.25-.16C255.79,308.66,257.07,306.75,256.56,305.81Z"/><path class="m" d="M200.14,287.6c-.41,1,.5,3.52,1.3,4.6.14.17.26.33.4.47l.19.19a3.79,3.79,0,0,0,.72.51c.95.42.2-.42-.2-1l-.13-.21c-.1-.14-.18-.3-.29-.46a28.08,28.08,0,0,1-1.43-3.27C200.46,287.91,200.27,287.57,200.14,287.6Z"/><path class="m" d="M206.57,292.73c0-.13-.3-.35-.77-.76a9.92,9.92,0,0,1-1.66-1.76c-.76-.87-1.48-2.54-2.18-2.85-.16.79.75,2.39,1.46,3.4S205.66,293,206.57,292.73Z"/><path class="m" d="M208.16,292.23c.15-.21-.92-1.16-1.95-2.54s-1.68-2.64-1.92-2.55c-.29.74.65,2.35,1.21,3.1S207.37,292.32,208.16,292.23Z"/><path class="m" d="M180.75,316.53c.16,0,.37-1.1.54-1.48.06-.17.14-.35.21-.53A7.52,7.52,0,0,1,183,312.4c.15-.13.29-.27.43-.38.43-.42,2-1.21.72-1.06L184,311a2.22,2.22,0,0,0-.44.14l-.26.11-.26.15a4,4,0,0,0-.54.37,5.35,5.35,0,0,0-1.72,2.44,5.83,5.83,0,0,0-.16.63c0,.11,0,.2,0,.3l0,.27a3.39,3.39,0,0,0,0,.47,1.11,1.11,0,0,0,0,.19C180.56,316.23,180.66,316.55,180.75,316.53Z"/><path class="m" d="M182.64,315.4c.12.05.32-.14.59-.45.51-.63,1.56-1.78,2.14-2.34s.5-.9-.37-.53S182.26,314.34,182.64,315.4Z"/><path class="m" d="M182.86,319.91c.25.06.7-1.34,1.73-2.75s2.17-2.32,2-2.54c-.83-.14-2.22,1.22-2.78,2S182.46,319.18,182.86,319.91Z"/><path class="m" d="M186.07,321.5c.25,0,.63-1.31,1.5-2.74s1.87-2.4,1.72-2.61c-.8-.06-2,1.35-2.49,2.15S185.63,320.83,186.07,321.5Z"/><path class="m" d="M187.83,322.63c.25.05.74-1.29,1.64-2.76s1.85-2.53,1.68-2.73c-.8,0-2,1.47-2.45,2.27S187.46,321.92,187.83,322.63Z"/><path class="m" d="M189.72,324c.12,0,.28-.3.52-.8a15.45,15.45,0,0,1,1-1.83,13.22,13.22,0,0,1,1.34-1.64c.37-.41.62-.67.55-.78-.79-.17-2.11,1.14-2.63,1.91S189.28,323.28,189.72,324Z"/><path class="m" d="M190.59,326.87c.26.06.8-1.57,1.89-3.32s2.27-3,2.11-3.2c-.93.08-2.29,1.78-2.88,2.72S190.24,326,190.59,326.87Z"/><path class="m" d="M194.15,326c.26,0,.61-1.23,1.32-2.63s1.48-2.46,1.3-2.64c-.75,0-1.71,1.46-2.11,2.24S193.71,325.4,194.15,326Z"/><path class="m" d="M195,328.08a1.57,1.57,0,0,1,.27-1.25c.58-1.09,3-4.43,2.71-4.63-1.06.1-4.38,4.57-3.31,5.77C194.87,328.14,195,328.13,195,328.08Z"/><path class="m" d="M197.77,329.4c.26,0,.58-1.41,1.38-3s1.72-2.7,1.55-2.89c-.83.05-1.92,1.63-2.36,2.49S197.31,328.72,197.77,329.4Z"/><path class="m" d="M200.25,329.4c.26,0,.65-1.27,1.31-2.8s1.34-2.71,1.14-2.87c-.76.16-1.5,1.54-2,2.52S199.85,328.74,200.25,329.4Z"/><path class="m" d="M203.65,329.85c.25,0,.65-1.23,1.18-2.77s1-2.8.75-2.92c-.69.24-1.23,1.67-1.6,2.63S203.25,329.25,203.65,329.85Z"/><path class="m" d="M206.36,331.88c.26,0,.29-1.52.82-3.24s1.3-3,1.1-3.15c-.83.17-1.68,1.95-2,2.89S205.77,331.29,206.36,331.88Z"/><path class="m" d="M208.25,330.06c.13,0,.26-.18.4-.5.26-.61.68-1.82.86-2.45s0-.89-.56-.31S207.6,329.4,208.25,330.06Z"/><path class="m" d="M210.18,333.46c.26,0,.29-1.76.67-3.84s.93-3.72.69-3.83c-.79.47-1.36,2.58-1.57,3.68S209.59,332.75,210.18,333.46Z"/><path class="m" d="M213,331.66c.26,0,.34-1.29.63-2.8s.66-2.72.43-2.83c-.67.25-1.1,1.7-1.31,2.67S212.47,331.17,213,331.66Z"/><path class="m" d="M215.21,333c.7-.35,1-2.11,1.08-3s-.06-2.69-.7-3.11c-.25.06-.09,1.42-.2,3.06S215,332.94,215.21,333Z"/><path class="m" d="M217.85,332.78c.63-.42.77-2,.81-3s-.17-2.62-.79-3.05c-.25.06-.1,1.41-.11,3.05S217.61,332.72,217.85,332.78Z"/><path class="m" d="M220.77,331.2c.24,0,.55-.94.51-2.16s-.37-2.18-.61-2.14C220.21,326.87,220.32,331.25,220.77,331.2Z"/><path class="m" d="M222.9,333.93c.68-.51.86-2.5.88-3.52s-.2-3-.88-3.51c-.25.06,0,1.62,0,3.51S222.65,333.87,222.9,333.93Z"/><path class="m" d="M225.34,332.56c.58.13.33-6.72-.24-6.55C224.52,325.88,224.77,332.73,225.34,332.56Z"/><path class="m" d="M227.3,330.29c.56-.26.6-1.43.49-2.21a3.71,3.71,0,0,0-.6-1.52c-.52-.69-.79-.53-.58.27a20.34,20.34,0,0,1,.47,2.81C227.12,330,227.18,330.27,227.3,330.29Z"/><path class="m" d="M352.25,325.57c-.87-.27-1-2.33-.78-3.1s.53-.67.64,0,.24,1.83.28,2.47C352.4,325.3,352.37,325.53,352.25,325.57Z"/><path class="m" d="M349.73,324.44c-.57.12-1-2.64-.44-2.71S350.31,324.37,349.73,324.44Z"/><path class="m" d="M347.36,323.09c-.32-.15-.31-.64-.35-1s-.05-.85.25-1C348.06,321,348.16,323.06,347.36,323.09Z"/><path class="m" d="M353.85,325.11c-.75.1-1-1.73-.21-1.81.31.1.38.54.43.87S354.14,324.94,353.85,325.11Z"/><path class="m" d="M356.58,327.59c-.88-.29-1.08-3.68-.25-4.07.25,0,.31,1,.38,2S356.82,327.52,356.58,327.59Z"/><path class="m" d="M359,327.59c-.58.05-.63-3.19,0-3.16S359.62,327.62,359,327.59Z"/><path class="m" d="M361.08,329c-.92-.36-1.14-4.06-.27-4.53.25,0,.28,1.05.36,2.25S361.32,328.88,361.08,329Z"/><path class="m" d="M363.79,329.85c-.24,0-.49-1.13-.35-2.54s.59-2.48.83-2.42C364.7,324.87,364.21,330,363.79,329.85Z"/><path class="m" d="M406.5,307c.35.39,1,.1,1.49.1a26.49,26.49,0,0,0,4-.73c3.09-.8,5.33-2.2,5.48-2-1.63,2.13-6.52,3.54-9.48,3.34a5.13,5.13,0,0,1-.73-.06,1.38,1.38,0,0,1-.61-.16C406.47,307.4,406.31,307.06,406.5,307Z"/><path class="m" d="M404.45,305.56c.23-.25,2.51-.33,3.23-.54a19.49,19.49,0,0,0,3.89-1.21c.71-.23,2.65-1.47,3-1.39.07.09-.32.58-1.12,1.19a10.22,10.22,0,0,1-1.49.95,12.67,12.67,0,0,1-4.12,1.28,10.45,10.45,0,0,1-1.76.07C405,305.86,404.44,305.68,404.45,305.56Z"/><path class="m" d="M404.28,304.4c0-.26,1.72-.7,3.68-1.68s3.4-2.06,3.58-1.87c-.22.94-2.14,2.16-3.18,2.68S405.15,304.81,404.28,304.4Z"/><path class="m" d="M410.61,299.58c.09,0-.08.42-.17.57l-.13.2a3.37,3.37,0,0,1-.36.45l-.23.25-.28.25a7.33,7.33,0,0,1-.65.49,7,7,0,0,1-3.52,1.09c-.29,0-.56,0-.82,0l-.36,0-.33-.08a3.39,3.39,0,0,1-.56-.17l-.22-.09c-.64-.32-.6-.51.12-.41.25,0,.47,0,.75,0s.42,0,.64,0,.47,0,.73,0a8.75,8.75,0,0,0,3.15-1c.22-.13.44-.25.62-.38s.36-.24.53-.36.39-.32.59-.47S410.55,299.51,410.61,299.58Z"/><path class="m" d="M408.92,296.81c.09,0-.14.44-.24.6a7.69,7.69,0,0,1-1.8,1.8,9.86,9.86,0,0,1-3.7,1.6,7.77,7.77,0,0,1-2.54.09c-1.21-.26-.39-.39.84-.57A14.11,14.11,0,0,0,403,300a13.9,13.9,0,0,0,3.43-1.48C407.06,298.22,408.61,296.79,408.92,296.81Z"/><path class="m" d="M405.26,295c.1.06,0,.53-.45,1.18a6.21,6.21,0,0,1-.88,1.05,7.63,7.63,0,0,1-2.89,1.67,6.38,6.38,0,0,1-1.35.24c-.78,0-1.25-.08-1.25-.19.13-.26,1.81-.56,2.32-.84a10.51,10.51,0,0,0,2.62-1.51C403.88,296.26,405,295,405.26,295Z"/><path class="m" d="M402.87,292.53c.11.05,0,.55-.32,1.27a6.08,6.08,0,0,1-.79,1.18,7.67,7.67,0,0,1-2.77,2.08,6.24,6.24,0,0,1-1.36.41c-.79.15-1.29.07-1.31,0s1.27-.58,1.69-.81l.62-.31a11,11,0,0,0,2.52-1.88c.16-.18.33-.34.47-.51C402,293.58,402.75,292.41,402.87,292.53Z"/><path class="m" d="M399.19,290.42c.17,1.56-1.89,4.43-3.06,5.52-2.11,1.77-.36-.59.94-2.54C398.16,291.75,399,290.33,399.19,290.42Z"/><path class="m" d="M396.87,288.11c.11,0,.14.48-.05,1.19a6.05,6.05,0,0,1-.46,1.2,7.54,7.54,0,0,1-2,2.41,5.92,5.92,0,0,1-1.09.67c-.67.31-1.13.37-1.17.26,0-.29,1.36-1.14,1.73-1.56a11.9,11.9,0,0,0,1.82-2.19C396,289.66,396.59,288.16,396.87,288.11Z"/><path class="m" d="M387.26,285.08c.41,1.47-1.15,4.51-2.12,5.71-1.78,2-.45-.52.51-2.56C386.45,286.49,387,285,387.26,285.08Z"/><path class="m" d="M384.62,285.27c.56.17-2.53,5.89-3,5.51C381.07,290.61,384.17,284.89,384.62,285.27Z"/><path class="m" d="M381.42,284.91c.59,0-.76,5.53-1.29,5.3C379.54,290.17,380.89,284.68,381.42,284.91Z"/><path class="m" d="M378.61,283.85c.44-.11.3,6.51-.13,6.38-.24,0-.56-1.41-.52-3.2S378.37,283.82,378.61,283.85Z"/><path class="m" d="M375.09,283.67c.26,0,.39,1.52,1,3.25s1.4,3,1.2,3.18c-.83-.18-1.73-1.94-2-2.89S374.54,284.31,375.09,283.67Z"/><path class="m" d="M372.56,283.31c.26,0,.6,1.68,1.36,3.64a15.89,15.89,0,0,0,1.44,3.08c.14.15.35.2.14.31a.53.53,0,0,1-.29,0C373.6,289.71,371.88,284.75,372.56,283.31Z"/><path class="m" d="M369.93,283.49c.13,0,.22.46.38,1.17a16.79,16.79,0,0,0,2.39,5.6.84.84,0,0,0,.17.22.25.25,0,0,0,.15.08s.07,0,.08,0a.16.16,0,0,1,0,.15c-.21.2-.53,0-.74-.14C370.58,289.16,369,285.4,369.93,283.49Z"/><path class="m" d="M366.55,283.31c.17-.05.4,1.22.56,1.67.05.2.12.41.19.62a14,14,0,0,0,1.24,2.69c.12.19.23.38.35.55.25.4,1.06,1.41.91,1.5s-1.19-.64-1.5-1c-.15-.16-.29-.35-.45-.55a8.11,8.11,0,0,1-1.35-2.92c-.05-.25-.1-.48-.13-.7C366.26,284.64,366.34,283.25,366.55,283.31Z"/><path class="m" d="M365.65,285.26c.25,0,.66,1.36,1.32,3,.79,1.93,2,4.26.33,2.41C366.41,289.54,365.09,286.59,365.65,285.26Z"/><path class="m" d="M363.55,283.85c.26,0,.32,1.79.87,3.87s1.35,3.67,1.13,3.81c-.88-.38-1.7-2.47-2-3.58S363,284.6,363.55,283.85Z"/><path class="m" d="M360.34,286c.26,0,.68,1.78,1.73,3.76a5.17,5.17,0,0,0,2.19,2.55l-.23.27c0-.14-.14-.27-.15-.37s.06-.07.17-.06.42.35.52.58c-1.56.11-2.61-1.21-3.3-2.55S360,286.91,360.34,286Z"/><path class="m" d="M357,286.68c.27.1.66,1.68,1,2.16a11.55,11.55,0,0,0,1.53,2.45c.3.47,1.55,1.52,1.52,1.81-.06.1-.51,0-1.13-.42a6.11,6.11,0,0,1-1-.83,7.67,7.67,0,0,1-1.68-2.7,5.72,5.72,0,0,1-.3-1.27C356.81,287.14,356.9,286.69,357,286.68Z"/><path class="m" d="M355.36,285.62c.24.2.35,2.19.59,2.82a12.66,12.66,0,0,0,1.37,3.29c.27.62,1.61,2.11,1.58,2.42-.07.09-.58-.16-1.24-.77a7.54,7.54,0,0,1-1-1.2,9.3,9.3,0,0,1-1.48-3.56A8.54,8.54,0,0,1,355,287C355.06,286.14,355.24,285.6,355.36,285.62Z"/><path class="m" d="M354.14,288.45c.26,0,.46,1.55,1.14,3.32s1.52,3.09,1.32,3.25c-.85-.18-1.8-2-2.17-2.93S353.62,289.14,354.14,288.45Z"/><path class="m" d="M349.35,289c.13,0,.39.45.75,1.24a13.12,13.12,0,0,0,2.85,4.41,5.48,5.48,0,0,0,1,.7c.71.38,1.24.34,1.27.47-.62.63-2.08,0-2.77-.54C350.75,294.09,349.15,290.81,349.35,289Z"/><path class="m" d="M347.44,292.68c.09-.08.46.19,1,.66a22.78,22.78,0,0,0,3.19,2.68,6,6,0,0,0,.55.31l.25.13.24.11c.21.11.38.16.56.25,0,0,0,0,0,0h0l.07,0,.08,0h.09s0,0,0,0v0s0-.06,0-.08h0a.1.1,0,0,1,.07.05.22.22,0,0,1,0,.21.4.4,0,0,1-.12.15c-.26.21-.65.07-1,0l-.29-.07a4.88,4.88,0,0,1-1-.37C349.76,296,347.66,294,347.44,292.68Z"/><path class="m" d="M345.14,294.11c.12-.12.89,1.09,1.25,1.43.14.16.32.32.49.5a9.2,9.2,0,0,0,2.66,1.74,6.64,6.64,0,0,0,.66.24c.63.28,2.79.5,1.27.79l-.23,0a5,5,0,0,1-.55,0l-.33,0-.35-.05c-.24,0-.49-.12-.76-.19a7,7,0,0,1-3-1.95,5.19,5.19,0,0,1-.48-.62l-.19-.29-.15-.29a4.31,4.31,0,0,1-.23-.51c0-.08-.05-.15-.07-.22S345.05,294.12,345.14,294.11Z"/><path class="m" d="M344.05,296.23c.08-.28,2.94,2,4,2.65a3.86,3.86,0,0,0,1.53.67c.16,0,.27,0,.29.1C348.81,301.2,344,297.42,344.05,296.23Z"/><path class="m" d="M341.49,298.6c.08-.15,1.18.73,1.61.95.18.12.39.22.6.34a10,10,0,0,0,3,1l.68.09c.67.11,2.77-.06,1.39.5l-.22.07a3.28,3.28,0,0,1-.53.11,5.52,5.52,0,0,1-1.41.05,7.37,7.37,0,0,1-3.29-1.08,5.87,5.87,0,0,1-1.46-1.3l-.13-.18C341.59,299,341.41,298.65,341.49,298.6Z"/><path class="m" d="M340,299.58a.56.56,0,0,0,.35.4c.76.39,1.48.8,2.52,1.27,1.76.81,3.32,1.2,3.28,1.45-1.59.59-4.86-1-6.05-2.22l-.09-.08a.85.85,0,0,1-.25-.51.31.31,0,0,1,.11-.3C339.9,299.55,339.94,299.56,340,299.58Z"/><path class="m" d="M340,302.25c.14-.08.66.63.93.85.1.1.22.19.34.29a5.38,5.38,0,0,0,.85.54,5.81,5.81,0,0,0,.94.36c.15,0,.3.08.44.1.49.12,1.82,0,.93.53l-.14.06a2.58,2.58,0,0,1-.38.1l-.22,0h-.24a3.57,3.57,0,0,1-.55,0,3.89,3.89,0,0,1-2.19-1.1,3.07,3.07,0,0,1-.34-.41l-.14-.21-.1-.2a1.48,1.48,0,0,1-.14-.36.83.83,0,0,1,0-.15C339.94,302.53,339.93,302.27,340,302.25Z"/><path class="m" d="M337.63,302.64c.12-.05.37.29.79.78a8.13,8.13,0,0,0,3.09,2.24,3.73,3.73,0,0,0,.56.2,2.86,2.86,0,0,0,.49.14,1.91,1.91,0,0,0,.68.05c.17,0,.27-.06.32,0s0,.17-.16.32a1.45,1.45,0,0,1-.89.28,3.1,3.1,0,0,1-.6-.05,5,5,0,0,1-.67-.14C339.73,306.1,337.43,304.15,337.63,302.64Z"/><path class="m" d="M336.86,304.83c.48-.13,3.52,2.83,4.5,3.25.1,0,.2,0,.25.07s0,.17-.18.28C340.15,308.85,336.78,305.94,336.86,304.83Z"/><path class="m" d="M412.61,305.81c-.12,0-.29.2-.52.56a19.44,19.44,0,0,1-1.87,2.62.53.53,0,0,1-.13.13l-.09.06c-.16.05-.2-.05-.23.16a.2.2,0,0,0,.09.18l.06,0a.76.76,0,0,0,.67-.05l.1-.06.24-.16C411.85,308.66,413.12,306.75,412.61,305.81Z"/><path class="m" d="M393,287.6c.41,1-.49,3.52-1.29,4.6-.14.17-.26.33-.4.47l-.2.19a3.44,3.44,0,0,1-.71.51c-1,.42-.2-.42.19-1l.14-.21c.1-.14.18-.3.28-.46a26.61,26.61,0,0,0,1.44-3.27C392.71,287.91,392.91,287.57,393,287.6Z"/><path class="m" d="M386.61,292.73c-.05-.13.29-.35.77-.76a9.92,9.92,0,0,0,1.66-1.76c.76-.87,1.48-2.54,2.17-2.85.16.79-.74,2.39-1.45,3.4S387.51,293,386.61,292.73Z"/><path class="m" d="M385,292.23c-.15-.21.91-1.16,1.94-2.54s1.68-2.64,1.93-2.55c.29.74-.65,2.35-1.21,3.1S385.81,292.32,385,292.23Z"/><path class="m" d="M412.42,316.53c-.16,0-.36-1.1-.53-1.48-.06-.17-.14-.35-.22-.53a7.14,7.14,0,0,0-1.49-2.12c-.14-.13-.28-.27-.42-.38-.43-.42-2-1.21-.72-1.06l.18.05a2.3,2.3,0,0,1,.45.14l.25.11c.09,0,.17.1.26.15a3.53,3.53,0,0,1,.55.37,5.33,5.33,0,0,1,1.71,2.44,4.25,4.25,0,0,1,.17.63c0,.11,0,.2,0,.3l0,.27a2.38,2.38,0,0,1,0,.47c0,.07,0,.13,0,.19S412.51,316.55,412.42,316.53Z"/><path class="m" d="M410.53,315.4c-.11.05-.32-.14-.59-.45a31.42,31.42,0,0,0-2.13-2.34c-.65-.63-.5-.9.36-.53S410.92,314.34,410.53,315.4Z"/><path class="m" d="M410.32,319.91c-.25.06-.7-1.34-1.73-2.75s-2.18-2.32-2-2.54c.82-.14,2.21,1.22,2.77,2S410.72,319.18,410.32,319.91Z"/><path class="m" d="M407.11,321.5c-.26,0-.63-1.31-1.51-2.74s-1.87-2.4-1.71-2.61c.8-.06,2,1.35,2.49,2.15S407.55,320.83,407.11,321.5Z"/><path class="m" d="M405.35,322.63c-.26.05-.75-1.29-1.65-2.76s-1.84-2.53-1.67-2.73c.8,0,2,1.47,2.44,2.27S405.72,321.92,405.35,322.63Z"/><path class="m" d="M403.46,324c-.13,0-.29-.3-.53-.8a13.08,13.08,0,0,0-1-1.83,12.33,12.33,0,0,0-1.33-1.64c-.38-.41-.62-.67-.55-.78.79-.17,2.11,1.14,2.63,1.91S403.9,323.28,403.46,324Z"/><path class="m" d="M402.59,326.87c-.26.06-.8-1.57-1.89-3.32s-2.28-3-2.11-3.2c.93.08,2.29,1.78,2.88,2.72S402.94,326,402.59,326.87Z"/><path class="m" d="M399,326c-.26,0-.61-1.23-1.32-2.63s-1.49-2.46-1.31-2.64c.76,0,1.72,1.46,2.12,2.24S399.47,325.4,399,326Z"/><path class="m" d="M398.14,328.08a1.6,1.6,0,0,0-.26-1.25c-.59-1.09-3-4.43-2.72-4.63,1.07.1,4.39,4.57,3.32,5.77C398.31,328.14,398.17,328.13,398.14,328.08Z"/><path class="m" d="M395.41,329.4c-.26,0-.58-1.41-1.38-3s-1.73-2.7-1.55-2.89c.83.05,1.92,1.63,2.35,2.49S395.87,328.72,395.41,329.4Z"/><path class="m" d="M392.92,329.4c-.25,0-.64-1.27-1.31-2.8s-1.34-2.71-1.13-2.87c.75.16,1.49,1.54,2,2.52S393.33,328.74,392.92,329.4Z"/><path class="m" d="M389.53,329.85c-.25,0-.66-1.23-1.18-2.77s-1-2.8-.75-2.92c.69.24,1.23,1.67,1.6,2.63S389.93,329.25,389.53,329.85Z"/><path class="m" d="M386.81,331.88c-.26,0-.29-1.52-.81-3.24s-1.3-3-1.1-3.15c.82.17,1.68,1.95,2,2.89S387.4,331.29,386.81,331.88Z"/><path class="m" d="M384.93,330.06c-.13,0-.26-.18-.4-.5-.26-.61-.68-1.82-.86-2.45s.05-.89.56-.31S385.58,329.4,384.93,330.06Z"/><path class="m" d="M383,333.46c-.26,0-.3-1.76-.68-3.84s-.92-3.72-.69-3.83c.8.47,1.37,2.58,1.58,3.68S383.58,332.75,383,333.46Z"/><path class="m" d="M380.17,331.66c-.25,0-.33-1.29-.62-2.8s-.66-2.72-.43-2.83c.67.25,1.1,1.7,1.31,2.67S380.71,331.17,380.17,331.66Z"/><path class="m" d="M378,333c-.69-.35-1-2.11-1.08-3s.07-2.69.71-3.11c.25.06.08,1.42.19,3.06S378.2,332.94,378,333Z"/><path class="m" d="M375.32,332.78c-.62-.42-.76-2-.8-3s.17-2.62.79-3.05c.25.06.1,1.41.11,3.05S375.57,332.72,375.32,332.78Z"/><path class="m" d="M372.41,331.2c-.25,0-.55-.94-.52-2.16s.38-2.18.62-2.14C373,326.87,372.86,331.25,372.41,331.2Z"/><path class="m" d="M370.28,333.93c-.68-.51-.87-2.5-.88-3.52s.2-3,.88-3.51c.25.06,0,1.62,0,3.51S370.53,333.87,370.28,333.93Z"/><path class="m" d="M367.84,332.56c-.59.13-.33-6.72.24-6.55C368.66,325.88,368.41,332.73,367.84,332.56Z"/><path class="m" d="M365.88,330.29c-.57-.26-.6-1.43-.49-2.21a3.71,3.71,0,0,1,.59-1.52c.53-.69.79-.53.58.27a20.32,20.32,0,0,0-.46,2.81C366.05,330,366,330.27,365.88,330.29Z"/></g><g class="n"><path d="M126.84,308.1c-4-4-4.62-10.81-10.21-13.25-3.42-1.51-6.6-.7-8.3,2.66-2.87,5.69-3.39,14-4,20.28a86.94,86.94,0,0,0,.73,23.29c2.64,16,8.59,31.42,13.57,46.78,2.56,7.9,5,15.83,7.69,23.71,1.6,4.76,3.52,9.26,8,12a1.08,1.08,0,0,0,1.09-1.87c-5.24-3.17-6.63-9.54-8.4-15l-6-18.46c-3.79-11.68-7.89-23.32-11.09-35.17-3.29-12.2-4.78-24.51-3.22-37.1.45-3.61,1.11-7.19,1.9-10.73a24.58,24.58,0,0,1,.86-3.63c1-2.64,4.12-6.18,7.23-4.3,4.28,2.58,5.19,8.83,8.68,12.35,1,1,2.5-.54,1.52-1.53Z"/></g><g class="n"><path d="M464.34,309.63c3.49-3.52,4.38-9.76,8.68-12.35,7.74-4.67,9.47,14.48,10,18.66,1.56,12.59.08,24.89-3.21,37.1-3.2,11.85-7.31,23.49-11.09,35.17l-6,18.46c-1.76,5.45-3.15,11.82-8.39,15a1.08,1.08,0,0,0,1.09,1.87c4.25-2.57,6.19-6.78,7.77-11.32,2.69-7.75,5.07-15.62,7.6-23.43,5.08-15.66,11.18-31.4,13.87-47.7a86,86,0,0,0,.81-22.37c-.62-6.56-1.18-15.1-4.08-21.07-1.65-3.4-4.75-4.31-8.23-2.85-5.68,2.39-6.33,9.27-10.34,13.31-1,1,.55,2.52,1.53,1.53Z"/></g><path class="o" d="M599.9,13.05V.39H.69V13.05H0V600H151.7l6-20.7,3.74-23.62c-.68-14.07-2.06-42.54-2.74-56.64l-5.4-27.52a200.15,200.15,0,0,1-14.81-41.62l-3.65-7.3c-4.33-2.24-6.2-7.32-7.7-12L113.93,370c-4.15-12.81-8.33-25.8-9-39.24-.51-10.55,1.19-21.11,3.88-31.31a8,8,0,0,1,1.12-2.74c2.36-3.17,7.67-1.17,9.93,2.08,1.83,2.63,2.82,5.88,4.72,8.4-11.93-55.77-11.42-97.5,5.39-152.15C156.82,62.14,240.6,33.47,329.64,40.86,410.75,48.24,469,111,479.79,190.31c4.47,38.22-4.63,76-14,112.61-.18,1.36-.35,2.72-.52,4.09,1.79-2.49,2.77-5.63,4.55-8.18,2.26-3.25,7.57-5.25,9.93-2.08a7.83,7.83,0,0,1,1.11,2.74c2.7,10.2,4.39,20.76,3.89,31.31-.65,13.44-4.84,26.43-9,39.24q-6.59,20.29-13.16,40.61c-1.5,4.63-3.37,9.71-7.7,12l2.31-30.13c-2.24,16.75-5.5,33.41-11,49.42a252.85,252.85,0,0,1-20.66,44.16,280.29,280.29,0,0,0-3,59l1.19,15.33,6.7,27L435.55,600H600V13.05Z"/></svg>