<?xml version="1.0" encoding="UTF-8"?><svg id="a" xmlns="http://www.w3.org/2000/svg" viewBox="0 0 52.65 33.71"><defs><style>.b{fill:#404041;}.c{fill:#f1f1f2;stroke:#231f20;stroke-width:2px;}.c,.d{stroke-miterlimit:10;}.d{fill:#58595b;stroke:#fff;}</style></defs><polygon class="d" points="52.09 25.18 32.97 1.42 33.03 22.23 21.21 32.43 49.04 33.2 52.09 25.18"/><polygon class="c" points="22.52 21.43 22.52 25.95 43.78 20.26 22.52 14.56 22.52 19.08 9.8 19.08 9.8 21.43 22.52 21.43"/><path class="b" d="M9.8,2.52c-2.88,0-5.2,2.33-5.2,5.2,0,3.9,5.2,9.66,5.2,9.66,0,0,5.2-5.76,5.2-9.66,0-2.88-2.33-5.2-5.2-5.2Zm0,7.06c-1.03,0-1.86-.83-1.86-1.86s.83-1.86,1.86-1.86,1.86,.83,1.86,1.86-.83,1.86-1.86,1.86Z"/></svg>