<svg id="Layer_1" data-name="Layer 1" xmlns="http://www.w3.org/2000/svg" viewBox="0 0 30.66 44.11"><defs><style>.cls-1{fill:#404041;}.cls-2{fill:#f1f1f2;stroke:#231f20;stroke-miterlimit:10;stroke-width:1.59px;}</style></defs><path class="cls-1" d="M23.83,2.58a7,7,0,0,0-7,7c0,5.25,7,13,7,13s7-7.75,7-13A7,7,0,0,0,23.83,2.58Zm0,9.5a2.5,2.5,0,1,1,2.5-2.5A2.5,2.5,0,0,1,23.83,12.08Z" transform="translate(-0.17 -2.58)"/><polygon class="cls-2" points="10.89 35.05 15.32 39.22 22.2 20.72 4.15 28.71 8.58 32.88 1.13 40.81 3.44 42.98 10.89 35.05"/></svg>